<svg width="63" height="69" viewBox="0 0 63 69" fill="none" xmlns="http://www.w3.org/2000/svg">
<path fill-rule="evenodd" clip-rule="evenodd" d="M41.1579 10.5124C42.5915 10.5124 43.6335 7.67695 47.6324 8.78074C49.0792 9.18061 50.5792 10.5984 51.0571 11.9731C51.2562 12.5449 51.2894 13.2389 51.442 13.88C49.4111 13.88 48.4554 13.8271 46.9753 14.4153C40.5241 16.9798 39.3593 25.0633 41.6988 25.0633C44.0882 25.0633 42.7475 23.3911 44.1778 20.5258C46.6833 15.5059 53.3668 15.0994 56.0913 20.7043C56.8612 22.2873 57.0769 24.3792 56.3567 26.0481C55.9353 27.023 55.2484 27.8194 56.3435 28.8076C57.2494 29.6271 57.9762 29.8783 58.756 31.3919C59.6686 33.1698 59.7085 34.7726 59.1045 36.8679C58.9054 37.5552 58.2881 38.5103 57.8866 39.0226C55.6764 41.8283 53.0017 41.4152 52.2285 41.7424C50.8082 42.3438 51.5383 44.3333 52.5305 44.3333C56.6488 44.3333 57.5514 42.595 58.62 42.3108C60.1432 45.1793 59.7914 48.1305 57.3656 50.4967C55.474 52.344 57.8468 52.5621 56.2439 56.5245C55.3977 58.6198 53.3269 60.4638 51.0504 60.7877C49.0394 61.0752 48.8569 60.0045 47.6523 62.1162C44.6092 67.46 37.2952 67.612 33.9136 62.4698C30.9767 58.0051 32.7057 50.7577 40.023 49.8027C41.3338 49.6308 41.9743 49.6176 41.9743 48.1073C41.9743 47.7108 41.2873 47.03 40.8924 47.03C38.5363 47.03 37.6569 47.2283 35.7056 48.1966L33.2831 49.8258C32.9579 50.1133 32.8616 50.2951 32.5032 50.533L32.4966 25.5953C32.5265 22.6012 34.3218 22.6111 35.4667 22.3534C37.2487 21.9535 36.585 19.6699 35.4799 19.6699C34.1061 19.6699 33.7079 19.7096 32.5032 20.3441C32.5032 17.6044 32.5032 14.8648 32.5032 12.1251C32.5032 7.98429 33.0475 5.48259 36.2299 3.57244C39.3991 1.67221 43.2984 3.32458 44.6822 5.92543C43.2652 5.95848 39.8405 7.62738 39.867 9.16078C39.877 9.77877 40.4876 10.5091 41.1646 10.5091L41.1579 10.5124ZM12.1972 48.5171C12.1972 49.2871 13.674 50.8965 14.935 48.95C16.4482 46.6136 18.436 45.0537 21.3397 44.5448C22.3419 44.3697 23.4304 44.525 23.9912 43.95C24.927 42.9916 24.0244 41.6399 23.2943 41.6399C21.2534 41.6399 19.0334 42.0001 17.3641 43.0114C16.0201 43.8277 14.925 44.406 13.8001 45.7973C13.3587 46.3459 12.1972 47.6876 12.1972 48.5138V48.5171ZM37.9091 42.7239C37.9091 43.4311 38.0385 44.1284 39.0075 44.3267C40.4975 44.6274 42.034 44.3796 44.1081 45.7147C47.5129 47.9057 47.2706 49.8688 48.598 49.8688C49.577 49.8688 50.0881 48.9633 50.0881 48.5204C50.0881 47.1622 47.4299 44.6274 46.3547 43.8805C44.0716 42.291 41.8747 41.6465 38.9909 41.6465C38.5927 41.6465 37.9091 42.3306 37.9091 42.7239V42.7239ZM10.8433 53.504C10.8433 56.4584 13.6739 53.808 16.8996 57.3078C19.415 60.0342 18.5522 62.3442 19.2822 63.1572C20.2081 64.1883 21.6683 63.2993 21.6683 62.5326C21.6683 58.3587 19.6705 55.1894 16.3487 53.4115C14.8587 52.615 13.674 52.4266 11.9251 52.4266C11.5269 52.4266 10.8433 53.1107 10.8433 53.504V53.504ZM40.6137 61.8584C40.6137 62.9953 40.8261 63.6099 42.2364 63.6099C43.5273 63.6099 43.388 61.1743 43.6369 60.4209C44.4001 58.1042 45.7873 56.3197 48.15 55.4835C49.8259 54.8887 51.4387 55.6587 51.4387 53.504C51.4387 53.1074 50.7518 52.4266 50.3569 52.4266C47.1678 52.4266 45.462 53.3454 43.3548 55.4241C41.9511 56.8088 40.6137 59.1419 40.6137 61.8584V61.8584ZM10.8433 23.4505C10.8433 27.3072 12.5523 30.1823 15.5854 31.9372C16.2956 32.347 17.686 32.9352 18.6949 33.0211C18.1672 35.2816 16.1164 35.5823 14.7624 35.8434C12.7879 36.2234 13.5611 38.5467 14.6363 38.5467C16.508 38.5467 17.5765 38.2955 19.0466 37.1455C19.9891 36.4085 20.8187 35.3741 21.2501 34.2174C22.1096 31.9041 21.0908 33.8969 24.4293 32.261C29.0088 30.0171 26.6162 28.0607 25.3551 28.4539C24.4757 28.7282 20.9979 32.5552 15.9073 28.791C12.8941 26.5603 14.3144 22.3765 12.4693 22.3765C11.7227 22.3765 10.8466 22.6905 10.8466 23.4539L10.8433 23.4505ZM35.2012 29.6503C35.2012 30.8929 36.8073 31.7224 37.7697 32.2148C38.1779 32.4263 39.127 32.7931 39.6546 32.8988C41.0119 33.1698 40.5772 32.8889 41.0053 34.115C41.7984 36.392 44.4001 38.5434 46.8425 38.5434H47.6556C48.754 38.5434 49.4277 36.2697 47.6423 35.8599C46.5903 35.6187 44.1745 35.4931 43.5937 33.0178C44.5992 32.9352 45.993 32.3436 46.7032 31.9339C51.7175 29.0356 52.494 22.3699 50.3602 22.3699C47.8447 22.3699 49.3414 24.4221 47.868 26.8974C47.4731 27.5584 46.9952 28.2788 46.4377 28.7084C45.7839 29.2107 45.243 29.6536 44.3238 29.9708C40.0827 31.4315 37.8228 28.7811 37.0363 28.4837C36.2133 28.173 35.2045 28.6655 35.2045 29.647L35.2012 29.6503ZM41.4201 69H39.94C38.9047 68.924 37.8693 68.6894 36.8604 68.2895C32.8517 66.6933 31.6139 63.686 31.1393 63.339C30.7975 63.5901 30.3694 64.5848 29.5497 65.3945C26.8452 68.0714 24.8706 68.9967 20.988 68.9967C17.6728 68.9967 13.8664 66.5016 12.3266 63.6066C8.17184 63.6066 4.82678 61.0058 3.4695 57.6019C2.37107 54.849 2.8423 54.8094 2.72615 52.6811C2.68301 51.9078 2.50713 52.0598 2.07904 51.574C-0.200779 48.9831 -0.705194 44.3399 1.06358 41.3425C2.12882 39.5348 1.57131 40.8369 0.602302 37.9518C-0.00830547 36.1375 0.0116057 35.8467 0.0116057 34.0952C0.0116057 31.643 1.44521 28.6555 3.39318 27.3568C3.15424 26.3389 2.7162 25.559 2.7162 24.2569C2.7162 21.8742 3.05469 20.0004 4.53143 17.9779C5.97498 16.0016 6.59223 15.8496 8.1287 14.8218C8.1287 13.4834 8.06233 12.5316 8.45392 11.5072C9.25368 9.40864 10.5745 7.47866 12.6883 6.55994C15.0213 5.54538 13.9295 6.69213 14.8056 5.02984C16.8 1.22606 21.4526 -1.1104 26.2146 0.588247C27.1538 0.922027 27.4458 1.14675 28.1593 1.61603C28.979 2.1547 30.7345 3.72116 30.9999 4.71589H31.2721C31.5309 3.7509 33.3495 2.12165 34.1957 1.56315C36.2565 0.20159 37.5839 0 39.9334 0C42.5218 0 45.2629 2.0126 46.816 4.06155C48.1932 5.87586 47.42 5.81307 48.3923 6.13032C50.1976 6.71526 51.5748 7.67034 52.6566 9.16078C54.0537 11.0875 54.14 12.6043 54.14 14.8251C54.9895 15.3902 55.1189 15.2647 56.1377 16.2032C56.7616 16.7782 57.2229 17.274 57.7372 17.9779C58.6034 19.161 59.5525 21.4181 59.5525 22.9086C59.5525 26.1439 59.4828 24.7658 58.8755 27.3568C59.6985 27.9054 59.5591 27.9021 60.193 28.6027C62.4728 31.1275 62.7217 34.7826 61.6332 38.0543C60.6575 40.979 60.1 39.3563 61.2549 41.4284C62.9672 44.4985 62.4529 49.1021 60.1233 51.6467C59.6388 52.1755 59.4728 52.0565 59.5093 52.7274C59.7118 56.4221 58.6432 59.4658 55.5503 61.7824C54.0869 62.8796 52.4509 63.6099 49.942 63.6099C49.1257 65.1467 47.9742 66.2637 46.5339 67.222C44.9709 68.263 43.2121 68.8711 41.4135 69H41.4201ZM29.7887 20.3507C28.5841 19.7162 28.1858 19.6765 26.812 19.6765C26.1184 19.6765 25.2158 20.9356 26.052 21.9171C26.2478 22.1452 26.4834 22.2708 26.7157 22.3335C27.5055 22.5517 29.7157 22.3765 29.7953 25.4664C29.865 28.2094 29.792 31.068 29.792 33.8275C29.792 39.396 29.792 44.9678 29.792 50.5396C29.0686 50.0571 28.6438 49.221 26.5896 48.2032C24.635 47.2349 23.7556 47.0366 21.4028 47.0366C20.54 47.0366 19.6937 48.7319 20.9282 49.5317C21.3895 49.8291 21.5123 49.7068 22.1561 49.7895C23.2811 49.9349 23.8021 49.9844 24.6914 50.3612C26.2445 51.0221 27.2533 51.8186 28.1892 53.0744C32.9745 59.512 26.0255 69.4065 17.8321 65.2722C17.321 65.0145 16.4084 64.3469 16.0168 63.9801C14.4571 62.5227 14.5368 60.7745 13.0102 60.7745C12.1109 60.7745 11.3543 61.0421 9.85433 60.4142C7.32894 59.3567 5.30796 56.4353 5.54026 53.4809C5.66304 51.9078 5.95839 51.5178 4.99602 50.5661C4.35555 49.9349 3.74494 49.3202 3.35999 48.4213C2.42749 46.2501 2.67638 44.1879 3.67525 42.3141C4.19294 42.4529 4.37546 42.7437 4.76373 42.9817C6.39312 43.9896 7.72384 44.3333 9.76473 44.3333C10.6873 44.3333 11.487 42.4926 10.1563 41.7886C9.83442 41.6168 9.15413 41.5771 8.79241 41.5276C4.11661 40.9162 1.44189 35.6418 3.48941 31.4811C5.1354 28.1334 7.54796 29.5677 5.97498 26.1406C5.22168 24.5048 5.41747 22.3567 6.15419 20.7935C8.55679 15.6811 14.3509 15.496 17.1518 19.0552C17.5931 19.617 17.6993 19.6963 18.0212 20.3441C19.4084 23.1333 18.5555 23.7942 19.2856 24.6072C20.2114 25.6416 21.6716 24.7493 21.6716 23.9826C21.6716 19.6303 19.3486 16.0281 15.4095 14.4517C13.8332 13.8205 12.9572 13.8767 10.8466 13.8767C11.1419 12.6176 10.9561 11.983 11.9682 10.681C12.6319 9.82504 13.4018 9.18392 14.5699 8.827C19.2822 7.37952 20.238 11.9004 22.0433 10.0696C23.7822 8.30485 19.3022 5.96178 17.6097 5.92543C18.582 4.0979 20.5532 3.03046 22.6738 2.73634C23.6859 2.59754 25.239 3.09325 25.8927 3.46999C27.8142 4.57709 28.8595 6.01796 29.5066 8.09335C29.9977 9.66311 29.7887 18.3216 29.7887 20.3441V20.3507Z" fill="white"/>
</svg>
