<svg width="83" height="73" viewBox="0 0 83 73" fill="none" xmlns="http://www.w3.org/2000/svg">
<path fill-rule="evenodd" clip-rule="evenodd" d="M72.2459 54.1513C72.2459 55.1371 74.281 60.8777 74.7154 62.4104C74.9996 63.4141 75.3848 64.2408 75.6082 65.1998C74.971 65.0514 71.0296 62.9905 70.1108 62.5311C63.6088 59.2805 65.844 59.4584 61.4986 61.018C58.1927 62.2049 56.4776 62.6178 52.8695 62.7974C52.1322 62.8341 51.8659 62.9833 50.9453 62.9681C50.0712 62.9538 49.9193 62.8198 49.0264 62.7974C40.5519 62.5874 31.2275 56.6788 27.3531 49.082C23.2258 40.9891 24.3438 32.2948 29.7403 25.0956C36.8813 15.5692 51.57 12.3267 62.3164 17.161C67.3384 19.4204 71.4818 22.5395 74.3588 27.3765C78.9061 35.0207 78.8007 43.48 73.8797 51.3012C73.4498 51.984 72.245 53.2442 72.245 54.1504L72.2459 54.1513ZM82.4945 37.0629V40.5083C82.2157 44.7643 80.8938 49.0999 78.4003 53.2603C78.2099 53.5775 77.5307 54.566 77.5307 54.7921C77.5307 55.6877 82.1746 68.849 82.1746 70.0046C82.1746 71.5588 81.1968 72.567 80.093 72.567C78.1661 72.567 73.9378 69.9277 71.9287 68.882C71.1413 68.4718 64.7331 65.2007 64.4006 65.2007L58.9256 66.9319C55.49 67.7872 53.4299 67.7631 49.989 67.7631C44.3718 67.7631 37.7491 65.5511 33.3671 62.6071C32.1713 61.8036 31.3526 61.1806 30.2426 60.2869C28.8448 59.1617 28.2218 58.0507 27.2137 57.8711C25.1312 57.5011 24.9328 57.6057 22.6743 56.9657L18.6033 55.592C18.2708 55.592 11.8627 58.8632 11.0753 59.2734C10.43 59.6094 9.94292 59.924 9.20916 60.2896C8.13488 60.8249 4.14162 62.9583 3.55086 62.9583C1.99574 62.9583 0.828506 62.1781 0.828506 60.8768C0.828506 59.2823 2.63477 54.2461 3.17012 52.6498C3.60537 51.3512 3.94678 50.1616 4.37221 48.8881C5.91749 44.2593 5.6887 45.5365 4.4598 43.4746C1.42106 38.3758 0.508545 34.3835 0.508545 28.2104C0.508545 19.3265 6.41799 10.3095 13.9281 5.60038C20.061 1.75459 25.6121 0.507812 32.855 0.507812C38.7385 0.507812 44.917 2.70821 49.5403 5.60038L52.6702 7.91518C53.2297 8.41389 53.5729 8.64805 54.1127 9.19502C55.8055 10.9074 55.212 10.1817 58.0121 10.7403C60.0767 11.1523 62.3593 11.8414 64.2451 12.6735C75.1238 17.4756 81.8153 26.8304 82.4954 37.0638L82.4945 37.0629ZM20.044 37.6581C20.044 43.8447 20.667 46.8923 23.4072 52.0698C22.6037 51.883 21.7645 51.5523 21.0263 51.2484C17.8186 49.9266 18.6954 49.8578 14.3875 52.1779L10.2236 54.2586C9.48801 54.6259 8.09823 55.4294 7.39486 55.5929L9.93667 47.5662C11.4712 42.9786 10.8054 44.8322 7.98383 39.7915C7.62008 39.1427 7.40469 38.6529 7.11958 37.9334C6.64143 36.726 6.13736 35.4729 5.86029 34.0689C4.46694 27.0261 5.99882 21.1033 10.2066 15.4897C11.9154 13.2106 14.4885 10.9557 16.8927 9.52571C26.008 4.10156 36.7428 3.8817 45.9788 9.16374C46.4363 9.42561 47.2979 9.88142 47.5884 10.2765C44.7767 10.339 39.4222 12.0255 36.9653 13.2642C32.35 15.5916 28.5936 18.4641 25.5593 22.5145C22.5465 26.5364 20.0467 32.4485 20.0467 37.6581H20.044Z" fill="white"/>
<path fill-rule="evenodd" clip-rule="evenodd" d="M39.0987 38.619C39.0987 42.6418 43.9026 41.6864 43.9026 39.2598C43.9026 35.2371 39.0987 36.1925 39.0987 38.619Z" fill="white"/>
<path fill-rule="evenodd" clip-rule="evenodd" d="M48.7062 38.619C48.7062 42.6418 53.5101 41.6864 53.5101 39.2598C53.5101 35.2371 48.7062 36.1925 48.7062 38.619Z" fill="white"/>
<path fill-rule="evenodd" clip-rule="evenodd" d="M58.3143 38.619C58.3143 42.6418 63.1182 41.6864 63.1182 39.2598C63.1182 35.2371 58.3143 36.1925 58.3143 38.619Z" fill="white"/>
</svg>
