<svg width="67" height="50" viewBox="0 0 67 50" fill="none" xmlns="http://www.w3.org/2000/svg">
<path fill-rule="evenodd" clip-rule="evenodd" d="M17.5701 30.2499C17.5701 28.1639 17.5336 27.591 18.0635 25.5265C18.3792 24.2974 19.1042 22.4939 19.7613 21.486C22.3327 17.5428 24.9893 15.3797 29.8796 14.129C31.228 13.7839 32.7981 13.6487 34.1521 13.797C36.4046 14.0439 37.0472 13.9424 39.6865 15.0453C41.3258 15.73 43.1161 16.9937 44.2723 18.1536C45.2835 19.1686 45.1591 18.9623 46.0561 20.1517C50.113 25.527 50.1995 33.4808 46.1876 38.7836L44.8663 40.3313C44.0848 41.2756 43.2822 41.8682 42.2948 42.5851C37.2146 46.2749 29.7089 46.1916 24.5576 42.6941C22.8706 41.5487 22.7359 41.1993 21.5156 39.9978C20.6785 39.1732 19.6411 37.5531 19.1318 36.5129C18.4152 35.0486 17.5696 32.4177 17.5696 30.2499H17.5701ZM49.7828 18.1214C51.4562 18.5114 54.4645 21.2887 55.7821 22.2947C56.1211 22.5538 56.2806 22.7259 56.5973 23.0444C58.976 25.4372 59.9965 26.6079 61.9118 29.4674C61.6962 30.2752 59.0761 33.5514 58.0972 34.5214L55.8817 36.7398C54.7451 37.7912 50.7079 40.8284 49.6528 41.0745C51.9918 37.5812 53.3065 34.0608 53.3046 29.7284C53.3023 25.2132 52.4136 22.8349 50.5218 19.3393C50.2575 18.851 50.0311 18.5895 49.7837 18.1214H49.7828ZM16.9181 18.1214C16.6828 18.5657 16.4752 18.8033 16.225 19.2537C13.9304 23.3882 12.6821 28.1555 13.6895 33.0875C14.3771 36.4531 15.1216 38.1971 17.0486 41.0745C15.717 40.7644 11.3417 37.2594 10.1691 36.0859C8.95542 34.8713 5.20116 31.0085 4.78958 29.4674C4.98133 29.1807 5.16327 28.9754 5.39011 28.6335C6.98358 26.2332 8.11823 25.0415 10.1036 23.0444L12.4104 21.0478C13.4328 20.2794 15.8471 18.3711 16.9176 18.1214H16.9181ZM33.3505 49.5516C41.7219 49.5516 49.7884 46.4998 54.834 42.8658L60.3164 38.3061L64.11 33.753C64.4921 33.2474 66.6702 29.9768 66.6992 29.5797C66.7596 28.7486 62.4684 23.0346 61.2266 21.8055C58.3025 18.9113 58.759 19.1803 54.9622 16.3324C53.893 15.5303 50.8314 13.746 49.6897 13.2586C44.8649 11.2003 40.3207 9.7097 34.9098 9.64983C34.1783 9.64188 34.0674 9.50391 33.35 9.50391L30.2556 9.68023C29.3029 9.80791 28.2656 9.90379 27.2577 10.0731C22.7312 10.8327 21.1232 11.5623 17.1033 13.2212C14.16 14.4359 9.61582 17.6546 7.29975 19.9805C6.98498 20.2967 6.74552 20.494 6.43169 20.8079C4.74468 22.4949 3.98185 23.4958 2.60867 25.3315C2.20831 25.867 0.0306769 29.0736 0.00074377 29.4866C-0.0731536 30.509 5.38029 37.6008 7.08133 38.9132C7.95641 39.5886 9.03166 40.8687 10.7355 42.0407L12.7452 43.4214C17.7212 46.7253 25.0665 49.5521 33.3495 49.5521L33.3505 49.5516Z" fill="white"/>
<path fill-rule="evenodd" clip-rule="evenodd" d="M0.877258 12.774C1.23131 13.3025 1.74485 13.8385 2.21396 14.3062C2.82665 14.9166 3.13394 15.1836 3.61614 15.9039L7.88301 12.4766C11.3585 9.87845 15.6614 7.72888 19.8675 6.33325C21.1822 5.89688 22.6068 5.50448 23.9716 5.22058C31.7687 3.59998 39.2384 3.85441 46.7362 6.30098C51.5798 7.88135 56.2966 10.4028 60.2337 13.5396C60.7313 13.9358 61.1799 14.3694 61.6513 14.7304C62.2383 15.1799 62.3898 15.5358 63.0858 15.9044C63.5549 15.2042 63.8275 14.9661 64.4225 14.3722C64.9182 13.8773 65.4486 13.3357 65.8246 12.7745L59.5144 7.86919L56.001 5.77481C54.6877 5.06951 53.5109 4.50593 52.1349 3.90259C47.6319 1.9284 43.6391 0.976626 38.737 0.346627C32.626 -0.439117 26.934 0.161883 21.0386 1.63562C19.3231 2.06451 16.2755 3.1407 14.6573 3.8619C12.8678 4.65933 10.7009 5.71307 9.03684 6.71864C6.32742 8.35561 5.63241 8.95193 3.2242 10.8176C2.91037 11.0608 2.76538 11.2456 2.46184 11.4897C1.87628 11.9611 1.50819 12.441 0.877726 12.775L0.877258 12.774Z" fill="white"/>
<path fill-rule="evenodd" clip-rule="evenodd" d="M25.1343 29.467C25.1343 34.5126 29.6051 38.0129 33.4613 37.7954C38.1033 37.5335 41.5666 34.1553 41.5666 29.206C40.9165 29.3576 40.2734 29.7275 39.2192 29.7275C36.8816 29.7275 34.849 28.4446 33.9126 26.6874C32.5614 24.1515 33.516 22.5253 33.6114 21.3809C31.9319 21.3809 31.4062 21.4786 30.163 21.9753C27.3601 23.095 25.1347 26.0579 25.1347 29.4665L25.1343 29.467Z" fill="white"/>
</svg>
