<svg width="52" height="60" viewBox="0 0 52 60" fill="none" xmlns="http://www.w3.org/2000/svg">
<path fill-rule="evenodd" clip-rule="evenodd" d="M1.84466 38.1638C1.84466 42.4923 2.23885 45.4736 3.88068 49.1591C4.45857 50.4526 6.85433 55.5771 8.64924 55.5771C9.8433 55.5771 10.6087 54.7772 10.6087 53.5028C10.6087 52.9479 10.0461 52.2896 9.76675 51.9222C9.40318 51.44 9.09701 51.0037 8.78319 50.4832C7.4284 48.2214 6.59026 46.2122 6.02002 43.56C4.69202 37.3525 6.20373 31.1258 9.96194 26.1085C11.7415 23.7318 14.1105 21.7073 16.7933 20.3716C21.3896 18.083 26.1812 17.5626 31.2215 18.9327C34.5204 19.8282 38.646 22.4842 40.6514 25.0713C40.8925 25.3851 40.9959 25.4693 41.2293 25.7602L42.7831 28.0105C43.4452 29.1204 43.9963 30.1881 44.5091 31.474C45.6152 34.2678 47.3986 40.9882 44.7656 43.958C42.2818 46.7595 37.6893 46.0323 36.2503 42.3851C35.4083 40.2496 36.4301 38.9675 35.2131 35.4657C32.7064 28.2516 23.0889 26.6481 18.6609 32.1514C17.9108 33.0814 17.1071 34.2104 16.6708 35.4657C16.4144 36.2043 16.2384 36.6904 16.07 37.517C15.6413 39.6526 15.7562 41.5738 16.3532 43.5945C17 45.7721 17.8725 47.6397 19.0857 49.5073C19.9392 50.8162 20.5094 51.4668 21.4662 52.546C22.7636 54.008 22.7865 54.0118 24.1796 55.2518C25.9056 56.7903 29.1701 59.0292 31.7037 59.0292C33.2957 59.0292 34.153 57.1577 33.0087 55.8795C32.14 54.915 31.7266 55.9751 28.8908 54.1152C27.2719 53.0551 25.9477 51.884 24.6389 50.5253L22.1091 47.2876C19.7708 43.5485 18.2782 38.8795 21.2251 34.9414C23.1731 32.3351 26.4835 31.9218 29.2046 33.6172C29.9509 34.0841 30.701 34.884 31.122 35.6188C33.3493 39.511 30.3374 42.7219 35.1902 47.234C38.4853 50.2995 43.8815 50.135 47.1269 46.8896C49.5954 44.4211 49.8058 42.2129 49.8058 38.9598C49.8058 33.621 47.7048 28.42 44.8957 24.3824L42.8597 21.9216C41.7804 20.85 40.9499 20.0157 39.71 19.0743C38.5657 18.2055 37.341 17.4477 36.0092 16.7818C29.8667 13.7048 21.9867 13.5441 15.8289 16.6249C15.1323 16.9732 14.5812 17.287 13.9459 17.6238L11.267 19.4417C10.4135 20.1918 8.92096 21.3858 8.22826 22.2852C6.55965 24.4437 5.40003 25.5306 4.1103 28.5463C3.51328 29.9394 2.97748 31.298 2.57946 32.8977C2.20824 34.3903 1.83701 36.3804 1.83701 38.1523L1.84466 38.1638ZM38.5159 55.4623C40.7816 55.4623 41.2982 51.7615 38.1715 51.6582C35.7834 51.5778 33.3799 49.8747 31.7994 48.2291C31.0071 47.4063 29.8207 45.6879 29.3309 44.7005C28.8257 43.6787 28.4889 42.9974 28.1521 41.8417C27.8919 40.9538 27.5857 39.5913 27.5589 38.5121C27.5436 37.7352 27.5934 37.3601 27.2375 36.8703C26.4376 35.7757 24.8493 35.8484 24.1605 36.8396C23.4027 37.9304 24.1184 41.302 24.4437 42.5458C25.5688 46.8437 28.4162 50.5942 31.8721 53.1048C32.6375 53.6597 33.8928 54.3371 34.7883 54.6854C35.8331 55.0949 37.1114 55.4585 38.5121 55.4585L38.5159 55.4623ZM3.11526 9.79737C3.11526 11.0259 3.785 11.8717 4.95992 11.8717C6.03533 11.8717 6.55199 11.0412 7.19877 10.536C11.1981 7.40543 13.1882 6.36829 17.8879 4.85276C18.3624 4.69968 18.8331 4.59252 19.3498 4.47005C21.0376 4.0682 24.061 3.68167 25.8329 3.68167L29.174 3.91895C30.1422 3.99932 31.4626 4.26721 32.316 4.47005C33.3111 4.70733 34.1645 4.94461 35.1021 5.25843C35.6303 5.43448 35.9824 5.57991 36.4416 5.76361C36.8703 5.93583 37.3104 6.08891 37.7505 6.2994C39.4689 7.12606 40.8657 7.90296 42.3698 8.94393L45.397 11.3359C47.6512 13.2035 49.6451 9.95045 47.877 8.51146L45.7147 6.75483C43.7935 5.31584 41.8264 4.0529 39.6296 3.03489C35.5614 1.14813 31.2483 0.149257 26.9428 0H24.6695C17.5396 0.248761 10.5666 2.8244 4.92165 7.57383C4.21363 8.17085 3.11143 8.87887 3.11143 9.8012L3.11526 9.79737ZM0 21.7915C0 24.26 2.46848 24.4973 3.44056 23.0391C3.6434 22.733 3.7429 22.6028 3.97253 22.3005C5.96262 19.6521 7.56617 17.9835 10.249 16.0049C19.4149 9.24244 32.1591 9.30368 41.3518 15.9552L43.3955 17.6008C44.1992 18.282 45.3014 19.2962 45.9481 20.1229C46.1778 20.4214 46.3117 20.5018 46.5413 20.7964C47.0006 21.382 48.3554 23.3338 48.7955 23.617C49.7331 24.2217 51.6658 24.0724 51.6658 21.7877C51.6658 21.2978 51.0841 20.5477 50.8277 20.2032C49.492 18.4198 48.895 17.6888 47.3144 16.1083C40.5022 9.29602 30.8579 6.04299 21.2557 7.52025C19.8282 7.73839 18.5002 8.09048 17.1377 8.47702C12.4419 9.80502 7.76135 12.706 4.41647 16.0508C3.51328 16.954 0.0076542 20.6587 0.0076542 21.7877L0 21.7915ZM8.76405 39.09C8.76405 41.1413 9.37639 43.6672 10.0806 45.5004C11.8372 50.0814 14.1182 53.0972 17.0497 56.752C17.6582 57.5098 18.8944 59.0406 19.7172 59.0406C21.0146 59.0406 21.9063 58.3862 21.9063 57.196C21.9063 56.2239 21.072 55.6881 20.6395 55.1217L19.1049 53.3115C18.0792 52.0409 17.1148 50.7779 16.2345 49.3772C12.9318 44.1111 11.244 39.2392 13.8005 33.2919C14.3363 32.0443 15.5457 30.2838 16.5139 29.3156C17.5855 28.244 18.9097 27.2949 20.3678 26.5945C27.823 23.0162 36.5067 27.4862 38.6269 35.5116C38.8795 36.4722 39.0823 37.6548 39.0823 38.8603C39.0823 41.9182 43.2462 41.6733 42.8788 38.5312C42.6989 37.0004 42.565 35.7795 42.2244 34.4515C41.4972 31.5927 39.599 28.3856 37.5017 26.3725C34.8993 23.8734 30.6091 21.6767 26.8624 21.6767C23.3644 21.6767 21.4815 21.8145 18.2514 23.4448C15.649 24.7537 13.2226 26.9849 11.665 29.4266C9.89687 32.1897 8.76023 35.7183 8.76023 39.09H8.76405Z" fill="white"/>
</svg>
