<svg width="64" height="64" viewBox="0 0 64 64" fill="none" xmlns="http://www.w3.org/2000/svg">
<path fill-rule="evenodd" clip-rule="evenodd" d="M53.0107 55.5459L55.4876 53.0086L58.0917 55.5459L55.5486 58.1495L53.0107 55.5454V55.5459ZM63.4494 55.5247V55.5788L55.5183 63.4489H55.4574L48.4545 56.509V63.4489C38.1843 63.4489 27.3995 63.3307 17.1819 63.4489H16.0259C15.8642 63.4123 15.764 63.3105 15.5154 63.0524C15.2054 62.7301 14.9743 62.4985 14.6541 62.1789L0.650363 48.1757C0.233749 47.7675 0.0630752 47.5926 0 47.3122V45.3564V0H48.4545C48.4545 13.1467 48.5727 26.6882 48.4481 39.7861C48.4375 40.8807 48.5684 40.7068 49.1668 41.2978C50.6366 42.7501 62.5324 54.7996 63.4494 55.5252V55.5247ZM6.413 48.6082L14.8709 48.5774V57.0041L6.413 48.6082V48.6082ZM32.6851 35.2246L35.1641 32.6851L52.8225 50.282L50.3435 52.8215L32.6851 35.2246ZM27.7589 27.7584C28.5837 27.9508 29.5891 28.3488 30.3773 28.6102C31.474 28.9738 31.8715 29.0983 32.4683 29.9893L30.0201 32.498C28.4257 31.413 28.4893 29.393 27.7594 27.7589L27.7589 27.7584ZM44.7367 52.9153V59.7311H18.5886V44.8602H3.71773V3.7172H44.7367V36.8052C44.195 36.4421 35.0046 27.1525 34.0495 26.1773C33.4314 25.546 33.4749 25.6318 32.5457 25.3265C31.4883 24.9794 22.4415 21.8627 21.8108 21.8102C21.8627 22.4325 24.8707 31.1777 25.141 31.9876C25.6038 33.3763 25.4622 33.4738 26.2403 34.2345L43.0952 51.0872C43.418 51.41 44.7373 52.5088 44.7373 52.9153H44.7367Z" fill="white"/>
<path fill-rule="evenodd" clip-rule="evenodd" d="M7.43555 18.5869H41.0191V14.8691H7.43555V18.5869Z" fill="white"/>
<path fill-rule="evenodd" clip-rule="evenodd" d="M14.8708 11.1513H41.019V7.43359H14.8708V11.1513Z" fill="white"/>
<path fill-rule="evenodd" clip-rule="evenodd" d="M7.43555 11.1513H11.1533V7.43359H7.43555V11.1513Z" fill="white"/>
</svg>
