<svg width="69" height="50" viewBox="0 0 69 50" fill="none" xmlns="http://www.w3.org/2000/svg">
<path fill-rule="evenodd" clip-rule="evenodd" d="M18.5658 35.0864C14.3396 32.8468 9.9542 33.2195 6.0092 35.8529C5.23525 36.3695 4.34463 37.0277 3.76502 37.7213C3.40621 38.1506 3.14242 38.364 2.83158 38.7735C2.52515 39.1773 2.2455 39.5589 1.95456 40.0243C0.260714 42.7345 0 44.8164 0 48.0019C0 49.6623 2.74458 51.0295 4.19834 48.9421C5.05853 47.7068 3.73395 46.2366 5.95714 42.3296C6.54681 41.2934 7.69044 40.2484 8.72746 39.5686C11.0056 38.0752 13.7765 37.7241 16.2982 39.0603C16.2494 39.6476 15.9099 40.4151 15.7478 40.9218C15.1833 42.6864 14.7392 45.6533 14.7392 47.5761C14.7392 48.5969 15.6942 49.847 16.7234 49.847C20.1693 49.847 19.0703 47.3145 19.8511 43.47C21.7712 34.0169 31.8382 27.475 40.9517 32.9637C45.8261 35.8995 48.5052 41.5205 48.6048 47.2985C48.6542 50.1572 51.5278 50.3898 52.6218 49.1797C53.8476 47.824 53.1014 44.5701 52.8044 43.0929L51.7291 39.0603C56.3985 36.5859 62.5004 39.8489 63.4355 46.3553C63.592 47.4439 63.2854 48.0845 63.7716 48.8573C65.1464 51.0424 68.0272 49.7212 68.0272 48.0019C68.0272 44.8163 67.7665 42.7344 66.0725 40.0243C65.2828 38.7607 65.0774 38.6967 64.2622 37.7212C62.436 35.5358 58.8946 33.9142 55.9847 33.6622C53.2848 33.4283 51.3602 34.0802 49.4615 35.0863C48.7858 33.8075 47.9507 32.9961 47.055 31.9609C47.0358 31.9387 47.0097 31.9058 46.99 31.8842C44.1905 28.783 38.5661 26.3281 34.0136 26.3281C29.8892 26.3281 24.8381 28.3167 22.0722 30.9336C21.9132 31.0841 21.8634 31.1351 21.707 31.2775L19.8189 33.2189C19.364 33.7824 18.9044 34.4455 18.5658 35.0863V35.0864Z" fill="white"/>
<path fill-rule="evenodd" clip-rule="evenodd" d="M33.7301 17.9119C26.3529 17.9119 24.7529 7.90906 30.9744 5.21706C33.6764 4.04802 36.3527 4.56992 38.3721 6.59237C41.0951 9.31926 40.8985 13.4445 38.4143 15.9323C37.4206 16.9275 35.6878 17.9119 33.7301 17.9119V17.9119ZM22.5341 10.5316C22.5341 13.1876 22.5089 13.6171 23.5438 16.0491C24.9165 19.275 28.9959 22.4537 32.8798 22.4537C35.7978 22.4537 37.8148 22.1852 40.293 20.3685C45.2442 16.7388 46.4179 10.1256 42.9428 4.85375C41.9409 3.3338 40.2579 1.94744 38.5977 1.11529C33.8472 -1.26552 27.7498 0.293971 24.6587 4.56938C23.527 6.13444 22.5341 8.35993 22.5341 10.5316L22.5341 10.5316Z" fill="white"/>
<path fill-rule="evenodd" clip-rule="evenodd" d="M55.2722 24.4398C49.0236 24.4398 49.92 16.3499 54.847 16.3499C58.3188 16.3499 60.258 20.5987 57.862 23.2015C57.4091 23.6935 56.1662 24.4398 55.2722 24.4398H55.2722ZM46.2018 20.4658C46.2018 27.0061 54.0916 32.3742 60.758 26.8112C62.1152 25.6787 63.4922 23.0502 63.4922 21.1754C63.4922 18.322 63.0698 16.4231 60.9768 14.3271C55.5529 8.89529 46.2018 12.721 46.2018 20.4658V20.4658Z" fill="white"/>
<path fill-rule="evenodd" clip-rule="evenodd" d="M8.50347 20.4663C8.50347 17.0446 12.5952 14.9644 15.3279 17.464C16.9403 18.9387 16.9762 21.6669 15.4889 23.2038C12.9797 25.7965 8.50347 24.1131 8.50347 20.4663ZM12.4717 29.124C16.055 29.124 18.8888 27.0604 20.3154 24.2054C22.1004 20.6335 20.9232 15.9933 18.4265 14.077C16.0282 12.2364 15.259 11.8086 11.7632 11.8086C9.27928 11.8086 6.64987 13.6555 5.24137 15.7801C1.60577 21.2637 5.73136 29.124 12.4717 29.124H12.4717Z" fill="white"/>
</svg>
