<svg width="56" height="56" viewBox="0 0 56 56" fill="none" xmlns="http://www.w3.org/2000/svg">
<path fill-rule="evenodd" clip-rule="evenodd" d="M4.61971 21.7C4.61971 17.1106 6.54088 12.7406 9.64073 9.64022C10.0284 9.25255 10.3226 9.05594 10.7148 8.67332C13.1611 6.28411 17.9618 4.6192 21.7005 4.6192C22.9641 4.6192 24.302 4.76982 25.3968 5.00535C30.3561 6.07284 34.9733 9.55126 37.0992 14.1437C37.8356 15.7348 38.3986 16.9635 38.6574 18.8165C39.1654 22.4591 38.9132 25.7996 37.2791 29.1143C36.4674 30.7605 35.2159 32.6053 33.9109 33.9104L32.8995 34.8328C30.4431 37.0173 26.0882 38.8889 22.6679 38.8889C20.1725 38.8889 19.6742 38.9112 17.2314 38.3097C16.5703 38.1469 16.2797 37.9928 15.6984 37.8017C15.1075 37.6076 14.7785 37.4009 14.218 37.134L12.8861 36.4244C10.8523 35.2134 8.83557 33.3331 7.54013 31.3498C6.28664 29.4307 5.53657 27.7005 5.02608 25.4842C4.79155 24.4657 4.62021 22.9853 4.62021 21.7005L4.61971 21.7ZM20.5971 0H23.2598C24.1973 0.061158 25.1274 0.188528 26.0402 0.38666C27.2977 0.659597 29.3139 1.24287 30.439 1.78925C31.8279 2.46351 31.5409 2.24465 32.9864 3.10946C35.2493 4.46352 36.944 5.99702 38.6423 7.98137L39.8776 9.64629C41.2144 11.7701 41.59 12.5258 42.3936 14.7573C43.7962 18.6517 43.9989 24.0088 42.662 27.9452C41.8053 30.4683 41.1068 32.1499 39.5323 34.3764C39.2655 34.7539 39.0077 35.0218 38.7808 35.4509C39.1366 35.9827 51.8903 48.6141 53.3637 50.0879C53.9525 50.6767 55.0018 51.4627 55.0018 52.5317C55.0018 53.996 54.0723 55.0023 52.8532 55.0023C51.3849 55.0023 50.9992 54.2765 50.0333 53.3101C48.5509 51.8276 35.9695 39.1285 35.4499 38.7808C35.0238 39.0062 34.7191 39.2736 34.3152 39.5799C31.8012 41.4833 27.8683 42.9501 24.676 43.3686C20.0745 43.9721 15.9542 43.2099 11.9597 41.216C11.4618 40.9673 11.1702 40.8106 10.7077 40.5346C7.68114 38.7287 5.97226 36.9627 3.7736 34.0402C3.09177 33.134 2.50495 31.9836 2.03944 30.9404C0.380089 27.2214 0 25.2092 0 20.9484C0 16.8948 1.84283 12.0749 4.02076 9.17724C4.38872 8.68798 4.74303 8.14261 5.1302 7.70844C5.76402 6.99729 6.38621 6.28411 7.10596 5.70943C7.36828 5.49967 7.50525 5.30104 7.76555 5.08016C11.2086 2.16277 15.8849 0.300736 20.5966 0L20.5971 0Z" fill="white"/>
</svg>
