<svg width="78" height="78" viewBox="0 0 78 78" fill="none" xmlns="http://www.w3.org/2000/svg">
<path fill-rule="evenodd" clip-rule="evenodd" d="M36.4242 38.3888C36.4242 40.1901 37.1922 40.958 38.9935 40.958C40.506 40.958 43.7222 36.4003 45.4924 35.215C49.4862 42.7631 39.4986 50.3102 33.2854 44.0968C31.1525 41.9638 30.2903 38.4782 31.6855 35.6151C33.6932 31.4957 38.2468 29.8155 42.1673 31.8898C40.9977 33.6365 36.4242 36.8775 36.4242 38.3887V38.3888ZM45.607 28.5284C41.8263 26.0087 37.6496 25.8319 33.4632 27.5687C29.7663 29.1024 26.4491 33.7461 26.4491 38.0865C26.4491 40.8423 26.5311 41.4282 27.5677 43.9201C28.1103 45.224 29.0834 46.3886 30.0385 47.3437C35.4922 52.7976 44.159 51.9572 48.6905 45.8187C51.7196 41.7155 51.6452 35.9619 48.8174 31.7389L55.2798 25.3545C56.5462 27.2082 57.7476 28.7522 58.5498 31.0746C59.9978 35.2674 60.4799 38.9743 59.4287 43.4082C59.0824 44.8697 58.6688 46.1071 58.0878 47.357C57.9274 47.7023 57.8791 47.9091 57.7257 48.204C57.5715 48.5009 57.4309 48.6731 57.2303 49.0689C54.6803 54.0966 49.1326 58.041 43.5297 59.3991C37.5922 60.838 31.5653 59.543 26.6285 56.1947C24.7734 54.9365 22.5282 52.6952 21.2485 50.8439C20.4741 49.7234 19.9078 48.7296 19.3422 47.4603C17.4372 43.183 16.8468 38.6422 17.9535 33.9741C18.6266 31.1342 19.607 28.9588 21.1875 26.6285C23.2763 23.5488 26.4864 20.8838 29.9226 19.3429C30.5793 19.0483 31.0278 18.851 31.7579 18.6088C38.2762 16.4477 43.3755 17.2294 49.272 20.2512C50.2316 20.743 51.1106 21.4763 51.9912 22.066L45.607 28.5284V28.5284ZM62.4198 8.76582C62.4198 10.1416 62.4438 13.1158 63.355 14.0272C64.2934 14.9654 67.2566 14.9625 68.6164 14.9625C68.4452 15.6031 65.0261 18.7788 64.4979 19.3077C63.2122 20.5951 63.8284 20.4191 61.5228 20.2423C61.1343 20.2127 57.7384 19.9866 57.567 19.8152C57.4029 19.6509 57.0013 14.1959 57.0235 14.0843C57.1089 13.6522 59.6971 11.2617 60.1148 10.844C60.5044 10.4546 60.7841 10.1759 61.1728 9.78595C61.5719 9.38584 61.8356 8.92189 62.4198 8.76582H62.4198ZM52.5958 16.7762C50.6285 16.2508 47.9763 12.8467 37.7843 12.8467C31.7096 12.8467 26.5783 15.3272 22.1291 18.804C21.7795 19.0773 21.6497 19.2325 21.35 19.5362C20.9713 19.9202 20.7956 19.979 20.4462 20.2951L17.6212 23.6668C15.0356 27.4104 12.8467 32.4352 12.8467 37.4819C12.8467 42.9304 13.2015 44.8992 15.221 49.6168C15.7278 50.8004 16.789 52.4711 17.5001 53.5343C18.7115 55.3454 19.732 56.2845 21.1999 57.6938C21.4895 57.9718 21.6515 58.1869 21.9593 58.4456C26.1087 61.9357 32.0055 64.5355 37.7843 64.5355C43.078 64.5355 45.1459 64.0751 49.6167 62.1612C50.8004 61.6544 52.4711 60.5931 53.5343 59.8821C54.1946 59.4403 54.7307 59.0025 55.3389 58.513C55.6469 58.265 55.8208 58.0538 56.1067 57.7694C56.4739 57.4045 56.7026 57.3256 57.0142 57.0143L59.822 53.6254C60.6398 52.4188 61.5109 51.0803 62.1154 49.7222C64.807 43.6744 65.4121 37.0082 63.27 30.5863C62.4142 28.0209 60.6541 24.9666 60.6059 24.7864C62.9024 24.7864 64.142 25.4941 65.4976 24.6904C66.5413 24.0717 67.4548 22.5913 68.4651 21.9149L70.1253 25.3934C72.9813 31.6935 73.4185 39.3851 71.9792 46.1348C70.7801 51.7585 68.413 56.0732 64.9695 60.4354C60.667 65.8854 53.2339 70.5016 46.5131 71.9044C45.2888 72.1601 44.1941 72.3879 42.9105 72.5335L38.8448 72.8577C37.156 72.8856 32.7469 72.2992 31.2473 71.9793C27.8171 71.2478 24.8421 70.025 21.9614 68.4187C19.565 67.0823 18.9231 66.5296 16.9468 64.9696C16.4429 64.5718 16.2899 64.4196 15.8343 63.9661C14.9951 63.1308 13.5374 61.8845 12.6073 60.6942C12.2594 60.2489 12.019 59.9344 11.6715 59.514C8.02618 55.1036 5.47115 48.4748 4.83608 42.7721C3.35581 29.4782 9.16906 17.0847 20.4325 9.85288C22.771 8.35151 25.1495 7.26491 28.0543 6.29054C30.8303 5.35942 32.0692 5.16528 34.8844 4.80817C35.6387 4.71251 36.7269 4.74874 37.5692 4.62146C39.0523 4.39708 41.3707 4.68003 42.772 4.83611C45.8147 5.17495 48.9595 6.01396 51.6696 7.12264L55.4673 8.91696C54.0648 11.0114 51.9277 11.1545 52.38 14.1191C52.4792 14.7685 52.5957 16.1923 52.5957 16.7762H52.5958ZM-3.05176e-05 37.4818C-3.05176e-05 44.1492 0.895452 49.7107 3.52457 54.9653C4.06505 56.0452 4.54885 57.0819 5.12988 58.0453C7.80995 62.4892 7.57584 61.5356 10.0624 64.7505C12.7952 68.2839 18.238 71.7468 22.2165 73.7556C25.7426 75.5358 32.0353 77.3823 37.3308 77.3823H40.0514C45.2665 77.3823 51.5485 75.5793 55.0655 73.8065C57.2659 72.6974 59.0706 71.7593 60.9959 70.3663C66.9495 66.0593 70.4642 61.6847 73.7555 55.1657C75.5353 51.6403 77.3822 45.347 77.3822 40.0515C77.3822 32.0127 76.3582 27.4228 72.9507 20.6031C72.6175 19.9364 72.1699 19.157 71.7903 18.5898C72.2432 17.9133 73.512 16.7926 74.1706 16.1339C75.1692 15.1354 76.1732 14.4692 76.1732 12.9979C76.1732 11.0179 73.9715 10.7743 72.5461 10.7306C70.842 10.6782 68.8724 10.2772 67.105 10.2772C67.105 9.53264 66.6467 3.1665 66.2323 2.38403C65.8271 1.61872 65.0407 1.20908 64.0821 1.20908C62.4779 1.20908 60.3563 4.54474 58.7924 5.59195C54.0282 2.40185 45.8102 0 40.0514 0C33.2647 0 27.7066 0.859061 22.3167 3.57575C20.1268 4.67971 18.2982 5.62509 16.3865 7.01614C12.4118 9.90882 9.90879 12.4119 7.01611 16.3865C5.62506 18.2982 4.67968 20.1268 3.57572 22.3167C1.75951 25.9202 -3.05176e-05 32.1276 -3.05176e-05 37.482V37.4818Z" fill="white"/>
</svg>
