<svg width="65" height="57" viewBox="0 0 65 57" fill="none" xmlns="http://www.w3.org/2000/svg">
<path fill-rule="evenodd" clip-rule="evenodd" d="M9.2827 38.778L13.3647 38.7696L16.6365 51.6863L12.5545 51.6946L9.2827 38.778ZM21.5961 14.5386L29.1069 12.2008C34.0861 10.7383 39.3148 8.92897 44.2239 7.48882L51.83 5.11465V42.4049L21.5905 34.8965L21.5989 14.5386H21.5961ZM4.32034 31.9044V17.6342C4.32034 15.9536 5.21468 15.0755 6.88563 15.0755H17.2785V34.4603H6.88563C5.23151 34.4603 4.32034 33.5515 4.32034 31.9016V31.9044ZM56.1476 29.7511V17.6342C57.412 18.3026 58.2503 18.6661 59.0998 19.8043C60.8352 22.1337 60.8913 25.1454 59.1586 27.5028C58.2699 28.7109 57.4625 29.0548 56.1476 29.7511V29.7511ZM0.00280359 16.6918V32.8468C0.00280359 34.0297 0.613987 35.2097 1.08499 35.9396C2.32979 37.858 4.41566 38.3222 4.64275 38.585C4.86143 38.8339 8.15285 52.2791 8.5033 53.7165C8.74441 54.7036 9.27148 56.0039 10.5275 56.0039H19.7065C20.4971 56.0039 21.5961 55.1398 21.5961 53.8507C21.5961 52.6398 18.0579 40.0448 17.9514 38.7724C19.7317 38.7724 21.069 39.2813 22.5942 39.6616L49.3713 46.3395C50.089 46.5185 50.8292 46.703 51.6394 46.9044C52.702 47.17 53.1169 47.3882 54.258 47.3882C55.1271 47.3882 56.0326 46.3926 56.1364 45.6264L56.1476 34.3289C56.5597 34.1331 57.3784 33.9653 57.8858 33.7724C58.3372 33.6018 58.9596 33.2858 59.4306 33.0257C60.2717 32.5615 61.4548 31.6247 62.0463 30.9228C65.7443 26.5352 65.7078 20.9983 62.1052 16.538C59.9829 13.9094 57.3335 13.627 56.1476 13.0593V1.88479C56.0607 0.844519 55.1915 0 53.8514 0C53.2767 0 52.6907 0.276846 52.1244 0.433445L47.0836 2.00224C44.8519 2.74888 42.6623 3.32774 40.4054 4.09116C35.1683 5.8585 29.006 7.60627 23.6343 9.30649C22.5577 9.64765 21.3802 10.0419 20.2616 10.3859C18.3916 10.9592 18.2626 10.7718 16.1964 10.7718H7.42392C5.60158 10.7718 4.87545 10.769 3.59421 11.3954C1.9485 12.198 0 14.354 0 16.6946L0.00280359 16.6918Z" fill="white"/>
</svg>
