<svg width="64" height="64" viewBox="0 0 64 64" fill="none" xmlns="http://www.w3.org/2000/svg">
<path fill-rule="evenodd" clip-rule="evenodd" d="M44.4997 57.2499C44.775 56.0684 45.3655 54.6398 45.7354 53.4854C45.936 52.8586 46.7378 50.0361 46.7501 49.4999C47.6742 49.5203 51.6198 51.0999 52.375 51.5C52.1524 51.8326 51.828 51.9836 51.5287 52.2788L49.7665 53.8917C49.4154 54.171 49.1601 54.3824 48.7871 54.6623C48.1163 55.1647 47.471 55.5577 46.7757 56.0259C46.3914 56.2848 44.9039 57.1567 44.5002 57.2504L44.4997 57.2499ZM11.6245 51.5C12.3797 51.1004 16.3253 49.5209 17.2494 49.4999C17.2632 50.1241 17.5851 50.9832 17.7232 51.5261C17.8885 52.176 18.0645 52.8627 18.2641 53.4854C18.6335 54.6398 19.2245 56.0684 19.4998 57.2499C17.9755 56.8947 14.035 53.8492 12.5327 52.3418C12.1832 51.9908 11.8557 51.8444 11.6245 51.5V51.5ZM39.6244 59.25C38.8763 59.2669 36.2263 60.125 33.8746 60.125V47.25C35.5774 47.25 39.1792 47.7192 40.8754 47.9991C41.5744 48.1142 42.4008 48.3747 43.1248 48.3747C43.0209 49.6222 41.624 53.8088 41.1088 55.2338L39.6249 59.2495L39.6244 59.25ZM20.8742 48.3752L30.1244 47.25V60.125C27.7538 60.125 25.1457 59.2669 24.3746 59.25C24.1935 58.4738 23.7217 57.4893 23.4096 56.7151L22.4507 54.0493C22.0792 52.921 21.0077 49.4139 20.8747 48.3752H20.8742ZM43.9993 44.6251C42.9641 44.6251 38.5759 43.4999 33.874 43.4999V33.8751H44.9991C44.9991 38.6291 43.9993 43.4819 43.9993 44.6251ZM18.9994 34.75V33.8751H30.1244V43.4999C27.9436 43.4999 26.648 43.6053 24.5368 43.9123C23.8696 44.0095 22.9706 44.1144 22.2583 44.2592C21.5747 44.3984 20.799 44.6251 19.9992 44.6251C19.9992 43.5674 18.9994 38.6092 18.9994 34.75V34.75ZM54.9995 48.3752L51.4284 46.9461C50.7791 46.6841 50.2602 46.5249 49.5771 46.2972C48.9513 46.0885 48.1383 45.8715 47.624 45.6249C47.841 45.1731 48.4202 40.8243 48.4883 39.9892C48.6495 38.0146 48.8741 35.9546 48.8741 33.8751H60.124C60.124 38.3794 58.1202 43.1688 55.9942 46.8703C55.7153 47.3559 55.3177 47.8993 54.999 48.3752H54.9995ZM3.87448 33.8751H15.1244C15.1244 35.7862 15.7942 44.4158 16.3744 45.6249C15.8863 45.8592 15.087 46.0752 14.5155 46.266L8.99951 48.3752C7.41278 46.0051 6.72866 44.7683 5.62342 42.0016C4.89734 40.1841 3.87499 36.3619 3.87499 33.8751H3.87448ZM33.8746 20.5001C36.0554 20.5001 37.3509 20.3947 39.4622 20.0877L43.9998 19.3749L44.6353 24.1142C44.8983 26.364 44.9996 27.7594 44.9996 30.1249H33.8746V20.5001ZM18.9994 29.25C18.9994 27.0031 19.3386 23.976 19.6605 21.786C19.7623 21.0916 19.9992 20.1962 19.9992 19.3749L24.5368 20.0877C26.648 20.3947 27.9436 20.5001 30.1244 20.5001V30.1249H18.9994V29.25V29.25ZM47.6245 18.3751C48.1127 18.1408 48.9119 17.9248 49.4835 17.734L54.9995 15.6248C56.5862 17.9949 57.2703 19.2317 58.3756 21.9984C59.1016 23.8159 60.124 27.6381 60.124 30.1249H48.8741C48.8741 28.2138 48.2043 19.5842 47.624 18.3751H47.6245ZM15.1244 30.1249H3.87448C3.87448 27.6842 4.86561 23.9213 5.58709 22.0874C6.03481 20.9494 6.51017 19.6999 7.10014 18.7256L8.99951 15.6248L14.4218 17.7028C15.0476 17.9115 15.8607 18.1285 16.3749 18.3751C15.7947 19.5842 15.1249 28.2138 15.1249 30.1249H15.1244ZM33.8746 16.75V3.87499C36.2452 3.87499 38.8533 4.73308 39.6244 4.74997L41.5483 9.95073C41.8778 10.9516 43.0532 14.7723 43.1243 15.6248L38.7141 16.3396C37.8841 16.443 37.0787 16.529 36.3562 16.6067L33.8746 16.75V16.75ZM24.3746 4.74997C25.1227 4.73308 27.7727 3.87499 30.1244 3.87499V16.75L20.8742 15.6248C20.9781 14.3773 22.375 10.1907 22.8902 8.76567L24.3741 4.74997H24.3746ZM44.4997 6.75015C45.5737 7.00036 49.5137 9.77778 50.5949 10.7797L52.3745 12.4999C51.6193 12.8996 47.6737 14.4791 46.7496 14.5001C46.7332 13.771 44.8563 7.54889 44.4997 6.75015V6.75015ZM17.2499 14.5001C16.3258 14.4797 12.3802 12.9001 11.625 12.4999C11.931 12.043 14.5472 9.83714 15.2129 9.33825C15.9472 8.78819 18.7369 6.9277 19.4998 6.75015C19.1611 8.20435 18.2707 10.3227 17.7237 12.4739C17.5856 13.0167 17.2637 13.8759 17.2499 14.5001V14.5001ZM0 31.1253C0 36.9083 0.78646 40.8662 2.91609 45.4591C7.87739 56.1584 19.0981 64 31.1253 64C36.9083 64 40.8662 63.2135 45.4591 61.0839C56.1584 56.1226 64 44.9019 64 32.8747C64 27.0917 63.2135 23.1338 61.0839 18.5409C56.1226 7.84157 44.9019 0 32.8747 0C27.0917 0 23.1338 0.78646 18.5409 2.91609C11.5528 6.15659 6.2753 11.5446 2.95651 18.457C1.43732 21.6207 0 26.5114 0 31.1253V31.1253Z" fill="white"/>
</svg>
