<svg width="32" height="32" viewBox="0 0 32 32" fill="none" xmlns="http://www.w3.org/2000/svg">
<path d="M15.6489 8.28961C11.1877 8.28961 7.63275 11.9143 7.63275 16.3057C7.63275 20.7669 11.1877 24.3219 15.6489 24.3219C20.0403 24.3219 23.665 20.7669 23.665 16.3057C23.665 11.9143 20.0403 8.28961 15.6489 8.28961ZM15.6489 21.5337C12.791 21.5337 10.421 19.2334 10.421 16.3057C10.421 13.4478 12.7213 11.1475 15.6489 11.1475C18.5068 11.1475 20.8071 13.4478 20.8071 16.3057C20.8071 19.2334 18.5068 21.5337 15.6489 21.5337ZM25.8259 8.01079C25.8259 6.96521 24.9894 6.12874 23.9438 6.12874C22.8983 6.12874 22.0618 6.96521 22.0618 8.01079C22.0618 9.05637 22.8983 9.89284 23.9438 9.89284C24.9894 9.89284 25.8259 9.05637 25.8259 8.01079ZM31.1235 9.89284C30.9841 7.38344 30.4265 5.15286 28.6141 3.34052C26.8018 1.52818 24.5712 0.970532 22.0618 0.831121C19.4827 0.69171 11.7454 0.69171 9.16627 0.831121C6.65688 0.970532 4.49601 1.52818 2.61396 3.34052C0.801613 5.15286 0.243969 7.38344 0.104558 9.89284C-0.0348528 12.4719 -0.0348528 20.2093 0.104558 22.7884C0.243969 25.2978 0.801613 27.4586 2.61396 29.3407C4.49601 31.153 6.65688 31.7107 9.16627 31.8501C11.7454 31.9895 19.4827 31.9895 22.0618 31.8501C24.5712 31.7107 26.8018 31.153 28.6141 29.3407C30.4265 27.4586 30.9841 25.2978 31.1235 22.7884C31.2629 20.2093 31.2629 12.4719 31.1235 9.89284ZM27.7776 25.5069C27.2897 26.901 26.1744 27.9466 24.85 28.5042C22.7588 29.3407 17.8795 29.1316 15.6489 29.1316C13.3486 29.1316 8.46922 29.3407 6.44776 28.5042C5.05365 27.9466 4.00807 26.901 3.45042 25.5069C2.61396 23.4854 2.82307 18.606 2.82307 16.3057C2.82307 14.0752 2.61396 9.19578 3.45042 7.10462C4.00807 5.78021 5.05365 4.73463 6.44776 4.17699C8.46922 3.34052 13.3486 3.54964 15.6489 3.54964C17.8795 3.54964 22.7588 3.34052 24.85 4.17699C26.1744 4.66492 27.22 5.78021 27.7776 7.10462C28.6141 9.19578 28.405 14.0752 28.405 16.3057C28.405 18.606 28.6141 23.4854 27.7776 25.5069Z" fill="white"/>
</svg>
