<svg width="25" height="42" viewBox="0 0 25 42" fill="none" xmlns="http://www.w3.org/2000/svg">
<path d="M12.623 0C15.6101 0 18.3144 1.21074 20.2719 3.16827C22.2295 5.1258 23.4402 7.83011 23.4402 10.8172C23.4402 13.8044 22.2295 16.5087 20.2719 18.4662C18.3144 20.4237 15.6101 21.6345 12.623 21.6345C9.63583 21.6345 6.93152 20.4237 4.974 18.4662C3.01647 16.5087 1.80573 13.8044 1.80573 10.8172C1.80573 7.83011 3.01647 5.1258 4.974 3.16827C6.93152 1.21074 9.63583 0 12.623 0V0ZM22.9842 36.6782C24.1218 37.8476 24.0948 39.7178 22.927 40.8538C21.7576 41.9915 19.8874 41.9645 18.7514 40.7966L12.5102 34.3886L6.26895 40.7966C5.1313 41.9661 3.26116 41.9915 2.09332 40.8538C0.923887 39.7162 0.898465 37.846 2.03612 36.6782L8.23283 30.3162C7.84355 30.232 7.45427 30.1351 7.06817 30.0287C5.26635 29.5282 3.53127 28.7861 1.91695 27.8153C0.410672 26.9144 -0.0802988 24.9616 0.820608 23.4554C1.72152 21.9491 3.67428 21.4581 5.18055 22.359C6.3055 23.0359 7.51147 23.5523 8.76194 23.8987C9.99175 24.2403 11.2899 24.4151 12.623 24.4151C13.9497 24.4151 15.2415 24.2419 16.4633 23.905C17.7106 23.5602 18.9103 23.0486 20.0272 22.3813C21.5335 21.4804 23.4863 21.9713 24.3872 23.4776C25.2881 24.9839 24.7971 26.9367 23.2909 27.8376C21.6765 28.802 19.9494 29.5393 18.1571 30.0334C17.7154 30.1558 17.2705 30.2622 16.8256 30.356L22.9842 36.6782ZM15.761 7.67757C14.9587 6.87518 13.848 6.37785 12.623 6.37785C11.3979 6.37785 10.2873 6.87518 9.48489 7.67757C8.68249 8.47997 8.18517 9.59061 8.18517 10.8157C8.18517 12.0407 8.68249 13.1513 9.48489 13.9537C10.2873 14.7561 11.3979 15.2535 12.623 15.2535C13.848 15.2535 14.9587 14.7561 15.761 13.9537C16.5634 13.1513 17.0608 12.0407 17.0608 10.8157C17.0608 9.59061 16.5634 8.47997 15.761 7.67757Z" fill="white"/>
</svg>
