<svg width="25" height="25" viewBox="0 0 25 25" fill="none" xmlns="http://www.w3.org/2000/svg">
<path fill-rule="evenodd" clip-rule="evenodd" d="M9.26184 8.26178C9.26184 9.37819 10.6308 9.77957 11.6484 10.031C13.6121 10.516 16.0463 10.8753 17.6249 12.1281C19.6622 13.745 19.534 17.381 16.8049 19.0107C15.676 19.6849 14.9057 19.8483 13.6225 20.0435C11.9976 20.2905 9.8608 20.0248 8.48809 19.4245C7.13576 18.8331 5.72367 17.5212 5.52988 16.029C5.45976 15.4898 5.49085 14.9499 5.80277 14.5975C6.4874 13.8248 7.84906 13.7554 8.4912 14.7312C8.75925 15.1381 8.95545 15.6304 9.22108 16.0791C9.98308 17.3668 11.0128 17.5222 12.4677 17.5222C13.6967 17.5222 15.3765 16.782 15.3765 15.6224V15.3257C15.3765 13.6262 11.6121 13.2877 9.88913 12.7986C7.70225 12.1778 5.81866 11.0956 5.81866 8.55781C5.81866 2.91635 17.7109 2.88907 18.3147 7.8794C18.4187 8.73709 17.7313 9.62621 16.8608 9.62621H16.5641C14.5447 9.62621 15.5852 6.71739 11.9337 6.71739C10.9192 6.71739 9.26219 7.19753 9.26219 8.26109L9.26184 8.26178ZM0.000690847 6.54019C0.000690847 7.66731 0.201036 8.61377 0.633507 9.46938C1.00518 10.2041 0.871849 9.91187 0.777203 10.7599C0.638343 12.0041 0.592401 12.725 0.796547 13.9965C1.10501 15.9167 1.85251 17.6366 3.00242 19.1519C3.13057 19.3209 3.26287 19.4984 3.39966 19.6452C4.8722 21.2266 6.15648 22.2794 8.30433 23.0518C9.34267 23.4252 10.9544 23.7402 12.1696 23.7602C12.8035 23.7706 13.8131 23.5913 14.2895 23.5596C14.7658 23.5281 15.5289 24.3499 17.6325 24.3499C22.0891 24.3499 25.6795 19.6804 23.8581 15.2746C23.6304 14.7236 23.6 14.8829 23.7216 14.1727C24.1306 11.7886 23.7534 9.34192 22.7182 7.2718C21.8397 5.51498 20.484 3.9661 18.8677 2.87007C18.266 2.46178 17.7568 2.20824 17.0788 1.86868C15.3188 0.987509 12.7517 0.636904 10.6211 0.958148C10.3071 1.00547 10.2981 1.02723 10.058 0.877665C9.87428 0.762984 9.74647 0.688027 9.55752 0.603398C7.33196 -0.389694 4.77237 -0.146516 2.79033 1.2559C2.16442 1.69908 1.63005 2.23345 1.18757 2.85867C0.467703 3.87559 0 5.14295 0 6.53916L0.000690847 6.54019Z" fill="white"/>
</svg>
