<svg width="24" height="24" viewBox="0 0 24 24" fill="none" xmlns="http://www.w3.org/2000/svg">
<path fill-rule="evenodd" clip-rule="evenodd" d="M16.3685 17.3815C15.9522 17.3815 15.663 17.0936 15.2434 16.8142C14.9154 16.5959 14.645 16.4001 14.3194 16.1831C13.6788 15.7559 13.0686 15.3357 12.435 14.9115C12.3389 15.0548 12.1085 15.2806 11.9641 15.4011C11.5207 15.7717 11.3835 15.9707 10.9391 16.3429C10.6725 16.566 10.6585 16.741 10.2394 16.741C9.76635 16.741 9.64877 16.1355 9.47919 15.626C9.3188 15.1445 9.17402 14.6723 9.01032 14.2196C8.84019 13.7493 8.70075 13.3137 8.53374 12.8209C8.4744 12.6458 8.48671 12.6478 8.30298 12.5942L7.18428 12.2949C6.71155 12.1661 6.20282 12.0221 5.71099 11.8929C5.5291 11.8451 5.16551 11.7645 4.99519 11.6939C4.77968 11.6046 4.63656 11.3243 4.76811 11.09C4.89322 10.8672 5.67332 10.6616 6.06392 10.5071L7.47787 9.99998C8.3875 9.70216 9.34728 9.2965 10.2334 9.00493C11.1592 8.70031 12.0947 8.33304 13.0238 7.99903L17.8714 6.26007C18.2556 6.11621 18.996 5.76622 19.2817 6.42046C19.4189 6.73482 18.9583 8.31283 18.8806 8.68708C18.7751 9.19453 18.6577 9.68636 18.5363 10.2181C18.4161 10.7448 18.3193 11.2286 18.1894 11.7465C17.9441 12.7243 17.7406 13.7585 17.5027 14.7645C17.3873 15.252 17.2607 15.8123 17.1576 16.295C17.1135 16.5017 17.0523 16.8761 16.9733 17.0256C16.8681 17.2252 16.6608 17.3813 16.3685 17.3813V17.3815ZM11.518 0.000367451H12.5768C13.3597 0.0356427 14.1458 0.149552 14.9239 0.347241C15.5739 0.51241 16.435 0.808024 17.0092 1.09776L18.3901 1.86665C19.0147 2.25725 19.809 2.91462 20.3137 3.41931C21.3021 4.40775 22.0387 5.47887 22.6508 6.75392C23.3032 8.11257 23.6795 9.74975 23.7328 11.3952V12.2063C23.6925 13.4235 23.4704 14.621 23.0467 15.6889C22.9113 16.03 22.7925 16.3775 22.6358 16.6959C21.3541 19.2978 19.5212 21.1165 16.9792 22.337C15.2539 23.1654 13.7135 23.4189 11.6119 23.4189C8.77369 23.4189 5.74571 22.0123 3.73318 19.9998C2.74584 19.0126 2.00745 17.9388 1.39601 16.6652C0.568516 14.9418 0.314056 13.3971 0.314056 11.2978C0.314056 9.16238 1.2347 6.58912 2.45666 4.93284C2.85645 4.39122 3.25991 3.89222 3.73318 3.41913C5.8045 1.34836 8.60117 0.132098 11.5182 0L11.518 0.000367451Z" fill="white"/>
</svg>
