<svg width="39" height="33" viewBox="0 0 39 33" fill="none" xmlns="http://www.w3.org/2000/svg">
<path fill-rule="evenodd" clip-rule="evenodd" d="M32.2055 2.16288C27.4632 -1.44204 20.9447 0.884265 19.4933 6.50805C19.1449 7.85791 19.3336 8.97291 19.4431 10.2819C16.1813 10.2819 11.6949 8.76838 9.63516 7.52408C8.34599 6.74556 7.01592 6.00003 5.88773 4.98796C5.51695 4.65545 5.45361 4.54725 5.02213 4.21473C4.04568 3.45996 3.50204 2.4347 2.77895 1.95044C2.54011 2.97438 2.23531 2.80284 1.89619 4.89164C1.11372 9.70128 5.16463 12.3179 5.37444 12.6029C3.85435 12.6029 2.81457 12.1714 1.82362 11.6476C1.82362 16.1234 5.51826 19.3747 8.10584 19.4327C7.57011 20.1637 5.2504 19.8682 4.55502 19.7059C5.01157 20.5675 5.05907 21.0175 5.68452 21.854C7.16238 23.8333 9.19708 25.1687 12.067 25.1687C11.7437 25.6529 10.4506 26.4328 9.83704 26.7626C6.70451 28.4437 4.46661 28.7195 0.595146 28.7195C0.918428 29.1615 2.49261 29.8266 3.14445 30.1314C6.13448 31.5261 9.07436 32.1265 12.7505 32.1344C17.5615 32.145 21.7971 30.5853 24.7436 28.6944C26.8826 27.3208 27.2784 26.8128 28.97 25.1357C31.5273 22.6009 33.6161 18.5223 34.4962 15.0928C35.028 13.0225 35.2866 10.902 35.2866 8.23398C36.2129 7.6138 38.7252 5.34423 38.9746 4.41002C38.4824 4.45092 37.5535 4.87053 36.8726 5.03943C36.358 5.16742 35.0464 5.35479 34.7403 5.50258C34.9475 4.93122 34.9897 5.30201 35.7339 4.58287C36.0638 4.26355 36.3884 3.95874 36.6866 3.62358C37.1286 3.12744 37.9546 1.90953 38.0193 1.13233C37.1194 1.60868 36.168 2.09426 35.1032 2.45053C34.7522 2.56797 33.7361 2.86222 33.4709 2.88729C32.8323 2.94799 32.699 2.53894 32.2068 2.16552L32.2055 2.16288Z" fill="white"/>
</svg>
