<svg width="26" height="28" viewBox="0 0 26 28" fill="none" xmlns="http://www.w3.org/2000/svg">
<path fill-rule="evenodd" clip-rule="evenodd" d="M5.13887 8.79607C5.13887 7.57636 5.41569 7.46243 6.14462 6.7335C6.39998 6.47813 6.60578 6.27324 6.86055 6.01757C7.43988 5.43612 7.39334 5.45516 8.13919 5.45516C8.65173 5.45516 8.91103 5.71083 9.17939 5.98342C9.46588 6.27414 9.71641 6.50715 9.99868 6.80059C10.1691 6.97768 10.2006 7.06956 10.371 7.24665C10.5197 7.40108 10.6297 7.50322 10.7814 7.65433C11.3665 8.23729 11.4121 8.30619 11.4121 9.00097C11.4121 10.4416 9.57105 9.91061 9.57105 11.3875C9.57105 13.4588 13.8917 17.4577 15.0465 14.8173C15.1676 14.5398 15.2335 14.3806 15.4517 14.1996C15.721 13.9762 16.0045 13.9103 16.3901 13.9103C16.9262 13.9103 17.184 14.1896 17.4641 14.4727L19.1347 16.2117C19.4877 16.5622 19.7313 16.7653 19.7313 17.3881C19.7313 18.0959 18.9721 18.801 18.4838 19.2093C17.8041 19.7774 17.5228 20.2522 16.4584 20.2522C14.7702 20.2522 12.8083 19.0708 11.5194 18.0995L9.21142 16.1116C8.41994 15.2796 7.27941 13.9206 6.704 12.9593C6.53174 12.6719 6.33712 12.3636 6.16486 12.0666C5.68617 11.2415 5.13917 9.81844 5.13917 8.79667L5.13887 8.79607ZM13.7989 8.18259C13.7989 7.98434 13.7968 7.6371 14.2081 7.6371C15.7304 7.6371 16.9359 8.8408 16.9359 10.4328C16.9359 10.7592 16.3375 11.0297 16.1214 10.5658C15.9736 10.2482 16.1256 8.71296 14.2779 8.52197C14.0392 8.49719 13.7989 8.43826 13.7989 8.18289V8.18259ZM13.2535 6.27324C13.2535 5.69209 13.7427 5.72775 14.2764 5.72775C16.6606 5.72775 18.7769 7.87554 18.7769 10.0919C18.7769 10.6534 18.8769 11.2512 18.2314 11.2512C17.6609 11.2512 17.98 10.3827 17.8183 9.61868C17.1075 6.2545 13.5811 6.64374 13.5699 6.63982C13.4321 6.59388 13.2535 6.42767 13.2535 6.27354V6.27324ZM13.7989 3.8867C15.4372 3.8867 16.6832 4.15959 17.9691 5.10339L18.8564 5.85256C18.9978 6.02331 19.0513 6.08949 19.2018 6.25722C20.3968 7.58633 20.8658 9.6075 20.5905 11.4286C20.4527 12.3389 20.2215 12.2518 19.731 12.1376C19.3614 11.3676 20.4593 10.4627 19.0954 7.72716C18.7449 7.02392 18.1251 6.3503 17.5212 5.89185C16.9183 5.4337 15.9963 4.99973 15.1438 4.85981C14.8515 4.81176 13.7041 4.78365 13.5678 4.73077C13.0764 4.53977 13.2501 3.8867 13.7983 3.8867H13.7989ZM0.297492 10.2965C0.297492 13.7882 0.026109 16.4815 1.92005 19.3114C2.69491 20.4692 2.68796 20.3558 3.62057 21.293C3.9938 21.6683 5.34709 22.649 5.88865 22.775L5.88834 26.9349C5.88441 27.5176 5.81672 27.9573 6.50243 27.9573C6.81522 27.9573 10.3755 23.9851 10.7636 23.8312C11.3674 23.5922 16.1655 24.1664 18.6406 23.3211C19.7488 22.9427 20.5258 22.5638 21.407 21.9279C24.0773 20.001 25.527 17.1376 25.527 13.3649C25.527 9.40351 25.8169 7.00186 23.462 3.83774C21.7881 1.58841 18.8664 0 15.9806 0H9.84364C7.2513 0 4.6786 1.31219 3.00649 3.05019C2.28512 3.79997 1.43893 5.13844 1.05603 6.07771C0.570084 7.26962 0.29719 8.62865 0.29719 10.2965H0.297492Z" fill="white"/>
</svg>
