<svg width="39" height="23" viewBox="0 0 39 23" fill="none" xmlns="http://www.w3.org/2000/svg">
<path d="M37.4954 1.68635C37.7045 0.849887 37.4954 0.152832 36.2407 0.152832H32.128C31.0825 0.152832 30.5945 0.710476 30.3157 1.33783C30.3157 1.33783 28.2245 6.42633 25.2969 9.77219C24.321 10.6784 23.9028 11.0269 23.3452 11.0269C23.136 11.0269 22.7178 10.6784 22.7178 9.8419V1.68635C22.7178 0.640771 22.439 0.152832 21.5328 0.152832H15.1199C14.4228 0.152832 14.0743 0.640771 14.0743 1.12871C14.0743 2.10459 15.5381 2.3137 15.6775 5.10192V11.1663C15.6775 12.4907 15.4684 12.7695 14.9108 12.7695C13.5167 12.7695 10.1708 7.61132 8.14935 1.75606C7.73112 0.640771 7.31288 0.152832 6.2673 0.152832H2.15468C1.03939 0.152832 0.760567 0.710476 0.760567 1.33783C0.760567 2.45311 2.15468 7.82044 7.24318 15.0001C10.6587 19.8795 15.4684 22.4586 19.7902 22.4586C22.3693 22.4586 22.7178 21.901 22.7178 20.9251C22.7178 16.2548 22.5087 15.7669 23.7634 15.7669C24.3907 15.7669 25.4363 16.1154 27.876 18.4854C30.6642 21.2736 31.1522 22.4586 32.6857 22.4586H36.7983C37.9833 22.4586 38.541 21.901 38.1924 20.716C37.4257 18.346 32.1978 13.3272 31.9189 12.9786C31.2916 12.2119 31.5007 11.8634 31.9189 11.1663C31.9189 11.1663 36.9377 4.05634 37.4954 1.68635Z" fill="white"/>
</svg>
