<svg width="25" height="24" viewBox="0 0 25 24" fill="none" xmlns="http://www.w3.org/2000/svg">
<path fill-rule="evenodd" clip-rule="evenodd" d="M9.22637 10.6251C9.22637 11.0926 10.3075 12.4162 10.6579 12.7659C10.7164 12.8245 10.7377 12.8497 10.7905 12.908L11.5734 13.6364C12.0776 14.1079 13.8033 15.1135 14.31 15.1135C15.108 15.1135 15.5725 13.3734 16.2333 13.3734C16.4794 13.3734 16.9811 13.609 17.1803 13.7086C17.4813 13.8591 17.749 13.9695 18.05 14.1212L19.3303 14.7641C19.5706 14.9029 19.5764 14.989 19.5764 15.2967C19.5764 16.1525 19.285 16.9299 18.6417 17.4307C16.9102 18.7789 15.3066 18.2621 13.4265 17.5084C12.4353 17.1112 11.8174 16.8161 10.9471 16.1864C10.6474 15.9696 10.1586 15.61 9.90234 15.3535C9.7722 15.2233 9.68832 15.1869 9.55726 15.0574C8.13071 13.6463 5.74542 10.8835 5.74542 8.83931C5.74542 7.81581 5.84379 7.13645 6.48429 6.28071C6.91262 5.70805 7.49576 5.27756 8.28212 5.38333C8.92447 5.46968 8.92447 5.34293 9.18104 5.86193C9.32505 6.15304 9.46999 6.51384 9.59273 6.82438L10.2008 8.27714C10.3177 8.54666 10.3714 8.62437 10.3714 8.9312C10.3714 9.47364 9.22637 10.2458 9.22637 10.6257V10.6251ZM0.799674 11.8238V11.4611V11.4038C0.799674 9.49245 1.4377 7.43311 2.3761 5.83572C2.84822 5.03178 3.56581 4.08044 4.22296 3.42329C4.29204 3.35421 4.3349 3.30364 4.40645 3.24042L4.79469 2.89597C5.43982 2.29556 6.82844 1.38985 7.59691 1.07253C9.56744 0.258728 10.5271 0 12.8442 0C15.9138 0 19.141 1.51752 21.1686 3.81215L21.5146 4.19916C22.1171 4.91645 22.8267 5.9529 23.1755 6.79724C23.8132 8.34128 24.248 9.63677 24.248 11.4035C24.248 13.7188 23.8258 15.6476 22.6716 17.6126L21.1473 19.6606C20.3054 20.6659 18.5754 21.9111 17.4505 22.3755C15.907 23.0129 14.6131 23.448 12.8442 23.448C10.9551 23.448 9.51594 23.2238 7.82203 22.4705C7.40171 22.2836 7.08038 22.1211 6.69213 21.9058C6.07322 21.5626 6.30358 21.4353 5.51044 21.7014L1.57802 22.9441C1.60022 22.6777 2.16455 21.1611 2.29345 20.7744C3.13686 18.2448 3.17695 18.8517 2.56636 17.9256C1.87221 16.8722 1.28537 15.3254 1.0399 14.0934C0.819101 12.9848 0.800291 12.7073 0.799057 11.8232L0.799674 11.8238Z" fill="white"/>
</svg>
