<svg width="116" height="117" viewBox="0 0 116 117" fill="none" xmlns="http://www.w3.org/2000/svg">
<path fill-rule="evenodd" clip-rule="evenodd" d="M13.5842 47.5814H102.401V109.211H13.5842V47.5814ZM39.6176 0H42.1288C46.6874 0.421075 51.1148 3.14586 53.6107 8.23232C54.4346 9.91356 57.4584 14.997 57.7666 16.3121H58.2212C58.4836 15.18 60.3022 12.144 61.0131 10.7221L63.982 5.53195C66.841 1.5714 70.5056 0 76.123 0C82.5825 0 88.5844 6.52971 88.5844 12.6872C88.5844 18.6432 87.8124 16.8949 86.9977 20.3916C92.3588 20.3916 97.7229 20.3916 103.084 20.3916C105.119 20.3916 113.129 19.9431 114.557 20.9286C115.213 21.3833 116 22.3383 116 23.3361V44.6339C116 46.0223 114.444 47.5784 113.056 47.5784H109.205V113.059C109.205 114.447 107.649 116.003 106.26 116.003H9.73964C8.35132 116.003 6.79517 114.447 6.79517 113.059V47.5784H2.94447C1.55615 47.5784 0 46.0223 0 44.6339V23.3361C0 22.2529 0.897072 21.2612 1.5775 20.8371C2.61188 20.1902 3.59439 20.3886 5.20851 20.3916H28.9992C28.2883 17.3342 27.4126 18.7043 27.4126 12.6872C27.4126 9.17516 29.5118 5.70892 31.3182 3.90562C33.6402 1.58971 36.5877 0.283768 39.6237 0L39.6176 0ZM6.78602 27.1898H109.199V40.7832H6.78602V27.1898ZM63.8844 20.3916C64.1529 19.2413 64.9309 18.1215 65.4588 17.2091C66.0569 16.1809 66.4566 15.1434 67.0973 14.0907C68.3026 12.1105 68.9983 9.67251 70.829 8.3086C73.7583 6.12389 78.1734 6.20017 80.5626 9.82508C81.0172 10.5147 81.1118 10.655 81.362 11.5185C81.8624 13.2333 81.9204 14.2494 81.24 16.0008C78.9057 22.0149 71.1738 20.3916 63.8783 20.3916H63.8844ZM34.2016 13.5934C34.2016 8.59847 39.9685 4.583 45.0214 8.21096C46.9346 9.58403 47.5845 11.8328 48.8325 13.9168C49.4763 14.9939 49.8272 15.9703 50.4405 17.0657C51.0324 18.1245 51.8136 19.162 52.1004 20.3916C44.8323 20.3916 37.2529 21.9996 34.8058 16.1626C34.5953 15.6622 34.2016 14.167 34.2016 13.5964V13.5934Z" fill="url(#paint0_linear_42_371)"/>
<path d="M24.4408 77.7127L29.0269 77.2581C29.3045 78.7929 29.8568 79.9127 30.6959 80.6358C31.535 81.3559 32.6701 81.7129 34.095 81.7129C35.6023 81.7129 36.7405 81.3926 37.5033 80.7548C38.2661 80.1141 38.6536 79.3665 38.6536 78.5122C38.6536 77.9599 38.4919 77.493 38.1715 77.1025C37.8511 76.718 37.2866 76.3824 36.4872 76.0986C35.941 75.9033 34.6931 75.5677 32.7402 75.0795C30.2321 74.4509 28.4685 73.682 27.4554 72.7666C26.0305 71.482 25.3196 69.9167 25.3196 68.0677C25.3196 66.8807 25.6552 65.764 26.3234 64.7296C26.9947 63.6952 27.9589 62.908 29.2221 62.3649C30.4854 61.8217 32.0018 61.5532 33.7899 61.5532C36.7008 61.5532 38.8946 62.197 40.3654 63.4938C41.8391 64.7876 42.608 66.5115 42.6843 68.6749L37.9701 68.8366C37.7687 67.6344 37.3416 66.7709 36.6855 66.2461C36.0295 65.7213 35.0439 65.4558 33.7319 65.4558C32.3771 65.4558 31.3153 65.7365 30.5494 66.301C30.0551 66.6641 29.808 67.1462 29.808 67.7534C29.808 68.3057 30.0399 68.7786 30.5067 69.1692C31.0987 69.6726 32.5328 70.1944 34.8151 70.7345C37.0974 71.2715 38.7817 71.836 39.871 72.4096C40.9665 72.9894 41.8208 73.7766 42.4402 74.7774C43.0566 75.7813 43.3678 77.017 43.3678 78.4847C43.3678 79.8181 42.9986 81.0691 42.2571 82.2347C41.5157 83.4003 40.4691 84.2668 39.1143 84.8313C37.7596 85.3989 36.0692 85.6826 34.0462 85.6826C31.1017 85.6826 28.8438 85.0053 27.2663 83.6444C25.6888 82.2896 24.752 80.3094 24.4408 77.7158V77.7127ZM47.368 85.2585V61.9743H64.6046V65.9104H52.0853V71.0823H63.7289V75.0185H52.0853V81.3285H65.0623V85.2646H47.3711L47.368 85.2585ZM68.0831 73.7583C68.0831 71.3844 68.4401 69.3889 69.151 67.7748C69.6758 66.5878 70.402 65.5199 71.3174 64.577C72.2328 63.6342 73.2366 62.9354 74.3259 62.4747C75.7784 61.8614 77.4535 61.5532 79.3514 61.5532C82.7871 61.5532 85.5302 62.6212 87.5959 64.751C89.6555 66.8868 90.6868 69.8527 90.6868 73.6515C90.6868 77.4198 89.6616 80.3673 87.6203 82.491C85.576 84.6208 82.839 85.6826 79.4185 85.6826C75.9553 85.6826 73.197 84.6269 71.1526 82.5063C69.1083 80.3917 68.0861 77.4778 68.0861 73.7583H68.0831ZM72.9285 73.5996C72.9285 76.239 73.5418 78.2406 74.7592 79.6045C75.9797 80.9654 77.5298 81.6489 79.4033 81.6489C81.2828 81.6489 82.8237 80.9715 84.032 79.6228C85.2342 78.2681 85.8384 76.242 85.8384 73.5355C85.8384 70.8626 85.2525 68.8702 84.0778 67.5581C82.9061 66.24 81.353 65.5839 79.4063 65.5839C77.4657 65.5839 75.9004 66.2491 74.7135 67.5795C73.5265 68.9129 72.9315 70.9176 72.9315 73.5996H72.9285Z" fill="url(#paint1_linear_42_371)"/>
<defs>
<linearGradient id="paint0_linear_42_371" x1="58" y1="0" x2="58" y2="116.003" gradientUnits="userSpaceOnUse">
<stop offset="0.192684" stop-color="#389A77"/>
<stop offset="1" stop-color="#175842"/>
</linearGradient>
<linearGradient id="paint1_linear_42_371" x1="57.5638" y1="61.5532" x2="57.5638" y2="85.6826" gradientUnits="userSpaceOnUse">
<stop offset="0.192684" stop-color="#389A77"/>
<stop offset="1" stop-color="#175842"/>
</linearGradient>
</defs>
</svg>
