<svg width="150" height="108" viewBox="0 0 150 108" fill="none" xmlns="http://www.w3.org/2000/svg">
<path fill-rule="evenodd" clip-rule="evenodd" d="M54.7941 95.6885H95.2229L97.8604 103.013H52.1567C52.5679 102.235 54.7217 96.5491 54.7941 95.6885ZM0.00852164 23.033V20.8749C0.0873468 19.0065 0.590124 17.4662 3.23183 17.4662C5.20459 17.4662 7.94004 23.0138 8.97329 24.635C9.37167 25.2592 9.79775 26.644 10.1855 25.3551C10.3581 24.782 10.2537 22.8604 10.2515 22.1446C10.243 16.2327 11.9836 8.24792 13.5111 2.8452C13.8136 1.77361 13.7262 1.4434 14.5613 0.657274C15.2921 -0.0308479 15.7288 -0.154412 16.679 0.173671C20.469 1.48174 15.9589 8.12649 15.8289 13.951C17.5184 12.8198 22.071 7.79841 24.031 7.79841C29.6532 7.79841 25.5202 16.0687 24.6211 18.3482C23.6326 20.8536 22.6676 22.9137 21.4106 25.0973C14.6061 36.9168 15.2431 29.8694 15.2431 38.2654C16.3381 37.9735 15.8183 38.1567 16.3445 37.3174C17.6291 35.27 19.7894 30.3552 22.2734 30.3552C23.8222 30.3552 25.2027 31.3224 25.2027 32.9926C25.2027 42.1363 24.6595 48.1675 20.9973 56.3419C20.0067 58.5533 21.4639 59.1903 21.9794 61.4102C22.9743 60.6816 22.282 61.4911 22.7102 60.0914C22.8849 59.5226 22.9914 59.0923 23.0915 58.7152C23.72 56.359 24.1844 51.7445 27.2522 51.7445C29.2313 51.7445 30.0111 53.2379 30.4222 54.7271C32.1947 61.1652 33.113 65.965 33.113 73.1295C33.113 75.375 32.6805 76.5574 32.5271 78.4023C32.9042 78.9647 34.9323 81.2741 35.4564 81.6256C35.4564 79.9852 35.0431 73.4534 35.695 72.1964C37.0393 69.5973 39.7194 70.7712 41.0722 72.4947C44.7769 77.2114 50.1051 88.183 50.1051 94.2249H50.691C51.1362 92.3181 52.1823 91.0846 54.4895 90.9909C56.6455 90.9035 59.0528 91.0015 61.2386 91.0015C63.0196 88.3428 64.3043 85.1515 65.5506 81.8365C66.4709 79.3887 67.8535 71.9472 68.269 71.0801C66.4496 70.1171 65.116 68.8709 63.5373 67.6075C61.9012 66.2973 61.1129 64.4055 58.8611 64.0796C48.469 62.5819 39.4893 55.3491 36.6239 45.3C35.1922 40.2829 35.4564 34.7673 35.4564 29.4753C35.4564 28.0032 36.9136 26.546 38.3857 26.546H50.9828V25.3743C49.1805 24.9546 48.0535 23.4761 48.0535 21.2732C48.0535 17.8923 47.3974 13.0712 52.1546 13.0712H97.8582C100.421 13.0712 101.959 14.6093 101.959 17.1722C101.959 20.1228 102.645 24.5328 99.03 25.3743V26.546H111.627C113.099 26.546 114.556 28.0032 114.556 29.4753V38.5573C114.556 49.3648 106.731 58.5128 97.4407 62.4583C94.9928 63.498 93.8126 63.5981 90.8918 64.1137C89.1491 64.4204 84.7839 69.4674 81.7417 71.078C82.0186 71.6553 82.5065 74.6826 82.7174 75.6946C83.0349 77.2306 82.7728 78.5472 81.2091 79.0606C79.5751 79.5975 78.6654 78.3938 78.2712 76.894C77.892 75.4474 77.679 73.9561 77.3488 72.5437H72.6619C71.0428 79.4973 69.7986 84.7829 66.5093 91.0015H83.5014C82.8431 89.7574 81.7438 87.7633 81.7438 86.3147C81.7438 85.3411 84.4857 82.1518 86.893 87.6121C87.4767 88.9351 88.0605 89.9363 88.7742 91.0037C90.9749 91.0037 94.0001 90.8269 96.0985 91.0015C99.1493 91.2572 98.5059 93.2001 99.9056 94.2249C99.9056 91.3637 101.676 86.4382 102.541 84.2631C104.115 80.3048 106.478 75.1897 109.343 72.0217C109.921 71.3826 110.204 70.9203 111.235 70.703C115.029 69.8998 114.488 74.6017 114.686 75.9459C114.891 77.3328 114.552 79.6592 114.552 81.6256C115.426 81.0398 115.472 80.8587 116.141 79.9937C118.719 76.6639 116.896 79.0755 116.896 72.5437C116.896 68.1316 117.409 63.074 118.3 59.2989C118.864 56.9043 119.537 51.7424 122.756 51.7424C126.263 51.7424 126.461 57.7096 127.362 60.3194C127.82 61.6466 126.977 60.639 128.029 61.4102C128.609 58.9197 130.093 58.6236 128.915 56.1374C126.393 50.822 124.806 45.0486 124.806 38.5573C124.806 35.089 123.615 30.3552 128.029 30.3552C129.554 30.3552 130.905 32.9138 131.661 34.0451C132.394 35.1401 133.594 37.9522 134.765 38.2654C134.765 32.2747 135.792 35.2381 132.541 31.1136C129.476 27.2214 127.226 23.0117 125.385 18.3461C124.531 16.1816 121.559 10.5168 124.041 8.49718C127.305 5.84269 131.638 12.2467 134.177 13.9468C134.05 8.1691 129.382 1.20479 133.545 0.0969767C134.446 -0.14376 134.906 0.0586293 135.596 0.802142C137.286 2.62151 138.941 14.3409 139.214 16.5288C139.42 18.1969 139.768 20.5084 139.751 22.4365C139.706 27.2895 139.93 26.1519 140.556 25.3785C141.779 23.8723 142.637 22.1915 143.645 20.4829C146.975 14.8245 150 18.6038 150 19.8054C150 27.362 148.873 33.9044 145.373 39.4946C144.097 41.5356 142.386 43.7107 140.505 45.1743C137.166 47.7734 137.507 47.2152 136.523 51.4462C137.348 51.0095 137.886 50.6069 138.615 50.0231C139.276 49.4927 139.932 49.0197 140.552 48.4445C142.002 47.0938 143.161 45.5876 145.313 45.5876C150.997 45.5876 145.735 55.2895 144.604 57.1834C141.651 62.126 138.053 66.6978 132.622 69.2266C128.219 71.2782 128.681 69.4823 125.978 74.5931C128.585 73.986 133.089 71.078 135.353 71.078C136.668 71.078 138.909 73.3213 137.124 76.0695C133.984 80.9077 129.303 85.6563 123.966 88.1085C115.249 92.1115 113.423 89.3824 110.815 91.9496C108.033 94.6872 104.586 97.0498 101.369 99.2036C103.338 102.923 104.524 107.7 98.7317 107.7H51.5644C44.4766 107.7 47.9385 102.193 48.6351 99.2036C45.35 97.005 41.8647 94.6062 39.0461 91.8005C36.3171 89.0863 32.0733 93.181 20.6735 84.6849C19.6275 83.9052 19.2738 83.4386 18.3918 82.5737L16.3125 80.5519C14.7169 78.6729 11.0909 75.5156 12.4799 72.7397C14.4271 68.8496 19.5444 73.5514 24.0246 74.5953C23.6135 73.8177 23.2854 73.2318 22.8721 72.5245C20.3902 68.2914 18.8158 72.3733 10.3261 63.9773C7.09639 60.7838 2.05158 52.3687 2.05158 48.2272C2.05158 46.3482 3.643 45.5897 5.27489 45.5897C7.04313 45.5897 11.3998 50.3491 13.477 51.4484C12.3798 46.7423 12.8421 47.8885 9.32906 45.0486C3.36605 40.2275 0 31.4971 0 23.0287L0.00852164 23.033ZM105.185 90.7076C105.783 88.1404 108.054 82.399 109.676 79.9639C110.042 79.4121 109.782 79.7232 110.166 79.2822L109.424 86.7429C109.036 88.0296 109.105 87.2542 107.458 88.8775C106.761 89.5657 105.954 90.192 105.185 90.7076ZM39.8536 79.2822L41.4216 81.8174C42.5485 84.033 44.3019 88.4238 44.8345 90.7076C43.7842 90.0045 40.972 87.9913 40.5971 86.7429L39.8557 79.2822H39.8536ZM117.49 85.7267C117.707 84.9128 119.731 82.8123 120.611 81.8174C122.117 80.113 122.364 80.7969 125.513 79.6891C126.896 79.2033 127.771 78.7389 129.207 78.4044C128.246 79.8403 125.701 81.8344 124.214 82.7846C120.042 85.4497 119.565 84.7318 117.49 85.7288V85.7267ZM20.8098 78.4023L27.8956 80.6925C29.0247 81.0824 29.3017 81.5681 30.3541 82.923C31.1295 83.9222 32.199 84.4931 32.5292 85.7288C31.6004 85.2835 30.0771 85.0321 29.014 84.5571C26.432 83.4045 22.267 80.5775 20.812 78.4044L20.8098 78.4023ZM121.591 72.5437C121.591 70.6945 121.438 68.2296 121.668 66.4678C121.849 65.0617 122.439 62.5798 122.471 61.1183C123.334 61.751 123.065 61.6402 123.621 64.3629C124.444 68.3787 124.659 67.8653 123.074 70.5113C122.607 71.2889 122.296 72.0281 121.591 72.5437ZM25.7907 68.1487L26.7686 62.682C27.1052 61.3186 26.6791 61.7553 27.5483 61.1183C27.5845 62.7438 28.2194 65.0894 28.3856 66.7255C28.4878 67.7375 28.4537 68.7516 28.5517 69.7848C28.6625 70.9374 28.4261 71.0673 28.4261 72.5437C27.8764 72.141 25.7886 68.8943 25.7886 68.1487H25.7907ZM140.927 54.0858C140.392 56.3803 136.653 60.9031 134.527 62.6288C133.504 63.4575 132.601 63.9283 131.551 64.6335C131.83 63.4319 132.569 62.4157 133.059 61.1609C133.707 59.5013 133.592 59.2457 135.119 58.2401C137.169 56.8937 138.937 55.4173 140.924 54.0858H140.927ZM9.09046 54.0858C11.0781 55.4173 12.8485 56.8958 14.8958 58.2401C16.4233 59.2435 16.3083 59.4992 16.9559 61.1609C17.4459 62.4157 18.1852 63.4298 18.4643 64.6335C15.5776 62.7012 15.5754 62.9718 12.9678 60.1703C11.9686 59.0965 9.43132 55.5537 9.09046 54.0879V54.0858ZM129.499 39.4371C130.362 40.0699 132.045 43.6617 132.641 44.81C133.391 46.2544 133.215 46.0606 132.788 47.6925C132.454 48.9771 132.403 50.2362 131.549 50.8625C131.404 49.1177 129.497 44.9847 129.497 39.4371H129.499ZM18.4643 50.8625C17.6164 50.2404 17.5929 49.1198 17.2861 47.9289C16.7258 45.741 16.6193 45.7964 18.7689 42.0852C19.2056 41.3332 19.8725 39.9058 20.5137 39.435C20.5137 41.5462 20.1899 43.536 19.8043 45.4641L18.4643 50.8604V50.8625ZM93.7572 58.7727C99.6819 47.5753 99.03 43.438 99.03 30.941H110.163C110.163 41.6187 109.473 48.9366 100.709 55.4706C99.3154 56.5102 95.7747 58.6044 93.7572 58.7727ZM39.8514 34.7502V30.941H50.985C50.985 39.4776 50.4055 42.3941 52.6786 50.6346C53.5436 53.7726 54.9049 56.212 56.2599 58.7727C54.3169 58.6108 50.7996 56.5763 49.4745 55.5963C47.6956 54.2818 45.5332 52.3474 44.2997 50.5174C41.2788 46.0371 39.8536 42.1385 39.8536 34.7481L39.8514 34.7502ZM139.167 40.023C139.167 36.6399 139.282 34.6416 140.963 32.4451L145.025 27.134C144.721 30.7962 141.645 38.3655 139.167 40.0251V40.023ZM10.848 40.023C8.36825 38.3634 5.29407 30.794 4.98942 27.1319L9.05211 32.443C10.733 34.6394 10.848 36.6399 10.848 40.0209V40.023ZM52.7425 17.7581H97.2745V20.9814H68.563C65.8169 20.9814 65.361 24.9056 67.9942 25.3572L91.4159 25.3722C95.485 25.3338 94.6349 23.8553 94.6349 35.3361C94.6349 48.3784 91.3924 57.454 82.4213 65.0169C77.5895 69.0903 72.6235 69.429 67.747 65.1533C54.7345 53.7471 55.3779 43.5211 55.3779 26.2541C55.3779 24.2729 58.7695 26.4203 60.1372 24.5519C61.2003 23.099 60.2203 20.9792 58.3072 20.9792H52.7404V17.7559L52.7425 17.7581ZM129.499 16.0005C130.865 16.9144 132.52 18.9149 133.826 20.1697C134.887 21.1902 134.983 21.024 135.258 22.8412C135.464 24.2132 135.36 25.7152 135.36 27.134C135.074 26.8059 135.415 27.2512 134.961 26.6547L129.501 16.0026L129.499 16.0005ZM14.6551 27.134C14.6551 23.3866 14.1928 22.0892 16.189 20.1718C17.4928 18.917 19.1503 16.9166 20.5158 16.0026C19.898 18.6571 16.7408 24.7373 14.6572 27.1361L14.6551 27.134Z" fill="url(#paint0_linear_42_361)"/>
<defs>
<linearGradient id="paint0_linear_42_361" x1="75" y1="0" x2="75" y2="107.7" gradientUnits="userSpaceOnUse">
<stop offset="0.192684" stop-color="#389A77"/>
<stop offset="1" stop-color="#175842"/>
</linearGradient>
</defs>
</svg>
