<svg width="107" height="108" viewBox="0 0 107 108" fill="none" xmlns="http://www.w3.org/2000/svg">
<path fill-rule="evenodd" clip-rule="evenodd" d="M19.648 57.066C21.0176 54.4797 22.3355 52.0981 23.9522 49.6671C26.1055 46.4289 27.3598 44.5251 31.144 44.5251C32.6525 44.5251 34.3845 45.5182 35.1753 46.3465C35.6648 46.8572 36.0789 47.4432 36.3731 48.0739C37.4792 50.4366 36.8273 53.2183 35.2647 54.9197C32.8008 57.6025 28.5459 56.6753 25.3783 57.1554C23.5216 57.4378 21.7283 57.0683 19.648 57.0683V57.066ZM68.1384 49.1235C68.1384 52.6817 72.3179 51.5356 72.3179 49.7495C72.3179 46.1018 68.1384 46.8384 68.1384 49.1235ZM54.1337 69.3974C45.1157 69.3974 43.2331 64.173 40.9668 64.173C39.7125 64.173 38.8771 65.225 38.8771 66.4722C38.8771 68.9268 46.7866 73.5793 52.8817 73.5793C58.8074 73.5793 61.8126 72.8851 66.5946 69.7363C70.8118 66.9594 75.149 58.3226 70.0211 58.3226C67.1029 58.3226 69.1127 62.6834 64.3825 66.0604C61.5867 68.0537 57.8708 69.3998 54.1384 69.3998L54.1337 69.3974ZM37.2038 25.296C30.4639 25.296 32.0547 17.144 36.5779 17.144C42.3012 17.144 41.9387 25.296 37.2038 25.296ZM28.4259 20.6976C28.4259 22.3731 28.4447 23.7004 29.3461 25.2136C30.0191 26.3432 30.1768 26.5644 31.0875 27.4446C35.8413 32.0406 45.1487 29.3814 45.1487 20.9094C45.1487 16.9252 41.3881 12.9669 37.4156 12.9669C34.6269 12.9669 33.0714 13.2469 30.9557 15.2872C29.6591 16.5369 28.4259 18.2995 28.4259 20.6999V20.6976ZM26.5456 81.5194C25.1807 81.5194 24.1805 81.2253 23.3498 80.324C20.947 77.7188 22.4531 73.3675 26.5456 73.3675C31.6194 73.3675 31.6876 81.5194 26.5456 81.5194ZM17.9771 76.5021C17.9771 79.1873 18.2689 81.5642 20.6411 83.6633C21.3471 84.287 22.119 84.8118 23.0768 85.1977C25.3407 86.1061 27.3293 86.1179 29.6002 85.2001C31.2852 84.5176 32.0642 83.6351 32.982 82.5196C34.9964 80.0698 35.2412 76.5304 33.8009 73.6381C31.6429 69.3056 25.8867 67.2206 20.7776 71.1507C19.655 72.0143 17.9771 74.6477 17.9771 76.5021ZM72.5274 89.8785C66.7476 89.8785 66.7593 81.7265 72.5274 81.7265C77.6012 81.7265 77.6718 89.8785 72.5274 89.8785ZM63.9589 84.8612C63.9589 87.5463 64.2507 89.9232 66.6229 92.0224C67.3288 92.646 68.0984 93.1708 69.0586 93.5567C71.3225 94.4675 73.311 94.4769 75.582 93.5591C78.3095 92.4554 80.6793 89.3466 80.6793 86.325C80.6793 84.5388 80.6299 83.701 79.7803 81.9972C77.6223 77.6647 71.8661 75.5796 66.757 79.5097C65.6345 80.3734 63.9565 83.0068 63.9565 84.8612H63.9589ZM89.2501 68.9762C87.8852 68.9762 86.885 68.682 86.0543 67.783C85.7578 67.463 85.4519 66.9876 85.3083 66.6487C84.0022 63.5541 86.1014 60.8266 89.2501 60.8266C94.3239 60.8266 94.3945 68.9785 89.2501 68.9785V68.9762ZM80.6817 63.9589C80.6817 66.644 80.9735 69.0209 83.3456 71.1201C85.826 73.3157 89.1207 73.9441 92.3048 72.6568C93.9898 71.9743 94.7687 71.0918 95.6865 69.9763C101.353 63.0858 92.4366 51.7145 83.4821 58.6074C82.3596 59.4711 80.6817 62.1044 80.6817 63.9589ZM47.4502 94.0556C41.6705 94.0556 41.6822 85.9037 47.4502 85.9037C49.6624 85.9037 51.2909 87.904 51.3474 89.8973C51.4086 92.02 49.6789 94.0533 47.4502 94.0533V94.0556ZM38.8818 89.0383C38.8818 91.7235 39.1712 94.1004 41.5457 96.1995C42.2517 96.8232 43.0236 97.348 43.9814 97.7339C47.8032 99.2683 51.3403 98.1528 53.8866 95.0558C59.5534 88.1653 50.6367 76.7939 41.6822 83.6869C40.5597 84.5505 38.8818 87.1839 38.8818 89.0383ZM40.9715 48.4904C40.7244 47.4314 40.2726 46.1559 39.7643 45.3087C38.7712 43.659 38.3452 43.6073 37.8369 42.8471C38.364 42.7059 40.2585 40.868 41.0257 40.1832C43.339 38.124 48.8058 34.0786 51.0038 32.6054C51.9404 34.0057 52.9288 34.9211 54.1314 37.0014C54.6773 37.9451 56.3388 41.2563 56.4376 42.4282C55.8493 42.7106 55.3504 42.866 54.6962 43.1954C52.044 44.5345 43.6755 47.8597 40.9692 48.4904H40.9715ZM60.4101 40.3385C58.6992 37.105 59.5652 37.225 56.3153 32.5207C55.6822 31.6053 55.0445 31.0193 54.5573 30.0968L64.7308 23.9687C72.3414 19.7656 91.154 9.82281 99.4942 9.82281H101.375C101.342 11.3336 98.847 14.1412 97.8751 15.1013C90.1915 22.6955 81.2841 28.4706 72.0732 34.0292L60.4077 40.3385H60.4101ZM52.2581 19.6456C52.2581 21.3518 52.204 21.7919 52.5523 23.5333C52.7641 24.597 53.0794 24.95 53.303 25.9173C46.5419 30.4451 43.2425 32.7184 37.0626 37.8934C34.7776 39.8066 34.9846 40.9268 33.1255 40.482C27.0774 39.0347 23.8275 42.4071 20.6976 46.8172C19.9163 47.9186 19.2267 49.0034 18.4878 50.2507C17.7441 51.5074 17.2193 52.6676 16.478 53.8843C11.2631 62.4551 15.0284 61.4479 26.5503 61.4479C33.415 61.4479 39.3101 60.0147 40.9715 52.8794C44.7651 52.564 62.1468 44.6686 65.3379 42.7577L78.5943 35.1117C84.0563 35.1117 90.0644 36.8767 94.0015 40.1855C100.716 45.8312 103.036 55.501 101.556 64.1354L100.494 69.1362C100.071 70.8047 99.626 71.932 99.0118 73.5063C96.8373 79.0837 93.6791 83.7763 89.509 88.0405L86.445 91.0387C85.2636 91.9565 84.3905 92.7472 83.148 93.5944C74.8666 99.233 66.6017 102.321 56.2211 102.617C55.1409 102.648 54.7809 102.843 53.5101 102.843C52.1805 102.843 51.7874 102.626 50.5896 102.619C40.948 102.558 28.2282 97.1832 20.9541 90.4527C7.20826 77.7329 1.23079 60.2406 5.60329 41.5504C6.02453 39.7548 6.55168 38.204 7.1353 36.6014C8.70027 32.2948 10.2605 29.5437 12.7974 25.7525C13.2775 25.0348 13.6211 24.437 14.1671 23.7781C17.1346 20.1822 20.1963 16.6969 24.0393 14.0023C25.3336 13.0939 26.5832 12.0538 28.0117 11.2866L32.1889 8.98502C37.5262 6.35635 47.7915 3.38645 53.5195 4.38191C57.1224 5.00789 57.7249 7.61303 55.7293 10.5806C55.4139 11.0512 55.1409 11.3595 54.8562 11.7973C54.5432 12.275 54.3926 12.6421 54.0961 13.1269C53.3148 14.4047 52.2581 17.6406 52.2581 19.648V19.6456ZM0.00470667 51.4156C0.00470667 57.6119 0.0376534 60.3206 1.55085 66.3805C2.00033 68.1784 2.41923 69.741 3.04992 71.3601C5.33265 77.2176 5.96335 78.7425 9.65808 84.1905C10.6888 85.7107 14.9484 90.9257 16.4263 92.053C18.1583 93.3755 19.3609 94.964 22.7002 97.2727L29.7697 101.49C39.0065 105.618 43.925 107.011 55.3904 107.011C64.4013 107.011 72.7298 104.377 79.6368 100.951C80.9617 100.294 82.1501 99.4989 83.4657 98.7176C85.5742 97.4656 87.5887 95.8348 89.4102 94.211C92.7448 91.2411 92.1165 91.627 94.7358 88.8783C100.664 82.6585 106.18 69.7104 106.18 60.8195V57.6849C106.18 50.4555 103.198 44.1273 99.9437 40.0961C97.122 36.6014 93.5073 34.3681 89.3443 32.7207L84.6541 31.3511C84.9812 30.8616 89.855 27.5034 90.7751 26.8115L96.7267 22.1049C99.9555 19.1091 105.763 14.1294 105.763 9.61336C105.763 1.34846 88.7183 7.806 84.9812 9.31449C74.876 13.3905 71.1177 15.6897 61.8715 20.6905C60.5889 21.3847 57.819 23.3262 56.8542 23.4086C56.44 20.747 56.0964 19.5821 57.1483 16.8051C58.6662 12.7974 61.2431 11.4396 61.2431 7.73305C61.2431 3.37233 57.4637 0 53.0912 0C44.5439 0 35.5636 1.8709 28.3388 6.1822C27.5669 6.64346 27.0374 6.8482 26.3361 7.31416C21.7683 10.357 21.2835 10.4723 17.2994 14.1624C15.3037 16.0121 14.5365 16.6145 12.5715 19.0479C9.88164 22.3802 6.65993 26.675 4.95847 30.6616C4.29954 32.2054 3.64296 33.4856 3.11111 35.0858L1.55085 40.0067C0.6707 43.0966 0 47.5867 0 51.4156H0.00470667Z" fill="url(#paint0_linear_42_379)"/>
<defs>
<linearGradient id="paint0_linear_42_379" x1="53.09" y1="0" x2="53.09" y2="107.011" gradientUnits="userSpaceOnUse">
<stop offset="0.192684" stop-color="#389A77"/>
<stop offset="1" stop-color="#175842"/>
</linearGradient>
</defs>
</svg>
