<svg width="141" height="117" viewBox="0 0 141 117" fill="none" xmlns="http://www.w3.org/2000/svg">
<path fill-rule="evenodd" clip-rule="evenodd" d="M16.2111 82.7253V103.891C16.2111 104.423 16.2577 104.967 16.3354 105.495L13.1203 108.391C12.0681 109.339 11.9826 110.962 12.9301 112.014C13.8775 113.066 15.5006 113.152 16.5528 112.204L18.3118 110.616C21.4142 115.105 26.6756 115.435 31.8786 115.435C38.9261 115.435 44.0321 111.451 44.7621 105.77C45.0533 103.491 45.1543 101.142 41.7762 101.142C38.9067 101.142 39.6328 104.45 38.6233 106.512C36.6779 110.48 32.1815 109.665 27.4832 109.665C25.534 109.665 23.5886 108.442 22.6179 106.737L52.4969 79.7976V112.41C52.4969 114.794 56.042 116.017 57.6262 113.416C58.1931 112.488 57.9989 111.039 57.9951 109.661V85.7462C58.8765 86.3907 63.4117 95.1855 64.4329 96.9018L69.1701 105.359C70.4747 107.688 72.9831 107.995 74.5828 105.359C76.7223 101.829 84.5813 87.1013 85.7578 85.7462V109.661C85.7268 117.415 90.1805 114.55 90.7668 113.843C91.2133 113.307 91.5317 112.251 91.5317 111.307V80.0733L99.0257 86.8334C99.2237 87.4741 99.4723 88.1186 99.7751 88.771C102.019 93.5819 105.588 95.0302 108.9 95.7369L118.669 104.547C118.44 106.885 117.586 108.558 114.992 110.034C112.558 111.416 108.644 110.993 106.295 108.64C105.355 107.7 105.592 107.809 104.889 106.749C102.45 103.072 95.337 107.941 103.891 114.068C110.756 118.984 120.215 116.169 123.41 108.822L127.161 112.204C128.214 113.152 129.837 113.066 130.784 112.014C131.731 110.962 131.646 109.339 130.594 108.391L124.509 102.905C124.315 97.3134 120.436 93.1625 116.359 91.4346C114.538 90.6619 112.488 90.6697 110.632 90.3901L104.357 84.7327C103.452 80.6324 105.914 75.8525 112.15 75.8525C116.887 75.8525 116.608 79.9762 120.122 79.9762C122.424 79.9762 123.356 77.1184 121.978 75.3711C114.348 65.6987 101.383 70.599 98.8665 79.7782L75.6933 58.8842L89.7495 46.2104C91.4385 48.9867 92.3122 52.0387 93.1819 55.7857C90.3435 55.7857 87.5013 55.7857 84.659 55.7857C80.6596 55.7857 78.6133 55.343 78.6133 58.8105C78.6133 60.1695 79.7277 61.2839 81.0867 61.2839H138.262C139.788 61.2839 140.616 60.119 140.736 58.8648V58.2086C140.616 56.9506 139.788 55.7896 138.262 55.7896H128.916V46.9948C128.916 43.838 121.675 44.7971 119.846 44.7971C119.706 43.1002 118.495 40.2696 117.885 38.7863L115.171 33.2532C117.718 29.4479 123.053 28.252 118.813 24.1128L116.654 21.9578L128.109 11.6293C129.161 10.6819 129.246 9.05882 128.299 8.00655C127.352 6.95428 125.728 6.86886 124.676 7.81629L113.02 18.3273L105.064 10.3751C100.435 5.7001 99.8722 10.9148 95.6476 13.7416C92.5801 12.1185 87.4547 9.34615 84.1037 9.07047C84.1037 6.76402 85.0007 0 81.906 0H58.8182C55.6614 0 56.6205 7.24162 56.6205 9.07047C53.3084 9.34615 48.1519 12.1147 45.0766 13.7416C41.2714 11.1944 40.0755 5.8593 35.9363 10.0994L29.1257 16.9139L19.0379 7.82017C17.9856 6.87274 16.3626 6.95816 15.4151 8.01043C14.4677 9.0627 14.5531 10.6858 15.6054 11.6332L25.4913 20.5483L22.0549 23.9847C17.5896 28.3801 22.9946 29.4324 25.5612 33.261L22.9286 38.6C22.2413 40.2347 21.0415 42.9449 20.89 44.8048C10.2664 44.8048 11.8196 43.706 11.8196 55.8012H2.47341C0.947429 55.8012 0.12037 56.9661 0 58.2203V58.8765C0.12037 60.1345 0.947429 61.2955 2.47341 61.2955H59.6492C61.4081 61.2955 62.1226 59.952 62.1226 58.2708C62.1226 55.312 59.0007 55.7973 56.0769 55.7973C53.2346 55.7973 50.3962 55.7973 47.5539 55.7973C48.6994 50.8816 49.2818 48.1636 52.1979 44.6185L67.6324 58.5348C67.6441 58.7639 67.679 58.9774 67.7256 59.1755L44.6651 79.9684C44.2612 78.5395 43.4497 76.9359 42.1101 75.2662C38.332 70.5601 32.4223 71.461 26.6717 71.461C25.0603 71.461 23.6585 72.0434 22.548 72.5598C19.0767 74.1712 16.2267 78.3842 16.2267 82.7331L16.2111 82.7253ZM21.985 100.4V82.1778C21.985 76.202 29.5994 76.9553 32.9814 76.9553C36.4721 76.9553 38.7863 79.0637 39.229 81.9759C39.3998 83.0903 39.4309 83.8474 39.7221 84.4066L21.985 100.4ZM112.457 25.7359L93.9663 42.4052C94.7506 43.5351 95.4301 44.7 95.9621 45.8571C96.7115 47.4957 97.2823 48.8625 97.888 50.8039C98.1288 51.5766 98.354 52.4309 98.5171 53.4715C98.7112 54.6946 98.3695 55.7896 99.4994 55.7896H123.414V50.5671C113.466 50.5671 116.51 51.068 113.128 42.1606C111.987 39.1552 108.846 33.6221 108.846 32.9736C108.846 30.0149 112.099 28.784 113.451 26.7183L112.457 25.7359ZM71.857 62.3439L58.4183 74.4586C59.1172 75.5963 59.7191 76.8621 60.1928 77.7785L64.0407 84.6512C65.2211 86.9382 71.36 97.0415 71.7405 98.6685C71.9425 98.4394 72.1405 98.2142 72.3502 97.9036L75.7788 91.7142C76.4622 90.4911 77.1223 89.3379 77.7746 88.2118L85.4123 74.5634L71.8609 62.3439H71.857ZM71.857 55.4362L86.5111 42.2266C85.6297 41.3762 84.6163 40.5375 83.4436 39.6911C78.4308 36.0644 74.1829 35.7305 68.4401 35.7305C63.9165 35.7305 59.1793 38.0913 55.7818 40.9491L71.857 55.444V55.4362ZM90.6852 38.4602L108.803 22.1248L101.977 15.3841C101.286 16.4169 100.346 17.1469 99.4334 18.0633C95.8689 21.6394 96.0631 20.0358 88.8758 16.6654C78.3842 11.7497 78.3376 16.8518 78.3376 5.48654H62.3944C62.3944 14.7317 63.2448 12.6311 53.9724 15.7568C50.2254 17.0188 45.9386 20.0552 44.801 20.0552C41.8499 20.0552 40.6152 16.813 38.5456 15.4501L33.3464 20.7114L51.5494 37.1245C53.7355 35.1791 55.4867 33.8279 58.6163 32.4999C64.5455 29.9877 70.7737 29.0985 77.2387 30.772C80.5625 31.634 83.9096 33.1328 86.6936 35.0626C88.041 35.9984 89.4078 37.1594 90.6852 38.4602ZM47.9616 40.7977C45.0844 44.3855 43.0303 48.8586 42.2499 53.2385C42.0635 54.283 42.3625 55.7896 41.2248 55.7896H17.31V50.5671C27.1337 50.5671 24.2992 51.0718 27.522 42.3625L29.5916 37.5593C32.1582 33.0047 33.0707 32.6436 29.8867 29.4712C28.9704 28.5588 28.2365 27.6191 27.2075 26.9279L29.7353 24.3652L47.9578 40.7977H47.9616Z" fill="url(#paint0_linear_42_376)"/>
<defs>
<linearGradient id="paint0_linear_42_376" x1="70.3679" y1="0" x2="70.3679" y2="116.527" gradientUnits="userSpaceOnUse">
<stop offset="0.192684" stop-color="#389A77"/>
<stop offset="1" stop-color="#175842"/>
</linearGradient>
</defs>
</svg>
