<svg width="103" height="115" viewBox="0 0 103 115" fill="none" xmlns="http://www.w3.org/2000/svg">
<path fill-rule="evenodd" clip-rule="evenodd" d="M71.2025 98.7471C70.1189 98.7471 69.4115 98.0396 69.4115 96.956V94.9405H73.2181V96.7315C73.2181 97.8375 72.3086 98.7471 71.2025 98.7471ZM69.9814 0H72.9177C76.1601 0.196506 79.3856 1.0499 82.4342 2.65283C88.1273 5.64814 91.6813 9.43509 94.5699 15.1506C97.7 21.3405 96.956 28.5748 96.956 35.8287C96.956 37.9369 95.0303 39.6353 92.9249 39.6353C89.7499 39.6353 86.9791 40.1742 85.4857 37.4456C84.3516 35.3739 85.9377 26.4637 84.3937 21.5174C83.1164 17.4273 79.8628 14.1625 75.9383 12.7308C71.4804 11.1026 66.3825 12.0346 62.8651 14.9513C61.4867 16.091 61.2004 16.296 60.1392 17.8231C59.3083 19.0218 58.6963 20.0885 58.2388 21.5202C57.0681 25.178 57.5426 38.605 57.5426 43.4419C60.2796 43.6692 59.5582 47.7369 59.5582 51.2796H83.0687C83.0687 47.546 82.2855 43.4419 85.0843 43.4419H96.9532C99.7268 43.4419 98.9688 47.7846 98.9688 51.726C99.6819 52.0685 99.9149 52.0516 100.577 52.5794C102.037 53.7416 103 55.4371 103 57.5482V108.154C103 111.733 100.709 114.647 97.1778 114.647H45.0055C42.406 114.647 39.6324 111.871 39.6324 109.274V87.1055C34.3661 87.1055 34.1752 86.5637 33.3386 87.9785L31.295 90.8587C19.266 103.786 0 94.4071 0 79.0431C0 65.1024 15.4903 57.0204 26.4132 63.3788C28.9425 64.8498 30.8599 66.4359 32.561 68.8753C34.4503 71.5843 32.227 70.9836 39.6324 70.9836V56.8772C39.6324 54.2188 41.5442 52.7282 43.439 51.726C43.439 47.9278 42.6727 43.672 45.4546 43.4419C45.4546 37.7713 45.4743 32.095 45.4546 26.4244C45.4209 17.5648 49.935 8.55362 57.1917 4.12663C61.1302 1.72364 65.5291 0.269494 69.9842 0.00280723L69.9814 0ZM73.2181 88.2227V90.9093H61.3492V87.1027H73.4399C73.322 87.6052 73.2153 87.6164 73.2153 88.2227H73.2181ZM79.2649 82.8497H36.7214C31.2192 82.8497 31.4999 82.5886 30.1131 85.4239C26.4778 92.8631 16.2595 95.1201 9.71582 90.1485L6.71208 87.1083C3.74484 83.0013 3.40517 77.384 5.6706 72.8476C6.56891 71.0481 7.01807 70.5765 8.34027 69.2459C12.9217 64.6364 20.2485 64.1283 25.5289 67.6205C27.3059 68.7939 28.7713 70.3014 29.8521 72.2524C31.7161 75.6183 30.8149 75.2365 35.823 75.2365H80.8313C81.651 78.754 80.5001 80.5113 79.2649 82.8497ZM78.8157 70.9808H63.5893C64.221 70.0375 65.5207 69.0073 66.6436 68.4374C71.0678 66.186 76.4605 67.4605 78.8157 70.9808ZM58.4381 70.9808H43.658V57.3208C43.658 56.2372 44.3654 55.5298 45.449 55.5298H97.3996C97.9526 55.5298 98.4495 56.0351 98.6572 56.5123C98.8565 56.9755 98.9688 57.8401 98.9688 58.4409V107.702C98.9688 109.313 98.5505 110.613 96.9532 110.613H45.6764C44.4581 110.613 43.6608 109.816 43.6608 108.598V87.1027H57.3208C57.3208 89.6544 56.6779 94.9405 61.352 94.9405H65.1586C65.1586 97.3378 65.3663 98.9379 66.4302 100.386C69.1224 104.05 75.2898 103.623 76.9573 98.6769C77.6535 96.6051 77.2521 92.1641 77.2521 89.5674C78.6136 88.8488 78.9477 88.6888 80.1351 87.7483C86.2745 82.8778 87.0072 73.263 80.8931 67.1208C74.1305 60.3301 63.3591 63.0896 59.6564 69.507C59.2915 70.1414 59.1679 70.9836 58.4465 70.9836L58.4381 70.9808ZM87.0999 47.4702H94.9376V51.2768H87.0999V47.4702ZM47.6892 47.4702H55.3024V51.2768H47.6892V47.4702ZM53.5114 24.8552V43.439H49.4802C49.4802 36.9796 48.8738 23.853 50.794 18.553C53.298 11.6332 58.817 6.51558 66.0513 4.6993C72.2665 3.14129 78.7568 4.43261 83.807 8.21676L89.0705 13.7021C89.8397 14.8559 90.4236 15.7429 91.0019 17.1437C93.6154 23.4544 92.9192 28.7067 92.9192 35.6013H89.1126C89.1126 29.6443 89.7751 23.1568 87.4732 18.2077C83.5206 9.70459 73.423 5.27759 64.0918 9.46317C58.3932 12.0177 53.5086 18.2863 53.5086 24.8552H53.5114Z" fill="url(#paint0_linear_42_388)"/>
<path fill-rule="evenodd" clip-rule="evenodd" d="M18.5812 82.8499H17.2365C13.4496 82.8499 12.307 75.2367 18.132 75.2367C23.0868 75.2367 22.545 82.8499 18.5812 82.8499ZM9.8479 79.0433C9.8479 85.7498 18.1124 89.8456 23.4601 84.8178C28.3896 80.1831 25.0182 71.2056 18.5812 71.2056C14.8925 71.2056 12.1021 72.3537 10.5778 75.9638C10.2914 76.6404 9.8479 78.204 9.8479 79.0405V79.0433Z" fill="url(#paint1_linear_42_388)"/>
<defs>
<linearGradient id="paint0_linear_42_388" x1="51.5" y1="0" x2="51.5" y2="114.647" gradientUnits="userSpaceOnUse">
<stop offset="0.192684" stop-color="#389A77"/>
<stop offset="1" stop-color="#175842"/>
</linearGradient>
<linearGradient id="paint1_linear_42_388" x1="17.8323" y1="71.2056" x2="17.8323" y2="87.0573" gradientUnits="userSpaceOnUse">
<stop offset="0.192684" stop-color="#389A77"/>
<stop offset="1" stop-color="#175842"/>
</linearGradient>
</defs>
</svg>
