<svg width="141" height="124" viewBox="0 0 141 124" fill="none" xmlns="http://www.w3.org/2000/svg">
<path fill-rule="evenodd" clip-rule="evenodd" d="M57.2254 117.754C56.2558 117.754 53.6657 116.704 53.6657 114.468C53.6657 112.957 53.7488 112.097 55.1416 111.015C59.4914 107.64 61.9985 104.204 65.3385 106.625C66.9134 107.766 67.0983 110.801 65.0894 112.475C63.4743 113.822 58.8379 117.751 57.2228 117.751L57.2254 117.754ZM123.212 46.839C123.212 50.088 128.963 50.779 128.963 46.5658C128.963 46.1453 128.435 45.1435 128.197 44.8677C126.255 42.6124 123.212 44.5677 123.212 46.8417V46.839ZM88.1644 25.2077C90.7304 25.2077 90.9339 23.5926 92.3241 21.4257L98.1229 12.1529C99.0443 10.0958 97.6301 8.04143 95.5998 8.11107C93.4892 8.18606 92.7928 10.1815 91.8821 11.6734L86.0538 20.9115C84.7092 23.5015 86.6484 25.205 88.1644 25.205V25.2077ZM67.3554 2.48093V16.9929C67.3554 20.3008 72.8329 20.3008 72.8329 16.9929V2.48093C72.8329 -0.826976 67.3554 -0.826976 67.3554 2.48093ZM41.618 10.969C41.618 11.8556 45.3679 17.4937 46.0509 18.5812C47.7062 21.2088 49.5088 25.205 51.4748 25.205C53.0095 25.205 53.9389 24.822 54.4854 23.2631C54.9273 22.0069 54.2577 21.0963 53.6175 20.0517C52.4417 18.1366 51.2337 16.3741 50.1195 14.5153L46.6026 8.99496C45.8794 8.17803 44.642 7.89411 43.5947 8.2691C42.6894 8.59319 41.618 9.71547 41.618 10.969ZM49.2838 107.621C48.3302 107.621 47.299 107.121 46.7339 106.612C42.6037 102.883 49.5275 98.8843 53.5452 95.7291C54.6996 94.8211 57.062 92.6702 58.3129 92.2631C60.145 91.6658 62.9734 92.4854 62.9734 96.1228C62.9734 98.287 59.1004 100.612 56.7621 102.506C55.5219 103.51 54.5362 104.319 53.272 105.313C52.3587 106.03 50.6257 107.621 49.2838 107.621ZM41.0689 97.4915C38.6396 97.4915 37.5092 95.7612 37.5092 93.3854C37.5092 91.3819 40.1234 89.9677 42.226 88.2454C44.1518 86.6705 45.925 85.3152 47.8508 83.7376L53.4943 79.2511C57.7638 76.1495 61.736 82.1144 57.9352 85.0634L46.3562 94.2934C45.1295 95.2871 42.909 97.4942 41.0689 97.4942V97.4915ZM33.1299 87.3615C30.5345 87.3615 26.6079 84.0911 31.7961 80.0038L38.7949 74.4058C41.1814 72.4719 41.1278 72.0273 43.809 72.0273C45.6357 72.0273 46.8196 73.779 46.8196 75.8602C46.8196 77.6708 45.2125 78.611 44.1438 79.4815C42.2528 81.0243 35.0772 87.3588 33.1299 87.3588V87.3615ZM30.1194 73.9451C29.664 73.613 26.6159 69.9408 23.8223 69.2899C23.9133 68.2025 25.0249 66.7534 25.5499 65.8159L29.2997 59.16C29.8703 58.1046 30.5158 56.894 31.164 55.8199L38.6101 42.457C39.2636 42.7704 45.7455 44.6293 46.5491 44.648C46.683 46.2605 47.449 48.1354 48.0945 49.3996C53.5104 60.0278 66.2733 55.3244 70.9177 55.3244C75.9934 55.3244 79.7406 58.2145 82.8557 60.3626L109.466 80.8448C113.189 84.2491 108.831 89.898 104.254 86.0571C102.875 84.9 97.5524 80.2395 96.106 80.2395C92.6294 80.2395 92.5008 83.4456 93.8642 84.9455C95.79 87.0615 102.676 90.6801 102.676 93.3827C102.676 95.7585 101.546 97.4888 99.1166 97.4888C95.6721 97.4888 90.4947 89.823 86.7957 89.823C85.5716 89.823 82.0039 92.0783 86.485 95.6085C87.5483 96.4442 88.5019 97.2317 89.5331 98.0352C91.8794 99.8673 96.8828 102.838 93.7249 106.336C91.8098 108.457 89.6295 107.546 87.8242 106.041C86.1609 104.656 80.7986 99.7548 78.8889 99.8298C77.6246 99.8807 76.5506 100.912 76.3149 102.05C75.8515 104.284 78.4228 105.813 80.6191 107.496C84.9636 110.83 81.5432 114.46 79.1299 114.46C76.3952 114.46 74.8497 111.709 72.2838 110.353C72.2838 106.355 70.1999 102.045 67.0822 101.319C67.4545 99.7146 70.4999 95.6969 67.2402 90.7578C66.359 89.4239 65.1965 88.0204 63.5225 87.6294C63.9403 85.8402 65.1644 84.8036 65.1644 82.1546C65.1644 77.261 61.2083 72.8442 56.4031 72.8442C53.0845 72.8442 54.8362 72.7987 52.2971 73.3906C51.2551 71.2184 52.0024 71.13 49.2222 68.5266C47.6285 67.0346 45.6678 66.274 42.9894 66.274C37.4905 66.274 32.4871 73.3076 30.122 73.9397L30.1194 73.9451ZM52.2971 44.1016C52.2971 40.8982 64.4359 40.9383 68.2929 40.3839C75.8997 39.2911 76.3282 40.3116 82.5182 42.3553C87.0207 43.8418 87.9823 44.9212 92.2732 44.9212C93.6633 44.9212 100.568 42.9445 101.584 42.457L105.258 49.1853C106.327 50.9879 116.259 67.9935 116.369 69.2899C113.516 69.9542 110.35 73.7415 110.072 73.9451C109.11 73.688 109.595 73.7924 108.88 73.2192C108.459 72.8791 108.215 72.6916 107.816 72.3648L88.1644 57.2449C81.0879 52.2736 78.7094 49.8496 69.2732 49.8496C65.7563 49.8496 58.6905 52.3218 54.6862 48.8291C53.5586 47.8434 52.2971 46.081 52.2971 44.0989V44.1016ZM14.2387 73.1255C13.3602 73.1255 8.63538 70.2863 7.3765 69.5819C4.57482 68.0123 5.28194 68.2587 6.66402 65.5508C7.1649 64.5651 7.50774 64.0535 8.0354 63.0893L25.9249 31.4218C27.4757 28.5933 27.1436 28.5049 32.396 31.4218C37.8387 34.4457 37.994 32.5762 31.1988 44.3641L17.4395 68.6632C16.7083 69.9702 15.2753 73.1282 14.2387 73.1282V73.1255ZM0 67.1016C0 71.8666 1.61244 72.7907 5.01677 74.6817L9.40142 77.1432C11.887 78.4155 13.1325 79.3422 16.2636 78.4369C18.1895 77.8798 20.3242 75.7718 20.809 73.9478C22.9893 75.1022 24.3312 75.6807 25.7374 77.7807C23.8785 81.2948 23.8223 80.3975 23.8223 84.9C23.8223 88.5668 27.84 92.7533 31.7613 92.839C31.7613 95.7907 32.3666 98.0084 34.1558 100.028C35.337 101.359 37.6432 102.918 39.9761 102.969V104.611C39.9761 108.899 43.9536 112.769 47.9178 113.099C47.9178 119.278 51.5605 123.229 57.7745 123.229C62.4163 123.229 66.9161 117.692 70.0955 115.563C74.5578 119.442 78.8085 122.495 84.8484 117.995C86.0725 117.084 87.8483 114.818 87.8912 112.826L91.7241 113.099C96.0605 113.099 100.212 108.947 100.212 104.611V102.969C104.835 102.867 108.427 98.4879 108.427 92.839C112.351 92.7506 116.369 88.5642 116.369 84.9C116.369 80.3975 116.312 81.2948 114.451 77.7807C115.857 75.6781 117.199 75.1022 119.379 73.9478C120.143 76.8084 123.884 79.5163 127.578 78.5949C128.971 78.2467 129.582 77.7619 130.79 77.1432C131.89 76.5807 132.581 76.128 133.621 75.5923C137.429 73.6264 140.191 72.2014 140.191 67.6507C140.191 64.6213 136.588 59.7037 135.086 56.8752C132.796 52.5682 129.606 55.2414 129.34 57.0654C129.145 58.4073 132.056 62.9955 132.852 64.3106C135.415 68.548 135.659 68.2962 130.698 70.7497C124.921 73.6076 126.274 74.9575 122.754 68.6605L104.029 35.6055C103.871 35.2707 103.844 35.3377 103.75 34.8475C103.402 33.0288 106.796 32.1771 109.747 30.3611C110.714 29.7665 111.296 29.3192 112.538 29.3192C113.345 29.3192 113.216 29.6459 113.57 30.2057C115.281 32.9163 117.539 38.9027 119.931 38.9027C121.396 38.9027 122.942 37.4965 122.942 36.1653C122.942 34.9466 118.131 26.3112 116.695 25.1622C111.917 21.3373 107.749 25.2506 103.683 27.313C100.057 29.1531 98.0265 30.487 98.0265 35.0725C98.0265 36.251 98.3452 36.5564 98.5729 37.5367C97.4667 37.7938 96.3685 38.1715 95.1686 38.5143C91.3866 39.5911 92.0562 39.9527 87.5403 38.1661C84.9315 37.1322 76.8827 34.2529 74.4774 34.2529L56.2076 35.9698C54.8309 36.2109 53.5399 36.4894 52.2944 36.9849C46.833 39.1572 50.248 40.1348 45.6946 38.667C44.3661 38.2385 42.9787 37.8528 41.6207 37.5367C42.2233 34.9439 42.9278 32.4797 40.3323 29.7879C39.5877 29.0138 39.5315 28.9844 38.6128 28.4942C35.4736 26.8228 31.1157 23.5712 27.6552 23.5712C22.7321 23.5712 21.1358 28.7594 18.8403 32.5547L15.6931 38.1688C14.5709 40.175 13.5155 41.916 12.4174 43.9275L1.25352 63.7026C0.618726 64.7633 0.00267847 65.5401 0.00267847 67.1043L0 67.1016Z" fill="url(#paint0_linear_42_382)"/>
<defs>
<linearGradient id="paint0_linear_42_382" x1="70.0955" y1="0" x2="70.0955" y2="123.229" gradientUnits="userSpaceOnUse">
<stop offset="0.192684" stop-color="#389A77"/>
<stop offset="1" stop-color="#175842"/>
</linearGradient>
</defs>
</svg>
