<svg width="89" height="111" viewBox="0 0 89 111" fill="none" xmlns="http://www.w3.org/2000/svg">
<path fill-rule="evenodd" clip-rule="evenodd" d="M6.48459 55.517C7.18624 55.4567 7.79736 55.2077 8.55182 54.9927C18.6993 52.0767 23.5769 51.756 33.9772 50.3942L44.5019 49.9038C46.5238 49.9038 47.8743 50.1339 49.685 50.1226C56.8977 50.0736 71.108 52.3634 78.0754 54.3476L82.5192 55.5208V98.5062L78.2414 99.6304C76.8683 99.9699 75.4122 100.358 73.9221 100.713C71.0287 101.4 67.8449 101.931 64.6535 102.46C61.6583 102.954 58.1388 103.218 55.0266 103.633L44.5019 104.123C40.5674 104.123 33.2717 103.637 29.3146 103.108C21.9812 102.128 17.9411 101.418 10.9321 99.6718L6.48082 98.5062V55.5208L6.48459 55.517ZM41.2615 71.2852C41.1898 70.8213 41.5218 69.633 42.1631 68.9502C44.2944 66.6868 47.5122 68.3127 47.6857 70.8967C47.9196 74.3446 43.1891 75.465 41.6953 72.5791C41.6425 72.4773 41.2653 71.3418 41.2577 71.289L41.2615 71.2852ZM34.7807 70.6364C34.7807 73.3336 35.3201 75.4272 36.8856 77.17C37.5043 77.8604 38.1569 78.5507 38.8774 79.0675C41.8537 81.1989 41.2615 77.7547 41.2615 89.43H47.7423C47.7423 75.9289 46.8105 82.821 52.0125 77.2832C55.7283 73.3261 54.9097 65.4193 48.9004 62.3524C42.3366 59.0026 34.7807 64.0764 34.7807 70.6364ZM42.9439 0H45.958C49.0664 0.120714 52.1106 0.618658 54.6833 1.48252C62.0092 3.94583 67.8562 7.81999 72.5226 14.1009C80.6255 24.9953 79.2788 34.6939 79.2788 47.7385C79.822 47.9988 81.048 48.244 81.7949 48.4628L89 50.7639V103.256L84.2922 104.813C72.9111 107.967 70.2931 108.326 59.0969 109.861C58.2218 109.982 57.1127 110.132 56.3809 110.166C55.1926 110.223 54.5174 110.336 53.5743 110.385C51.326 110.498 49.0664 110.57 46.7917 110.6H42.4158C34.5958 110.495 26.7381 109.812 19.1746 108.276C15.689 107.567 12.4297 106.926 9.24592 106.111C7.62383 105.692 6.11868 105.221 4.56449 104.742L0 103.256V50.7639C0.909126 50.5527 1.57682 50.2018 2.40296 49.9265L9.72123 47.7423C9.72123 41.2313 9.24592 33.5811 10.3512 28.0659C12.1016 19.3255 17.296 11.249 24.3201 6.39406C27.8585 3.9496 30.3972 2.79151 34.4751 1.4297C36.9837 0.592252 39.9261 0.120714 42.9364 0H42.9439ZM31.3252 44.0681C31.3252 37.8174 30.7367 32.2419 33.1699 28.2018C34.2676 26.3797 35.7275 24.7991 37.5156 23.6938C46.4144 18.1863 57.373 24.3653 57.6823 34.9919C57.7691 37.9569 57.6748 41.0879 57.6748 44.0718C54.5853 43.3513 41.4161 43.2608 38.4473 43.423L31.3215 44.0718L31.3252 44.0681ZM16.2058 46.2296C16.2058 37.889 15.5834 31.8269 18.3372 24.1692C21.985 14.0367 33.2944 6.48459 44.5019 6.48459C50.9488 6.48459 58.6594 9.38172 63.0277 13.4483C73.8467 23.5128 72.798 32.5286 72.798 46.2296L65.2005 44.9696C63.6803 44.7773 64.1594 44.7169 64.1594 40.3976C64.1594 34.3808 64.4461 31.5704 62.6806 27.187C60.0513 20.6534 52.8047 15.1232 45.5808 15.1232C40.2241 15.1232 36.829 15.9267 32.7738 18.9483C30.1219 20.925 27.6435 23.9089 26.3231 27.187C24.5803 31.5252 24.8444 34.2299 24.8444 40.1826C24.8444 46.3616 25.9535 44.3661 19.3557 45.709C18.4051 45.9014 17.1225 46.2107 16.2058 46.2296Z" fill="url(#paint0_linear_42_385)"/>
<defs>
<linearGradient id="paint0_linear_42_385" x1="44.5" y1="0" x2="44.5" y2="110.6" gradientUnits="userSpaceOnUse">
<stop offset="0.192684" stop-color="#389A77"/>
<stop offset="1" stop-color="#175842"/>
</linearGradient>
</defs>
</svg>
