<svg width="141" height="109" viewBox="0 0 141 109" fill="none" xmlns="http://www.w3.org/2000/svg">
<path fill-rule="evenodd" clip-rule="evenodd" d="M64.2361 17.8438V4.11792H76.3157V17.8438C75.7962 17.5697 70.7405 15.6478 70.2759 15.6478C69.8113 15.6478 64.7555 17.5697 64.2361 17.8438ZM39.2544 1.92189V15.9219C39.2544 18.5566 43.3723 18.5566 43.3723 15.9219V4.11792H59.844V20.8637C59.844 21.5765 60.0518 22.0772 60.4572 22.4466C62.5667 24.3656 67.6282 20.3154 70.2759 20.3154C72.4156 20.3154 80.7077 25.8676 80.7077 20.8652V4.11936H97.1794V50.2389H43.3738V23.6109C43.3738 21.4928 39.2559 21.5318 39.2559 23.6109V50.2389H23.3339C19.6907 50.2389 16.5352 50.9416 13.9193 52.08C12.6394 52.6369 11.4505 53.2256 10.3164 53.9672C4.84079 57.5542 0 64.2938 0 71.9265C0 76.3792 0.132743 78.8075 2.19459 82.9081C4.57242 87.6378 7.93572 91.1295 12.7188 93.5218C14.8182 94.5722 18.1396 95.8087 21.1379 95.8087H42.8255C45.5352 95.8087 45.5987 92.1886 43.3247 91.7413C37.0945 90.5134 22.4494 94.2966 13.1863 88.9364C8.77258 86.3825 5.74258 81.9529 4.60128 76.9318C2.08349 65.8535 10.8243 54.631 22.2359 54.631H118.317C125.638 54.631 131.872 59.3376 134.701 65.425C138.991 74.6535 134.789 85.7476 125.383 89.9723C121.479 91.7254 118.56 91.6922 113.101 91.6922H56.8255C55.0176 91.6922 51.1508 91.3171 49.9402 91.9447C48.3545 92.7672 48.5695 95.8087 51.0599 95.8087H119.415C129.768 95.8087 140.553 85.0363 140.553 74.6708C140.553 70.0219 140.387 67.1694 138.272 62.9505C136.259 58.935 134.594 57.6119 131.973 55.2485C128.39 52.0194 122.268 50.2374 117.218 50.2374H101.296V1.92189C101.296 0.640629 100.655 0 99.374 0H41.1763C39.895 0 39.2544 0.640629 39.2544 1.92189Z" fill="url(#paint0_linear_42_396)"/>
<path fill-rule="evenodd" clip-rule="evenodd" d="M7.96021 73.0218C7.96021 81.4611 15.1471 88.6696 23.0583 88.6696H117.493C128.925 88.6696 139.067 73.3767 127.449 61.6939C124.711 58.9395 120.708 57.374 115.297 57.374H100.748C97.8041 57.374 96.7306 61.7776 101.281 61.7819C106.738 61.7863 118.032 61.0331 121.692 62.7833C123.806 63.7933 126.034 66.0528 127.09 68.0916C130.704 75.0634 125.266 84.2761 118.042 84.2761H22.5085C19.7888 84.2761 16.7833 82.3888 15.4342 80.92C12.2166 77.4196 11.3668 72.247 13.5354 67.891C14.2294 66.4958 15.0923 65.757 16.1225 64.7124C18.1915 62.6159 20.8608 61.7502 24.9802 61.7646L89.7688 61.7661C91.6676 61.7747 94.1609 62.1975 94.1609 59.5686C94.1609 58.1517 93.0182 57.3726 91.6907 57.3726H25.2572C17.5581 57.3726 12.5961 60.5295 9.60795 66.4294C8.75811 68.1074 7.96309 70.5156 7.96309 73.0204L7.96021 73.0218Z" fill="url(#paint1_linear_42_396)"/>
<path fill-rule="evenodd" clip-rule="evenodd" d="M43.9221 72.747C43.9221 67.1574 52.4321 67.4719 52.4321 72.1973C52.4321 79.0177 43.9221 77.7696 43.9221 72.747ZM39.8042 72.1973C39.8042 84.8526 56.8241 83.4372 56.8241 72.747C56.8241 63.9283 44.7719 60.8377 40.6122 68.8888C40.1404 69.8021 39.8027 70.7761 39.8027 72.1973H39.8042Z" fill="url(#paint2_linear_42_396)"/>
<path fill-rule="evenodd" clip-rule="evenodd" d="M21.9603 73.0217C21.9603 69.1462 26.8285 67.6543 29.1284 69.9715C32.2955 73.166 29.3362 77.4138 26.3523 77.4138C23.9774 77.4138 21.9603 75.4948 21.9603 73.0217ZM17.5682 73.0217C17.5682 76.9362 21.1335 81.5317 25.2543 81.5317C28.355 81.5317 30.0879 81.4264 32.6028 78.7239C37.5735 73.381 33.4137 64.5117 26.3523 64.5117C22.7582 64.5117 19.8984 66.5101 18.4729 69.5358C18.128 70.2673 17.5668 72.1084 17.5668 73.0231L17.5682 73.0217Z" fill="url(#paint3_linear_42_396)"/>
<path fill-rule="evenodd" clip-rule="evenodd" d="M66.1579 73.297V71.9249C66.1579 70.5094 68.0365 68.6308 69.452 68.6308H71.0997C72.5152 68.6308 74.3938 70.5094 74.3938 71.9249C74.3938 75.1828 73.378 76.8666 69.7276 76.8666C68.0437 76.8666 66.1594 74.9808 66.1594 73.2985L66.1579 73.297ZM61.7659 72.4731C61.7659 77.5751 65.4495 81.2573 70.55 81.2573C74.9175 81.2573 78.7858 77.5203 78.7858 72.4731C78.7858 68.0378 75.0835 64.2373 70.0017 64.2373C65.627 64.2373 61.7659 68.1186 61.7659 72.4731Z" fill="url(#paint4_linear_42_396)"/>
<path fill-rule="evenodd" clip-rule="evenodd" d="M93.0602 76.8655C89.8022 76.8655 88.1184 75.8497 88.1184 72.1993C88.1184 67.4826 96.6284 67.1493 96.6284 72.749C96.6284 74.5901 94.8868 76.8669 93.0602 76.8669V76.8655ZM83.7263 72.7476C83.7263 75.1903 84.8662 77.2926 86.1186 78.5911C93.1078 85.8372 104.02 77.3056 100.029 69.0726C96.0209 60.8021 83.7263 63.8394 83.7263 72.7476Z" fill="url(#paint5_linear_42_396)"/>
<path fill-rule="evenodd" clip-rule="evenodd" d="M110.081 73.0217C110.081 71.8963 110.637 70.856 111.292 70.1143C114.802 66.1479 121.437 71.9944 117.44 75.9882C114.332 79.0947 110.081 76.5769 110.081 73.0217ZM105.689 73.0217C105.689 76.9362 109.255 81.5317 113.375 81.5317C116.476 81.5317 118.209 81.4264 120.724 78.7239C125.695 73.381 121.535 64.5117 114.473 64.5117C112.162 64.5117 109.54 65.7309 108.366 66.9141C107.008 68.2819 105.688 71.094 105.688 73.0217H105.689Z" fill="url(#paint6_linear_42_396)"/>
<path d="M18.2868 16.5653C17.3359 15.7097 17.258 14.2438 18.1137 13.2929C18.9693 12.3421 20.4352 12.2642 21.3861 13.1212L122.139 103.965C123.09 104.821 123.168 106.287 122.311 107.237C121.456 108.188 119.99 108.266 119.039 107.409L18.2853 16.5653H18.2868Z" fill="url(#paint7_linear_42_396)"/>
<path d="M116.799 13.1202C117.75 12.2645 119.216 12.341 120.072 13.2919C120.927 14.2427 120.851 15.7086 119.9 16.5643L19.1467 107.408C18.1959 108.264 16.7299 108.187 15.8743 107.236C15.0187 106.286 15.0952 104.82 16.046 103.964L116.799 13.1202Z" fill="url(#paint8_linear_42_396)"/>
<defs>
<linearGradient id="paint0_linear_42_396" x1="70.2766" y1="0" x2="70.2766" y2="95.8087" gradientUnits="userSpaceOnUse">
<stop offset="0.192684" stop-color="#389A77"/>
<stop offset="1" stop-color="#175842"/>
</linearGradient>
<linearGradient id="paint1_linear_42_396" x1="70.2754" y1="57.3726" x2="70.2754" y2="88.6696" gradientUnits="userSpaceOnUse">
<stop offset="0.192684" stop-color="#389A77"/>
<stop offset="1" stop-color="#175842"/>
</linearGradient>
<linearGradient id="paint2_linear_42_396" x1="48.3134" y1="64.229" x2="48.3134" y2="81.2297" gradientUnits="userSpaceOnUse">
<stop offset="0.192684" stop-color="#389A77"/>
<stop offset="1" stop-color="#175842"/>
</linearGradient>
<linearGradient id="paint3_linear_42_396" x1="26.1732" y1="64.5117" x2="26.1732" y2="81.5317" gradientUnits="userSpaceOnUse">
<stop offset="0.192684" stop-color="#389A77"/>
<stop offset="1" stop-color="#175842"/>
</linearGradient>
<linearGradient id="paint4_linear_42_396" x1="70.2758" y1="64.2373" x2="70.2758" y2="81.2573" gradientUnits="userSpaceOnUse">
<stop offset="0.192684" stop-color="#389A77"/>
<stop offset="1" stop-color="#175842"/>
</linearGradient>
<linearGradient id="paint5_linear_42_396" x1="92.3046" y1="64.2271" x2="92.3046" y2="81.327" gradientUnits="userSpaceOnUse">
<stop offset="0.192684" stop-color="#389A77"/>
<stop offset="1" stop-color="#175842"/>
</linearGradient>
<linearGradient id="paint6_linear_42_396" x1="114.294" y1="64.5117" x2="114.294" y2="81.5317" gradientUnits="userSpaceOnUse">
<stop offset="0.192684" stop-color="#389A77"/>
<stop offset="1" stop-color="#175842"/>
</linearGradient>
<linearGradient id="paint7_linear_42_396" x1="70.213" y1="12.5259" x2="70.213" y2="108.004" gradientUnits="userSpaceOnUse">
<stop offset="0.192684" stop-color="#389A77"/>
<stop offset="1" stop-color="#175842"/>
</linearGradient>
<linearGradient id="paint8_linear_42_396" x1="67.9731" y1="12.5254" x2="67.9731" y2="108.003" gradientUnits="userSpaceOnUse">
<stop offset="0.192684" stop-color="#389A77"/>
<stop offset="1" stop-color="#175842"/>
</linearGradient>
</defs>
</svg>
