<svg width="109" height="108" viewBox="0 0 109 108" fill="none" xmlns="http://www.w3.org/2000/svg">
<path fill-rule="evenodd" clip-rule="evenodd" d="M29.446 13.4822C31.6394 13.4822 33.1862 12.2176 35.1332 11.3102C38.8807 9.56331 46.1826 7.51275 50.3266 7.41272C53.5311 7.3377 52.4057 7.03405 55.5316 7.38415C57.2571 7.57705 57.5929 7.24125 60.9581 7.79854C69.3961 9.19535 75.6442 11.8246 82.2924 16.7867L86.44 20.2734C89.0764 22.9419 91.2127 25.4319 93.324 28.6613C97.2965 34.7273 100.644 44.0905 100.644 51.8891C100.644 57.2048 100.712 60.6486 99.2042 65.9465C97.9895 70.2119 97.8574 70.1262 96.2498 73.9986L94.3993 77.5389C93.6562 78.7714 93.0239 79.7609 92.1987 80.9541L87.1152 87.1022C84.0858 90.0637 78.0306 94.5792 74.1724 96.1725C72.9542 96.6762 71.7681 97.2335 70.3856 97.7765C60.8009 101.545 48.8762 101.556 39.1843 98.2981C35.2475 96.9763 31.9931 95.433 28.8101 93.3968C24.4589 90.6139 20.1113 86.6735 16.989 82.5331C11.9519 75.8527 9.28691 69.6189 7.87582 61.3238C7.52929 59.2732 7.40426 56.5403 7.21135 54.3469L7.77579 47.2985C8.52599 42.5651 9.36908 39.6608 11.1481 35.3989C11.9626 33.4484 13.4916 31.3656 13.4916 29.6545C13.4916 27.361 11.8376 26.0606 9.44767 26.0606C6.26824 26.0606 3.54964 34.4343 2.67798 37.035C-0.869412 47.6486 -1.07304 61.756 3.15668 72.3303C4.96789 76.8601 7.0363 81.3864 9.95852 85.2946C10.4551 85.959 10.8123 86.4234 11.3089 87.0879C11.8662 87.8381 12.3056 88.2847 12.8164 88.9491L16.0137 92.4894C16.6639 93.086 17.0426 93.2682 17.7035 93.9433L21.2223 96.937C21.9439 97.5014 22.4833 97.8265 23.1835 98.3445C34.7224 106.9 52.245 110.176 66.7668 106.511C80.9635 102.928 93.6955 93.7361 100.79 81.0148C105.87 71.9088 108.046 63.9316 108.046 53.0072C108.046 45.5052 105.72 36.6278 103.18 31.5943C101.805 28.8685 100.297 25.7498 98.4504 23.2956C96.1176 20.1948 93.7991 17.0296 90.8162 14.5325C89.773 13.6608 88.9907 12.7034 87.3509 11.4853C86.665 10.978 86.1292 10.5707 85.4254 10.042C83.6821 8.73094 79.0808 5.9409 77.116 5.10138C67.7671 1.11102 62.805 0 52.345 0C45.9933 0 39.0628 1.79334 34.4402 3.65813C30.1783 5.37289 24.9697 6.95189 26.4166 11.0959C26.8095 12.2176 28.0742 13.4787 29.4352 13.4787L29.446 13.4822ZM18.4394 22.0167C22.1404 22.0167 23.6337 16.7295 19.7898 15.0469C14.5062 12.7285 12.4306 22.0167 18.4394 22.0167ZM43.1461 89.3957V90.5174C43.1461 92.1714 44.9823 93.6611 46.7399 93.6611H61.1153C62.8693 93.6611 64.7091 92.1714 64.7091 90.5174C64.7091 87.7845 63.4909 86.2484 60.4436 86.2484H47.4151C45.3145 86.2484 43.1461 87.4344 43.1461 89.3921V89.3957ZM35.9584 75.0203V76.1421C35.9584 77.7961 37.7946 79.2858 39.5523 79.2858H68.3029C73.3757 79.2858 73.3757 71.8731 68.3029 71.8731H39.7773C37.9697 71.8731 35.9584 73.2842 35.9584 75.0168V75.0203ZM54.1526 57.5013C49.2942 57.5013 49.2835 50.5387 54.1526 50.5387C58.6932 50.5387 58.6181 57.5013 54.1526 57.5013ZM43.1461 53.9075C43.1461 58.3408 45.5432 61.8668 49.4299 63.7959C56.9963 67.5469 63.7767 60.8093 64.0339 57.7264C66.9347 57.7264 72.7898 58.3194 74.5403 56.7761C76.5373 55.0149 76.1157 50.3922 71.9075 50.3029C69.3175 50.2493 66.6382 50.3136 64.0375 50.3136C63.7874 47.3093 58.9575 43.126 53.9312 43.126C48.1153 43.126 43.1497 48.1059 43.1497 53.9075H43.1461ZM14.3954 52.7857C14.3954 55.1614 14.8134 57.7264 18.4394 57.7264C23.5586 57.7264 28.5064 58.7159 28.8458 54.2683C29.1923 49.7456 24.5661 50.3136 22.0297 50.3136C22.0297 45.9196 24.266 40.9754 26.2272 37.4387C26.9524 36.1312 27.8955 35.1381 28.5457 33.9163C30.4784 35.2131 30.9928 37.2851 33.7114 37.2851C36.3907 37.2851 38.9985 34.0521 36.012 30.7155C35.2975 29.9188 34.5116 29.383 33.9365 28.5256C36.2692 27.2895 36.7194 26.2393 41.1848 24.3209C43.4319 23.3563 47.2758 22.0131 50.3302 22.0131C50.3302 24.3709 49.7443 28.9757 53.924 28.9757C58.3038 28.9757 57.7429 24.5745 57.7429 22.0131C60.7187 22.0131 64.6984 23.367 66.874 24.3352C68.4601 25.0389 71.0072 26.3464 72.3755 27.3681C72.9185 27.7718 73.4686 28.347 74.1366 28.5256C73.1614 29.9831 71.1537 30.9548 70.6928 32.9625C70.3463 34.4808 71.3252 37.2851 74.8083 37.2851C77.041 37.2851 77.7662 34.3843 79.5238 33.9163L81.728 37.328C82.4067 38.3747 83.1534 39.9715 83.7178 41.1754C84.5966 43.0581 86.0363 47.7165 86.0363 50.3136C83.9 50.3136 81.753 50.0171 80.3705 51.1603C78.227 52.9322 78.4807 57.7228 83.3391 57.7228C88.7585 57.7228 93.6705 58.7159 93.6705 53.2323C93.6705 40.486 86.7865 28.8114 76.9195 21.6916C66.2845 14.0181 53.3631 12.4534 40.8562 16.5902C35.3154 18.4229 30.0926 21.9131 26.0057 25.9963C19.3646 32.6374 14.3812 42.5508 14.3812 52.7786L14.3954 52.7857Z" fill="url(#paint0_linear_42_393)"/>
<defs>
<linearGradient id="paint0_linear_42_393" x1="54.0229" y1="0" x2="54.0229" y2="107.995" gradientUnits="userSpaceOnUse">
<stop offset="0.192684" stop-color="#389A77"/>
<stop offset="1" stop-color="#175842"/>
</linearGradient>
</defs>
</svg>
