<svg width="107" height="107" viewBox="0 0 107 107" fill="none" xmlns="http://www.w3.org/2000/svg">
<path fill-rule="evenodd" clip-rule="evenodd" d="M7.94121 34.7313C7.94121 32.041 11.1652 31.3323 13.1684 30.3469C14.2899 29.7937 15.2147 29.381 16.4399 28.8127C17.4555 28.3416 18.8558 27.6912 19.7353 27.0926C23.3439 24.6357 23.9166 16.4525 25.6258 13.3408C26.9915 10.8558 29.7704 12.0011 33.2083 12.3901C41.7805 13.3625 40.9507 14.1749 47.3901 8.56531C48.3323 7.74418 51.7918 4.43156 53.0797 4.43156C54.8171 4.43156 55.2211 4.6671 56.8937 6.25966C57.7299 7.05702 58.5921 7.70745 59.4932 8.46591C65.9045 13.8551 64.5777 13.5116 73.5972 12.4095C81.2662 11.4739 80.808 10.253 83.6345 20.4761C84.3281 22.9827 85.0001 25.3942 87.0162 26.9176C88.4489 28.0002 94.7414 30.6905 96.8288 31.732C97.4705 32.0519 97.8725 32.2247 98.3068 32.7628C99.8886 34.7119 98.3932 37.0716 97.4252 40.6262C95.2297 48.6949 94.8364 47.7095 101.06 57.1763C104.666 62.6671 102.056 62.1593 97.2264 66.9651C92.6929 71.4727 91.9452 69.7634 91.9517 78.6165C91.9538 80.436 91.7269 81.6245 91.7377 83.2084C91.7723 88.3145 90.6098 87.3097 82.7572 88.6473C74.9024 89.9827 76.0584 90.2485 71.6805 96.7981C71.0344 97.7662 70.425 98.6759 69.7573 99.6829C68.4911 101.595 68.3333 101.814 66.2459 101.814C65.5026 101.814 61.0512 99.6829 60.0334 99.2485C52.9544 96.2255 54.0607 96.1888 46.958 99.2464C39.3106 102.54 39.5008 103.642 35.4038 96.9191C30.1939 88.3729 30.5007 89.7407 20.269 88.0206C18.9811 87.8046 17.3129 87.7592 16.3729 87.1109C15.2147 86.3114 15.2428 85.2828 15.2579 83.4201C15.2709 81.8405 15.044 80.6434 15.044 78.8261C15.0483 71.0383 14.9684 71.3257 8.62837 66.0165C8.15946 65.6232 7.92825 65.2775 7.45934 64.8863C3.71886 61.7552 3.25644 61.2388 5.76521 57.4248C12.6692 46.923 11.7941 48.6625 8.77531 37.8646C8.63269 37.3525 7.93905 35.1246 7.93905 34.7292L7.94121 34.7313ZM106.998 59.8256V61.6904C106.652 64.0047 105.027 66.0402 102.698 67.8381C102.084 68.3113 101.857 68.6808 101.293 69.1519L97.0816 72.8816C95.448 74.5152 96.1286 79.5543 96.1286 82.5882C96.1286 84.4552 96.1762 85.916 95.6316 87.3162C93.4189 93.0058 86.543 92.0809 80.3629 93.3623C78.5867 93.7297 78.3144 94.4687 77.4889 95.7134C76.0347 97.9023 74.7338 99.9444 73.2688 102.151C71.9312 104.165 70.0923 106.204 66.8726 106.204C63.1213 106.204 55.595 101.399 53.916 101.399C51.9755 101.399 48.7255 103.114 46.8802 103.977C43.0662 105.759 39.9935 107.514 36.0607 104.834C34.2542 103.603 30.7644 97.6149 29.4246 95.588C28.4782 94.1597 28.2318 93.6065 26.2762 93.3018C21.9977 92.6341 16.2195 92.3294 13.5768 90.3285C8.50952 86.4886 12.2586 76.8381 10.3765 73.4672C10.0416 72.8686 4.75608 68.1946 4.17913 67.7538L1.79785 65.5368C0.706606 64.3742 0.133974 63.0172 0 61.6083V60.2685C0.118848 58.985 0.56831 57.6971 1.2922 56.5065C1.91237 55.4822 2.50229 54.5012 3.13543 53.5439C7.35345 47.165 7.03797 47.9883 6.01803 43.9756C5.47349 41.832 3.76208 36.7301 3.76208 35.1549C3.76208 28.9726 7.43125 28.4237 11.9129 26.1678C18.4301 22.8876 17.4253 25.096 19.6704 17.8333C19.9838 16.8177 20.3792 15.5925 20.645 14.6287C20.9518 13.5159 21.1917 12.6558 21.6606 11.6727C22.257 10.4215 22.4234 10.2875 23.3504 9.39077C27.348 5.52713 33.9733 8.8203 39.7082 8.8203C40.363 8.8203 41.2338 8.18716 41.6379 7.82413L49.229 1.41282C53.1532 -1.27963 56.4766 0.261076 59.4975 2.82171C60.9323 4.03612 65.8181 8.8203 67.5014 8.8203L74.7511 7.92137C78.4332 7.38332 81.1387 6.89928 83.857 9.60037C87.0551 12.7769 87.4614 22.0427 89.7325 23.5791C91.6729 24.8929 98.3867 27.3628 100.377 28.817C104.848 32.0864 103.028 36.8036 101.749 41.188C99.921 47.4567 99.6422 46.7933 102.024 50.577C102.67 51.6034 103.223 52.5737 103.865 53.5439C104.524 54.5422 105.142 55.5686 105.788 56.6361C106.462 57.7511 106.851 58.8143 107 59.8299L106.998 59.8256Z" fill="url(#paint0_linear_42_364)"/>
<path fill-rule="evenodd" clip-rule="evenodd" d="M18.3912 53.1229C18.3912 47.9692 19.826 42.1371 21.5223 38.7013C23.0306 35.6436 24.4092 33.1954 26.6025 30.6174C27.0066 30.142 27.2119 29.9973 27.5857 29.5111C30.0685 26.2676 35.5982 22.8642 39.0772 21.1485C42.4871 19.4673 48.3841 18.0174 53.4989 18.0174C72.7847 18.0174 88.6066 33.8393 88.6066 53.1251C88.6066 72.4066 72.7782 88.2328 53.4989 88.2328C48.3841 88.2328 42.4849 86.7829 39.0772 85.1017C35.73 83.4508 30.142 80.0518 27.6743 76.8601C24.4762 72.7264 24.5043 73.5907 21.5223 67.5468C19.826 64.1088 18.3912 58.2766 18.3912 53.1251V53.1229ZM14.212 51.0334C14.212 58.3695 14.7047 63.5772 17.972 70.0512C19.3074 72.6961 21.3797 76.2551 23.3547 78.4613C23.8085 78.967 24.0397 79.1247 24.4503 79.665C27.0584 83.0813 32.8733 86.785 36.5706 88.652C46.6079 93.7193 60.3899 93.7193 70.4272 88.652C73.0548 87.3252 76.6483 85.2314 78.8373 83.2693L81.3461 80.9723C83.1936 79.1247 84.004 77.9967 85.5339 75.9655C89.324 70.935 92.7879 62.1359 92.7879 55.2147C92.7879 47.8785 92.2952 42.6708 89.028 36.1968C87.9886 34.1375 86.9838 32.2165 85.6268 30.4035C84.9872 29.55 84.3281 28.5495 83.6452 27.7867C79.4056 23.0587 76.389 20.6061 70.4293 17.596C60.3878 12.5266 46.6122 12.5266 36.5728 17.596C34.5134 18.6354 32.5924 19.6402 30.7795 20.9972C29.9259 21.6368 28.9254 22.2959 28.1626 22.9787C24.8457 25.9543 24.2925 26.5312 21.4661 30.2825C17.6759 35.313 14.212 44.1121 14.212 51.0334Z" fill="url(#paint1_linear_42_364)"/>
<path fill-rule="evenodd" clip-rule="evenodd" d="M25.2866 54.7929C25.2866 49.4815 25.5026 45.7626 27.9315 40.9288C29.5024 37.802 31.1469 35.4531 33.4892 33.1107C37.9277 28.6723 45.0715 24.908 51.8264 24.908C57.1378 24.908 60.8567 25.1241 65.6906 27.5529C71.7065 30.576 75.9807 34.7854 78.9951 40.7883C84.2222 51.1972 81.9814 64.6551 73.5086 73.1279C69.0702 77.5664 61.9263 81.3306 55.1714 81.3306C49.86 81.3306 46.1412 81.1145 41.3073 78.6857C35.2914 75.6626 31.0172 71.4533 28.0028 65.4504C26.7603 62.9783 25.2866 58.4815 25.2866 54.7908V54.7929ZM20.8978 52.0767C20.8978 57.8484 21.7125 62.3171 23.9598 66.9867C25.7144 70.6343 27.8688 73.5709 30.5634 76.2655C40.0756 85.7842 54.4865 88.4399 67.08 82.7935C77.4609 78.139 86.1 66.6691 86.1 53.7471C86.1 39.7965 78.4894 28.763 67.2226 23.5143C50.9685 15.9404 31.7497 23.0734 23.9598 39.2562C22.4731 42.3441 20.8978 47.6188 20.8978 52.0767Z" fill="url(#paint2_linear_42_364)"/>
<path fill-rule="evenodd" clip-rule="evenodd" d="M48.9007 60.2271C47.5998 59.3563 40.4106 51.5317 39.1184 50.5723C37.5842 49.4335 35.4492 50.5377 35.6545 52.4069C35.8187 53.9022 40.6008 58.0943 41.8476 59.339C49.845 67.3364 47.8375 67.4552 55.5367 59.756L67.8667 47.4261C68.6597 46.633 70.4078 45.0772 70.9437 44.228C71.8729 42.7608 71.1188 40.79 69.1718 40.79C68.0266 40.79 67.0758 42.1557 66.4037 42.8277L53.9701 55.2614C52.7492 56.4823 50.0956 59.4254 48.9028 60.2249L48.9007 60.2271Z" fill="url(#paint3_linear_42_364)"/>
<defs>
<linearGradient id="paint0_linear_42_364" x1="53.5" y1="0" x2="53.5" y2="106.211" gradientUnits="userSpaceOnUse">
<stop offset="0.192684" stop-color="#389A77"/>
<stop offset="1" stop-color="#175842"/>
</linearGradient>
<linearGradient id="paint1_linear_42_364" x1="53.5" y1="13.7939" x2="53.5" y2="92.4525" gradientUnits="userSpaceOnUse">
<stop offset="0.192684" stop-color="#389A77"/>
<stop offset="1" stop-color="#175842"/>
</linearGradient>
<linearGradient id="paint2_linear_42_364" x1="53.4989" y1="20.4844" x2="53.4989" y2="85.7329" gradientUnits="userSpaceOnUse">
<stop offset="0.192684" stop-color="#389A77"/>
<stop offset="1" stop-color="#175842"/>
</linearGradient>
<linearGradient id="paint3_linear_42_364" x1="53.4901" y1="40.79" x2="53.4901" y2="65.4354" gradientUnits="userSpaceOnUse">
<stop offset="0.192684" stop-color="#389A77"/>
<stop offset="1" stop-color="#175842"/>
</linearGradient>
</defs>
</svg>
