<svg width="23" height="19" viewBox="0 0 23 19" fill="none" xmlns="http://www.w3.org/2000/svg">
<path d="M21.0312 14.5781C21.2656 15.0859 21.6172 15.5938 22.0078 16.1016C22.2422 16.4922 22.4375 16.6875 22.5156 16.7266C22.6328 16.8828 22.7109 17.0391 22.75 17.1953C22.75 17.3906 22.75 17.5469 22.6719 17.7031C22.5938 17.8594 22.5156 18.0156 22.3594 18.0938C22.2031 18.2109 22.0078 18.25 21.8516 18.25C20.1328 18.25 18.5312 17.7422 16.9688 16.7266C16.1875 16.9219 15.4062 17 14.625 17C12.9453 17 11.4219 16.6484 10.0938 15.9453C8.72656 15.2422 7.75 14.3438 7.125 13.1719C6.73438 13.1328 6.38281 13.0547 6.03125 12.9766C4.46875 13.9922 2.86719 14.5 1.14844 14.5C0.953125 14.5 0.796875 14.4609 0.640625 14.3438C0.484375 14.2656 0.40625 14.1094 0.328125 13.9531C0.25 13.7969 0.210938 13.6406 0.25 13.4453C0.289062 13.2891 0.367188 13.1328 0.484375 13.0156C0.601562 12.8984 0.796875 12.6641 1.03125 12.3516C1.38281 11.8438 1.69531 11.3359 1.96875 10.8281C0.796875 9.73438 0.25 8.44531 0.25 7C0.25 5.90625 0.601562 4.85156 1.34375 3.875C2.04688 2.9375 3.02344 2.15625 4.27344 1.60938C5.52344 1.0625 6.89062 0.75 8.375 0.75C10.0156 0.75 11.5391 1.10156 12.9062 1.80469C14.2344 2.50781 15.25 3.44531 15.875 4.57812C17.125 4.73438 18.2969 5.125 19.3516 5.71094C20.4062 6.29688 21.2266 7.03906 21.8516 7.89844C22.4375 8.79688 22.75 9.73438 22.75 10.75C22.75 12.1953 22.1641 13.4844 21.0312 14.5781ZM5.79688 11.6484L6.30469 11.7656C6.96875 11.9219 7.67188 12 8.375 12C9.625 12 10.7578 11.8047 11.8125 11.3359C12.8672 10.9062 13.6875 10.3203 14.3125 9.53906C14.9375 8.75781 15.25 7.9375 15.25 7C15.25 6.10156 14.9375 5.28125 14.3125 4.5C13.6875 3.71875 12.8672 3.13281 11.8125 2.66406C10.7578 2.23438 9.625 2 8.375 2C7.125 2 5.95312 2.23438 4.89844 2.66406C3.84375 3.13281 3.02344 3.71875 2.39844 4.5C1.77344 5.28125 1.5 6.10156 1.5 7C1.5 8.09375 1.92969 9.07031 2.86719 9.92969L3.49219 10.5938L3.10156 11.4141C2.78906 12.0391 2.39844 12.625 1.92969 13.2109C3.10156 13.0938 4.27344 12.6641 5.36719 11.9219L5.79688 11.6484ZM17.6328 15.6719C18.7266 16.4141 19.8594 16.8438 21.0703 16.9609C20.6016 16.375 20.2109 15.75 19.8984 15.125L19.5078 14.3438L20.1328 13.6797C21.0312 12.8203 21.5 11.8438 21.5 10.75C21.5 9.61719 20.9922 8.60156 20.0547 7.70312C19.0781 6.80469 17.8672 6.21875 16.3828 5.90625C16.4609 6.29688 16.5 6.6875 16.5 7C16.5 8.09375 16.1484 9.14844 15.4453 10.0859C14.7422 11.0234 13.7656 11.8047 12.5938 12.3516C11.3828 12.8984 10.0938 13.2109 8.6875 13.25C9.27344 14.0312 10.0938 14.6172 11.1484 15.0859C12.2031 15.5547 13.375 15.75 14.625 15.75C15.3281 15.75 15.9922 15.6719 16.6953 15.5156L17.2031 15.3984L17.6328 15.6719ZM16.1484 5.24219H16.1875H16.1484Z" fill="white"/>
</svg>
