<svg width="29" height="34" viewBox="0 0 29 34" fill="none" xmlns="http://www.w3.org/2000/svg">
<path fill-rule="evenodd" clip-rule="evenodd" d="M10.1854 23.6566L12.1674 26.8282C12.506 27.3341 13.6116 29.2749 14.005 29.4999C15.0967 30.1247 15.6693 28.6175 16.3256 27.615C16.513 27.3295 16.6422 27.1045 16.8272 26.8282C17.0088 26.5578 17.1566 26.3037 17.33 26.0426C17.4988 25.7885 17.6605 25.5239 17.8316 25.2558C17.927 25.1066 17.9724 25.011 18.0748 24.8548C18.2436 24.5972 18.7568 23.8535 18.8092 23.6566C19.5308 23.6566 21.0926 23.9689 21.7955 24.1461C23.2794 24.5215 25.6838 25.2418 26.6428 26.3818C27.7146 27.6558 26.0085 28.6991 24.9657 29.1793C23.8799 29.6794 23.511 29.7691 22.4054 30.0955C21.9398 30.2331 21.458 30.3403 20.9494 30.4417C19.142 30.8031 16.4257 31.07 14.4973 31.07C13.9003 31.07 13.4755 31.0012 12.8237 31.0047C10.9023 31.0152 7.13739 30.3904 5.3044 29.7062C4.16736 29.2819 1.00996 28.065 2.32389 26.4168C3.23166 25.2791 5.73268 24.5168 7.14787 24.1589C7.87408 23.9759 9.43591 23.6566 10.1854 23.6566ZM14.4973 26.7501C14.3088 26.6114 12.7178 24.0144 12.4374 23.5924C10.751 21.056 9.01461 18.0767 7.30265 15.5228C5.09957 12.2345 5.38121 7.77012 8.1115 4.82106C8.25581 4.66603 8.25232 4.60309 8.40245 4.46788C8.81444 4.09487 9.40449 3.59365 9.88514 3.3104C11.234 2.51544 11.6797 2.33127 13.266 2.05501L14.4985 1.93495C14.9698 1.93495 16.314 2.14127 16.7516 2.25667C17.351 2.41519 18.1307 2.72758 18.6381 3.00967L19.4272 3.50856C20.0638 3.97132 20.0836 4.0669 20.5223 4.4096C20.712 4.5588 20.6829 4.58094 20.8249 4.75113C21.3382 5.37124 21.4138 5.35026 21.962 6.25479C22.1319 6.53571 22.2669 6.85393 22.4158 7.1535C22.6591 7.64306 22.9244 8.52195 23.0315 9.17937C23.6274 12.8068 22.2983 14.5821 20.6899 17.0929L19.1607 19.4929C18.5916 20.4266 14.6602 26.6313 14.4996 26.749L14.4973 26.7501ZM3.87874 10.1853C3.87874 14.5751 5.19617 15.8107 7.40507 19.3507L8.96224 21.7869C8.48741 21.8976 7.99861 21.9524 7.49701 22.0596C5.59652 22.4676 2.59157 23.3745 1.25436 24.7021C0.254648 25.6941 -0.378463 26.9133 0.25232 28.3191C1.9573 32.1202 10.3809 33.0014 13.6605 33.0014C16.9285 33.0014 20.577 32.8196 23.6914 31.7694C25.4487 31.1772 28.9762 29.7913 28.9762 27.3947C28.9762 26.0951 28.6143 25.5705 27.7391 24.7021C27.2363 24.2032 26.2529 23.6414 25.5651 23.3348C24.7539 22.9723 23.8694 22.6786 22.9419 22.4175C21.6896 22.0643 21.067 22.0293 20.0312 21.7869L21.5628 19.3892C23.2421 16.7677 25.1147 14.356 25.1147 11.0222C25.1147 8.70263 24.84 7.81208 23.9299 5.76406C23.6495 5.13462 22.559 3.66242 22.0411 3.14372L21.3998 2.5609C20.0184 1.22392 17.067 0 15.0117 0C12.7434 0 11.0338 0.322881 9.21595 1.41391C8.6934 1.72747 8.15805 2.07366 7.69369 2.46765L6.43678 3.72187C5.48363 4.79542 4.56888 6.56718 4.22555 7.95196C4.06728 8.59189 3.87874 9.43115 3.87874 10.183V10.1853Z" fill="white"/>
<path fill-rule="evenodd" clip-rule="evenodd" d="M11.6018 10.7659C11.5703 10.5619 11.7519 9.86022 11.8496 9.59562C12.0789 8.96851 12.6527 8.39152 13.2567 8.10477C16.0673 6.76896 18.7836 10.2763 16.5666 12.709C16.4118 12.8792 15.9719 13.1881 15.7391 13.2988C14.2739 13.9947 12.5596 13.328 11.9043 11.9455C11.7426 11.604 11.6576 11.1284 11.6018 10.7659ZM9.67101 10.5083V10.8953C9.67101 13.321 11.8834 15.5357 14.3041 15.5357H14.6905C17.1112 15.5357 19.3236 13.3198 19.3236 10.8953V10.5083C19.3236 8.08379 17.1112 5.86792 14.6905 5.86792H14.3041C11.8834 5.86792 9.67101 8.08379 9.67101 10.5083Z" fill="white"/>
</svg>
