<svg width="228" height="49" viewBox="0 0 228 49" fill="none" xmlns="http://www.w3.org/2000/svg">
<path d="M27.2425 31.6473C27.0442 31.3 26.492 30.2156 26.492 29.6911C26.492 29.1666 27.0442 28.0821 27.2354 27.7419L29.0478 24.602C30.1027 22.7662 28.7858 20.4769 26.669 20.4769H23.0442C20.9274 20.4769 19.6106 22.7662 20.6655 24.602L22.4779 27.7419C22.6761 28.0821 23.2212 29.1666 23.2212 29.6911C23.2212 30.2156 22.669 31.3071 22.4708 31.6473L20.6726 34.766C19.6106 36.6018 20.9345 38.9053 23.0584 38.9053H26.6549C28.7788 38.9053 30.1027 36.6088 29.0407 34.766L27.2425 31.6473ZM3.02301 31.5127C3.02301 32.2215 3.59646 32.7956 4.30442 32.7956C5.01239 32.7956 5.58584 32.2215 5.58584 31.5127C5.58584 30.8039 5.01239 30.2298 4.30442 30.2298C3.59646 30.2298 3.02301 30.8039 3.02301 31.5127ZM9.79115 12.7156C9.79115 12.0919 9.28849 11.5887 8.66549 11.5887C8.04248 11.5887 7.53982 12.0919 7.53982 12.7156C7.53982 13.3394 8.04248 13.8426 8.66549 13.8426C9.28849 13.8426 9.79115 13.3394 9.79115 12.7156ZM5.54336 17.5141C5.54336 16.5643 4.77168 15.7918 3.82301 15.7918C2.87434 15.7918 2.10265 16.5643 2.10265 17.5141C2.10265 18.4639 2.87434 19.2365 3.82301 19.2365C4.77168 19.2365 5.54336 18.4639 5.54336 17.5141ZM12.7434 20.8525C12.7434 19.52 11.6602 18.4355 10.3292 18.4355C8.99823 18.4355 7.91504 19.5129 7.91504 20.8525C7.91504 22.185 8.99115 23.2695 10.3292 23.2695C11.6602 23.2695 12.7434 22.1921 12.7434 20.8525ZM5.59292 25.1265C5.59292 23.5813 4.33982 22.3268 2.79646 22.3268C1.2531 22.3268 0 23.5813 0 25.1265C0 26.6716 1.2531 27.9262 2.79646 27.9262C4.33982 27.9262 5.59292 26.6716 5.59292 25.1265ZM17.7982 29.6911C17.7982 27.1182 15.7168 25.0344 13.1469 25.0344C10.577 25.0344 8.49557 27.1182 8.49557 29.6911C8.49557 32.264 10.577 34.3478 13.1469 34.3478C15.7168 34.3478 17.7982 32.264 17.7982 29.6911ZM68.977 9.85214C73.3664 9.85214 77.5929 10.2207 81.5575 10.887C81.5504 10.7806 81.5434 10.6743 81.508 10.568L78.8389 1.50263C78.5841 0.623732 77.6142 0 76.5097 0H59.5681C58.3221 0 57.2814 0.786753 57.1823 1.80032L56.3752 10.0222C56.3752 10.3199 56.446 10.5964 56.5451 10.8657C60.4743 10.2136 64.6442 9.85214 68.977 9.85214ZM89.3451 15.3594C83.6319 13.1763 76.5876 11.8864 68.9628 11.8864C61.0832 11.8864 53.8265 13.2614 48.0142 15.5791C46.5487 20.1012 45.7416 24.928 45.7416 29.9462C45.7416 34.9574 46.5416 39.7842 48.0142 44.3134C53.8265 46.6311 61.0832 48.0061 68.9628 48.0061C77.069 48.0061 84.5168 46.546 90.4142 44.1078C91.5611 40.0677 92.1841 35.8079 92.1841 31.3993C92.1841 25.7644 91.1787 20.3634 89.3451 15.3594ZM59.5965 36.8782C55.7734 36.8782 52.6726 33.7737 52.6726 29.9462C52.6726 26.1188 55.7734 23.0143 59.5965 23.0143C63.4195 23.0143 66.5203 26.1188 66.5203 29.9462C66.5203 33.7737 63.4195 36.8782 59.5965 36.8782ZM78.6761 36.8782C74.8531 36.8782 71.7522 33.7737 71.7522 29.9462C71.7522 26.1188 74.8531 23.0143 78.6761 23.0143C82.4991 23.0143 85.6 26.1188 85.6 29.9462C85.6 33.7737 82.4991 36.8782 78.6761 36.8782ZM105.246 29.8895C105.246 24.198 99.9292 19.1514 91.7451 16.0328C93.4867 20.7816 94.4425 25.9132 94.4425 31.2717C94.4425 35.4606 93.8478 39.5078 92.7575 43.3423C100.361 40.2024 105.239 35.3401 105.239 29.8895H105.246ZM45.7487 16.2879C37.869 19.4208 32.7858 24.3752 32.7858 29.9462C32.7858 35.5173 37.8761 40.4646 45.7487 43.6046C44.354 39.3022 43.5894 34.7164 43.5894 29.9462C43.5894 25.1761 44.354 20.5903 45.7487 16.2879Z" fill="url(#paint0_linear_99_1254)"/>
<path d="M113.034 32.6188C113.034 30.9532 113.565 29.564 114.627 28.4583C115.703 27.3313 116.991 26.7714 118.499 26.7714C120.198 26.7714 121.494 27.4376 122.393 28.7701H122.442V20.5411H124.75V38.2395H122.442V36.5243H122.393C121.494 37.8426 120.227 38.5018 118.591 38.5018C117.027 38.5018 115.71 37.9489 114.648 36.8361C113.572 35.7092 113.034 34.3058 113.034 32.6259V32.6188ZM116.34 29.7057C115.674 30.4429 115.342 31.421 115.342 32.6472C115.342 33.8663 115.674 34.8373 116.34 35.5603C117.005 36.2833 117.869 36.6448 118.931 36.6448C119.979 36.6448 120.821 36.2904 121.473 35.5745C122.138 34.8586 122.471 33.8876 122.471 32.6472C122.471 31.4281 122.138 30.4429 121.473 29.6986C120.835 28.9686 119.993 28.6071 118.931 28.6071C117.869 28.6071 117.005 28.9757 116.34 29.7128V29.7057ZM138.535 33.0512H129.218C129.296 34.1002 129.664 34.9649 130.308 35.6454C130.988 36.3258 131.858 36.666 132.92 36.666C134.471 36.666 135.766 36.0281 136.793 34.7594L138.074 36.0423C137.565 36.7369 136.842 37.3252 135.901 37.8001C134.959 38.275 133.933 38.5159 132.821 38.5159C131.172 38.5159 129.798 37.9631 128.687 36.8503C127.561 35.7233 127.002 34.3199 127.002 32.6401C127.002 30.9248 127.554 29.5214 128.665 28.4299C129.777 27.3171 131.207 26.7643 132.97 26.7643C134.619 26.7643 135.936 27.3596 136.935 28.5504C137.947 29.727 138.478 31.2225 138.527 33.0441L138.535 33.0512ZM129.338 31.4068H136.255C136.163 30.6272 135.795 29.968 135.165 29.4293C134.535 28.8906 133.77 28.6213 132.885 28.6213C131.922 28.6213 131.115 28.9048 130.485 29.4789C129.848 30.0176 129.473 30.6626 129.345 31.4068H129.338ZM152.552 32.6897C152.552 34.3412 152.021 35.7162 150.959 36.829C149.897 37.9418 148.609 38.4947 147.087 38.4947C145.395 38.4947 144.092 37.8497 143.193 36.5668H143.143V43.605H140.835V27.069H143.143V28.7843H143.193C144.078 27.4518 145.345 26.7855 146.995 26.7855C148.545 26.7855 149.862 27.3455 150.938 28.4724C152.014 29.5994 152.552 31.0028 152.552 32.6826V32.6897ZM149.246 35.5887C149.911 34.8586 150.244 33.8805 150.244 32.6614C150.244 31.4423 149.911 30.4641 149.246 29.7199C148.581 28.9828 147.717 28.6142 146.655 28.6142C145.607 28.6142 144.758 28.9828 144.099 29.7199C143.441 30.457 143.115 31.4352 143.115 32.6614C143.115 33.8805 143.441 34.8586 144.092 35.5887C144.743 36.3187 145.6 36.6802 146.662 36.6802C147.724 36.6802 148.588 36.3116 149.253 35.5887H149.246ZM157.586 29.0466V38.2253H155.278V29.0466H153.494V27.069H155.278V23.8795H157.586V27.069H160.411V29.0466H157.586ZM172.51 31.0241V38.2324H170.209V31.3359C170.209 29.6065 169.416 28.7418 167.83 28.7418C166.959 28.7418 166.23 29.0324 165.642 29.6207C165.041 30.2231 164.743 30.9107 164.743 31.6903V38.2324H162.435V20.534H164.743V28.5008H164.765C165.161 27.9763 165.678 27.5581 166.322 27.2392C166.966 26.9202 167.639 26.7643 168.354 26.7643C169.685 26.7643 170.711 27.1328 171.434 27.87C172.156 28.6071 172.517 29.6561 172.517 31.0241H172.51ZM180.517 35.1634C180.517 34.7523 180.368 34.4192 180.064 34.164C179.766 33.9088 179.271 33.6678 178.591 33.4269L177.572 33.0725C176.715 32.789 176.078 32.4133 175.66 31.9455C175.242 31.4777 175.03 30.8398 175.03 30.0318C175.03 29.0962 175.391 28.3165 176.12 27.6999C176.85 27.0832 177.763 26.7714 178.853 26.7714C180.212 26.7714 181.359 27.1612 182.273 27.9338L181.345 29.4577C180.566 28.8056 179.766 28.4795 178.945 28.4795C178.407 28.4795 177.968 28.6071 177.628 28.8623C177.288 29.1174 177.119 29.4647 177.119 29.9113C177.119 30.6059 177.77 31.1729 179.065 31.5982C179.589 31.7541 180.014 31.903 180.34 32.0376C180.665 32.1723 181.034 32.3779 181.444 32.6472C181.855 32.9165 182.166 33.2497 182.372 33.6466C182.577 34.0435 182.683 34.5113 182.683 35.05C182.683 36.099 182.28 36.9424 181.473 37.5945C180.665 38.2112 179.674 38.523 178.499 38.523C176.871 38.523 175.54 38.0623 174.506 37.1409L175.554 35.6383C176.474 36.4179 177.458 36.8007 178.499 36.8007C179.073 36.8007 179.547 36.6448 179.936 36.34C180.326 36.0281 180.517 35.6383 180.517 35.1634Z" fill="#2B2A29"/>
<path d="M194.258 33.7387C194.258 32.548 193.543 31.662 192.12 31.0737L189.628 30.053C188.474 29.5782 187.618 29.0253 187.073 28.4016C186.527 27.7778 186.251 26.9131 186.251 25.8216C186.251 24.5387 186.719 23.4471 187.653 22.5612C188.616 21.6752 189.812 21.2286 191.242 21.2286C193.147 21.2286 194.775 21.8169 196.142 22.9864L194.903 24.7938C193.777 23.8299 192.602 23.3408 191.384 23.3408C190.591 23.3408 189.94 23.5535 189.437 23.9858C188.927 24.4111 188.68 25.0136 188.68 25.7932C188.68 26.3036 188.835 26.7147 189.14 27.0336C189.451 27.3526 189.926 27.6432 190.577 27.9125L192.906 28.8623C194.06 29.3513 194.945 29.8829 195.547 30.4571C196.368 31.1871 196.779 32.2786 196.779 33.7387C196.779 35.2272 196.219 36.4179 195.094 37.3039C193.982 38.1616 192.637 38.5868 191.051 38.5868C189.94 38.5868 188.885 38.4026 187.865 38.0269C186.853 37.6583 186.011 37.1905 185.345 36.6377L186.697 34.7806C187.993 35.9076 189.423 36.4676 190.973 36.4676C191.844 36.4676 192.602 36.2549 193.253 35.8226C193.919 35.3619 194.251 34.6672 194.251 33.7316L194.258 33.7387ZM208.467 38.2324H199.511V21.583H208.396V23.8157H202.025V28.5504H207.965V30.7831H202.025V35.9927H208.467V38.2254V38.2324ZM210.655 29.9042C210.655 27.4305 211.476 25.368 213.126 23.7165C214.775 22.0508 216.842 21.2216 219.327 21.2216C221.812 21.2216 223.88 22.0508 225.529 23.7165C227.179 25.368 228 27.4305 228 29.9042C228 32.392 227.179 34.4617 225.529 36.1132C223.88 37.7646 221.812 38.5868 219.327 38.5868C216.842 38.5868 214.775 37.7646 213.126 36.1132C211.476 34.4617 210.655 32.392 210.655 29.9042ZM214.881 25.2191C213.742 26.4241 213.168 27.9834 213.168 29.9042C213.168 31.8037 213.742 33.3773 214.881 34.6105C216.057 35.8509 217.536 36.4676 219.327 36.4676C221.133 36.4676 222.605 35.8509 223.745 34.6105C224.899 33.3914 225.48 31.8179 225.48 29.9042C225.48 27.9834 224.899 26.4241 223.745 25.2191C222.605 23.9787 221.133 23.3621 219.327 23.3621C217.536 23.3621 216.057 23.9787 214.881 25.2191Z" fill="url(#paint1_linear_99_1254)"/>
<defs>
<linearGradient id="paint0_linear_99_1254" x1="52.623" y1="0" x2="52.623" y2="48.0061" gradientUnits="userSpaceOnUse">
<stop class="theam-control--first-color" offset="0.192684" stop-color="#00AFF2"/>
<stop class="theam-control--second-color" offset="1" stop-color="#015FBF"/>
</linearGradient>
<linearGradient id="paint1_linear_99_1254" x1="182.308" y1="30.294" x2="231.717" y2="30.294" gradientUnits="userSpaceOnUse">
<stop class="theam-control--first-color" stop-color="#00AFF2"/>
<stop class="theam-control--second-color" offset="1" stop-color="#015FBF"/>
</linearGradient>
</defs>
</svg>
