<svg id="logo-2" width="304" height="65" viewBox="0 0 304 65" fill="none" xmlns="http://www.w3.org/2000/svg">
<path d="M36.3221 42.1951C36.0578 41.732 35.3216 40.2862 35.3216 39.5868C35.3216 38.8875 36.0578 37.4416 36.3127 36.988L38.7291 32.8016C40.1356 30.354 38.3799 27.3016 35.5576 27.3016H30.7247C27.9024 27.3016 26.1467 30.354 27.5531 32.8016L29.9695 36.988C30.2338 37.4416 30.9607 38.8875 30.9607 39.5868C30.9607 40.2862 30.2244 41.7415 29.9601 42.1951L27.5625 46.3532C26.1467 48.8008 27.9118 51.8721 30.7436 51.8721H35.5387C38.3705 51.8721 40.1356 48.8102 38.7197 46.3532L36.3221 42.1951ZM4.03055 42.0155C4.03055 42.9606 4.79513 43.726 5.73905 43.726C6.68297 43.726 7.44755 42.9606 7.44755 42.0155C7.44755 41.0705 6.68297 40.3051 5.73905 40.3051C4.79513 40.3051 4.03055 41.0705 4.03055 42.0155ZM13.0544 16.9536C13.0544 16.122 12.3843 15.4511 11.5536 15.4511C10.723 15.4511 10.0528 16.122 10.0528 16.9536C10.0528 17.7853 10.723 18.4562 11.5536 18.4562C12.3843 18.4562 13.0544 17.7853 13.0544 16.9536ZM7.39091 23.3514C7.39091 22.0851 6.36204 21.055 5.09718 21.055C3.83233 21.055 2.80345 22.0851 2.80345 23.3514C2.80345 24.6177 3.83233 25.6478 5.09718 25.6478C6.36204 25.6478 7.39091 24.6177 7.39091 23.3514ZM16.9906 27.8025C16.9906 26.0258 15.5464 24.5799 13.7718 24.5799C11.9973 24.5799 10.5531 26.0164 10.5531 27.8025C10.5531 29.5791 11.9878 31.025 13.7718 31.025C15.5464 31.025 16.9906 29.5885 16.9906 27.8025ZM7.45699 33.5009C7.45699 31.4408 5.78625 29.7681 3.72849 29.7681C1.67074 29.7681 0 31.4408 0 33.5009C0 35.5611 1.67074 37.2337 3.72849 37.2337C5.78625 37.2337 7.45699 35.5611 7.45699 33.5009ZM23.7302 39.5868C23.7302 36.1564 20.9551 33.3781 17.5286 33.3781C14.1022 33.3781 11.3271 36.1564 11.3271 39.5868C11.3271 43.0173 14.1022 45.7956 17.5286 45.7956C20.9551 45.7956 23.7302 43.0173 23.7302 39.5868ZM91.9664 13.1358C97.8187 13.1358 103.454 13.6272 108.74 14.5155C108.73 14.3737 108.721 14.232 108.674 14.0902L105.115 2.00344C104.775 0.831617 103.482 0 102.01 0H79.4216C77.7603 0 76.3728 1.04897 76.2406 2.40035L75.1646 13.3626C75.1646 13.7595 75.259 14.128 75.3911 14.4871C80.6299 13.6177 86.1896 13.1358 91.9664 13.1358ZM119.123 20.4786C111.506 17.5679 102.114 15.848 91.9475 15.848C81.4416 15.848 71.7664 17.6813 64.0168 20.7715C62.0629 26.8007 60.9868 33.2363 60.9868 39.927C60.9868 46.6083 62.0535 53.0439 64.0168 59.0826C71.7664 62.1728 81.4416 64.0061 91.9475 64.0061C102.755 64.0061 112.685 62.0594 120.548 58.8085C122.078 53.4219 122.908 47.7424 122.908 41.8643C122.908 34.3514 121.568 27.1504 119.123 20.4786ZM79.4594 49.1693C74.3622 49.1693 70.2278 45.0301 70.2278 39.927C70.2278 34.8239 74.3622 30.6848 79.4594 30.6848C84.5566 30.6848 88.691 34.8239 88.691 39.927C88.691 45.0301 84.5566 49.1693 79.4594 49.1693ZM104.898 49.1693C99.8009 49.1693 95.6666 45.0301 95.6666 39.927C95.6666 34.8239 99.8009 30.6848 104.898 30.6848C109.995 30.6848 114.13 34.8239 114.13 39.927C114.13 45.0301 109.995 49.1693 104.898 49.1693ZM140.324 39.8514C140.324 32.2629 133.235 25.5344 122.323 21.3763C124.645 27.708 125.919 34.5499 125.919 41.6942C125.919 47.2793 125.126 52.6754 123.673 57.7879C133.81 53.6015 140.314 47.1186 140.314 39.8514H140.324ZM60.9963 21.7165C50.4904 25.8935 43.7131 32.4992 43.7131 39.927C43.7131 47.3549 50.4999 53.9511 60.9963 58.1376C59.1368 52.4013 58.1173 46.287 58.1173 39.927C58.1173 33.5671 59.1368 27.4528 60.9963 21.7165Z" fill="white"/>
<path class="theam-control--text" d="M150.707 43.4903C150.707 41.2695 151.415 39.4172 152.83 37.943C154.265 36.4404 155.983 35.6939 157.994 35.6939C160.259 35.6939 161.987 36.5822 163.185 38.3588H163.251V27.3871H166.329V50.9843H163.251V48.6973H163.185C161.987 50.455 160.297 51.3339 158.116 51.3339C156.03 51.3339 154.275 50.5968 152.859 49.1131C151.424 47.6105 150.707 45.7394 150.707 43.4997V43.4903ZM155.115 39.6062C154.227 40.5891 153.784 41.8932 153.784 43.5281C153.784 45.1535 154.227 46.4482 155.115 47.4121C156.002 48.376 157.154 48.858 158.57 48.858C159.967 48.858 161.09 48.3855 161.958 47.431C162.846 46.4765 163.289 45.1818 163.289 43.5281C163.289 41.9026 162.846 40.5891 161.958 39.5968C161.109 38.6234 159.985 38.1415 158.57 38.1415C157.154 38.1415 156.002 38.6329 155.115 39.6157V39.6062ZM184.707 44.0667H172.285C172.389 45.4653 172.879 46.6183 173.738 47.5255C174.645 48.4327 175.806 48.8863 177.221 48.8863C179.289 48.8863 181.016 48.0358 182.385 46.3442L184.093 48.0547C183.414 48.9808 182.451 49.7652 181.195 50.3983C179.94 51.0315 178.571 51.3528 177.089 51.3528C174.89 51.3528 173.059 50.6157 171.577 49.132C170.076 47.6294 169.33 45.7583 169.33 43.5186C169.33 41.2317 170.067 39.3605 171.548 37.9052C173.03 36.4215 174.937 35.6844 177.288 35.6844C179.487 35.6844 181.243 36.4782 182.573 38.0658C183.923 39.6346 184.631 41.6286 184.697 44.0573L184.707 44.0667ZM172.445 41.8743H181.667C181.545 40.8348 181.054 39.9559 180.214 39.2377C179.374 38.5195 178.354 38.1604 177.174 38.1604C175.891 38.1604 174.814 38.5384 173.974 39.3038C173.125 40.022 172.625 40.882 172.455 41.8743H172.445ZM203.396 43.5848C203.396 45.7867 202.688 47.62 201.273 49.1037C199.857 50.5874 198.139 51.3245 196.109 51.3245C193.853 51.3245 192.117 50.4645 190.918 48.754H190.852V58.1381H187.774V36.0908H190.852V38.3777H190.918C192.098 36.6011 193.787 35.7128 195.987 35.7128C198.054 35.7128 199.81 36.4593 201.244 37.9619C202.679 39.4645 203.396 41.3356 203.396 43.5753V43.5848ZM198.988 47.4499C199.876 46.4765 200.319 45.1724 200.319 43.547C200.319 41.9215 199.876 40.6174 198.988 39.6251C198.101 38.6423 196.949 38.1509 195.534 38.1509C194.137 38.1509 193.004 38.6423 192.126 39.6251C191.248 40.608 190.814 41.9121 190.814 43.547C190.814 45.1724 191.248 46.4765 192.117 47.4499C192.985 48.4233 194.127 48.9052 195.543 48.9052C196.959 48.9052 198.11 48.4138 198.998 47.4499H198.988ZM210.108 38.7274V50.9654H207.031V38.7274H204.652V36.0908H207.031V31.8382H210.108V36.0908H213.874V38.7274H210.108ZM230.006 41.364V50.9748H226.938V41.7798C226.938 39.4739 225.881 38.321 223.766 38.321C222.605 38.321 221.633 38.7085 220.85 39.4928C220.047 40.2961 219.651 41.2128 219.651 42.2523V50.9748H216.574V27.3777H219.651V37.9997H219.679C220.208 37.3004 220.897 36.7428 221.756 36.3176C222.615 35.8923 223.511 35.6844 224.465 35.6844C226.239 35.6844 227.608 36.1758 228.571 37.1586C229.534 38.1415 230.015 39.5401 230.015 41.364H230.006ZM240.681 46.8829C240.681 46.3348 240.483 45.8906 240.077 45.5504C239.681 45.2102 239.02 44.8889 238.114 44.5676L236.755 44.0951C235.613 43.7171 234.763 43.2162 234.206 42.5925C233.649 41.9688 233.366 41.1183 233.366 40.0409C233.366 38.7935 233.847 37.754 234.82 36.9318C235.792 36.1097 237.01 35.6939 238.463 35.6939C240.275 35.6939 241.805 36.2136 243.022 37.2437L241.786 39.2755C240.747 38.4061 239.681 37.9713 238.586 37.9713C237.868 37.9713 237.283 38.1415 236.83 38.4817C236.377 38.8219 236.151 39.2849 236.151 39.8803C236.151 40.8064 237.019 41.5624 238.746 42.1294C239.445 42.3373 240.011 42.5358 240.445 42.7153C240.88 42.8949 241.37 43.169 241.918 43.5281C242.465 43.8872 242.881 44.3313 243.154 44.8605C243.428 45.3897 243.57 46.0135 243.57 46.7317C243.57 48.1303 243.032 49.2549 241.956 50.1243C240.88 50.9465 239.558 51.3623 237.991 51.3623C235.82 51.3623 234.046 50.748 232.667 49.5195L234.064 47.516C235.292 48.5556 236.604 49.0659 237.991 49.0659C238.756 49.0659 239.388 48.858 239.907 48.4516C240.427 48.0358 240.681 47.516 240.681 46.8829V46.8829Z" fill="#56CCF2"/>
<path d="M259.003 44.9837C259.003 43.3961 258.05 42.2148 256.152 41.4304L252.83 40.0696C251.291 39.4365 250.149 38.6993 249.422 37.8677C248.695 37.0361 248.327 35.8832 248.327 34.4279C248.327 32.7174 248.95 31.262 250.196 30.0808C251.48 28.8995 253.075 28.3041 254.982 28.3041C257.521 28.3041 259.692 29.0885 261.514 30.6478L259.862 33.0576C258.361 31.7723 256.794 31.1203 255.171 31.1203C254.113 31.1203 253.245 31.4038 252.575 31.9803C251.895 32.5473 251.565 33.3505 251.565 34.39C251.565 35.0705 251.772 35.6186 252.178 36.0438C252.594 36.4691 253.226 36.8565 254.094 37.2157L257.2 38.482C258.739 39.134 259.918 39.8428 260.721 40.6083C261.816 41.5816 262.363 43.037 262.363 44.9837C262.363 46.9683 261.618 48.5559 260.117 49.7372C258.635 50.8806 256.841 51.4476 254.727 51.4476C253.245 51.4476 251.839 51.2019 250.479 50.7011C249.129 50.2097 248.006 49.586 247.119 48.8488L248.922 46.3729C250.649 47.8755 252.556 48.622 254.623 48.622C255.784 48.622 256.794 48.3385 257.663 47.7621C258.55 47.1478 258.993 46.2217 258.993 44.9743L259.003 44.9837ZM277.947 50.9751H266.007V28.7766H277.853V31.7534H269.358V38.0662H277.277V41.043H269.358V47.9889H277.947V50.9657V50.9751ZM280.864 39.8712C280.864 36.573 281.959 33.823 284.158 31.6211C286.358 29.4003 289.114 28.2947 292.427 28.2947C295.74 28.2947 298.497 29.4003 300.696 31.6211C302.895 33.823 303.99 36.573 303.99 39.8712C303.99 43.1882 302.895 45.9476 300.696 48.1495C298.497 50.3514 295.74 51.4476 292.427 51.4476C289.114 51.4476 286.358 50.3514 284.158 48.1495C281.959 45.9476 280.864 43.1882 280.864 39.8712ZM286.499 33.6246C284.98 35.2311 284.215 37.3102 284.215 39.8712C284.215 42.4038 284.98 44.5018 286.499 46.1461C288.066 47.7999 290.039 48.622 292.427 48.622C294.834 48.622 296.798 47.7999 298.317 46.1461C299.856 44.5207 300.63 42.4227 300.63 39.8712C300.63 37.3102 299.856 35.2311 298.317 33.6246C296.798 31.9708 294.834 31.1486 292.427 31.1486C290.039 31.1486 288.066 31.9708 286.499 33.6246Z" fill="white"/>
</svg>
