<svg width="21" height="21" viewBox="0 0 21 21" fill="none" xmlns="http://www.w3.org/2000/svg">
<path d="M0.9375 1.4375C0.703125 1.51562 0.46875 1.63281 0.273438 1.86719C0.117188 2.10156 0 2.375 0 2.60938C0 5.89062 0.820312 8.89844 2.46094 11.6719C4.02344 14.3672 6.17188 16.5156 8.86719 18.0781C11.6406 19.7188 14.6484 20.5 17.8906 20.5C18.1641 20.5 18.3984 20.4219 18.6328 20.2266C18.8672 20.0703 19.0234 19.8359 19.0625 19.5625L19.9609 15.6172C20.0391 15.3438 20.0391 15.0703 19.8828 14.7969C19.7656 14.5625 19.5703 14.3672 19.2578 14.2109L15.0391 12.4141C14.8047 12.3359 14.5312 12.2969 14.2578 12.375C14.0234 12.4531 13.7891 12.5703 13.5938 12.7656L11.875 14.875C10.5469 14.2109 9.33594 13.3516 8.24219 12.2578C7.1875 11.2031 6.32812 9.99219 5.625 8.625L7.73438 6.90625C7.96875 6.75 8.08594 6.51562 8.16406 6.24219C8.24219 6.00781 8.20312 5.73438 8.08594 5.46094L6.28906 1.24219C6.17188 0.96875 5.97656 0.773438 5.70312 0.617188C5.46875 0.5 5.19531 0.460938 4.88281 0.539062L0.9375 1.4375ZM17.8516 19.25C14.8828 19.25 12.0703 18.5078 9.49219 16.9844C6.99219 15.5391 5 13.5469 3.51562 11.0078C2.03125 8.46875 1.25 5.69531 1.25 2.64844L5.15625 1.75L6.95312 5.96875L4.10156 8.27344C5.03906 10.3047 6.13281 11.9453 7.34375 13.1562C8.59375 14.4062 10.1953 15.4609 12.2266 16.3984L14.5312 13.5469L18.75 15.3438L17.8516 19.25Z" fill="white"/>
</svg>
