<svg width="119" height="103" viewBox="0 0 119 103" fill="none" xmlns="http://www.w3.org/2000/svg">
<path d="M61.2537 51.8437C58.6144 66.6441 50.8639 79.4344 40.019 88.5216C29.1753 97.6099 15.2362 102.999 0.222826 102.999L0.22171 98.9957C14.274 98.9957 27.3142 93.9558 37.4559 85.4569C47.5987 76.958 54.8474 64.9968 57.3148 51.1562L61.2527 51.8437H61.2537Z" fill="#BDBDBD"/>
<path d="M57.3154 51.1558C59.9547 36.3554 67.7052 23.5651 78.5501 14.4779C89.3938 5.38958 103.332 0 118.346 0L118.347 4.00378C104.295 4.00378 91.255 9.04364 81.1133 17.5425C70.9705 26.0414 63.7217 38.0027 61.2543 51.8432L57.3165 51.1558H57.3154Z" fill="#BDBDBD"/>
</svg>
