<svg width="132" height="131" viewBox="0 0 132 131" fill="none" xmlns="http://www.w3.org/2000/svg">
<path fill-rule="evenodd" clip-rule="evenodd" d="M49.7997 120.565H82.4486C85.0603 120.565 87.1236 121.369 88.2426 123.443C88.7236 124.334 88.72 124.915 89.0804 125.666H43.1679C43.4893 124.996 43.5461 124.35 43.9186 123.611C44.2861 122.882 44.6286 122.426 45.2734 121.905C46.3858 121.006 47.874 120.565 49.7997 120.565ZM63.5734 29.505C63.5734 34.2086 68.6749 32.6756 68.6749 30.5253C68.6749 25.8219 63.5734 27.3548 63.5734 29.505ZM63.8285 92.7623C63.8285 93.6833 63.7856 94.0962 64.4008 94.7406C65.6635 96.0631 68.9299 96.2172 68.9299 92.5071C68.9299 91.1846 66.4943 89.4316 64.534 91.1721C64.073 91.5815 63.8285 91.9615 63.8285 92.7623ZM23.7827 40.7281C23.7827 42.2506 25.0401 43.4011 26.3666 43.4606C29.6296 43.6069 29.9058 38.4212 26.5612 38.2502C25.2535 38.1835 23.7827 39.4434 23.7827 40.7281ZM23.7827 50.9309V69.2959C23.7827 72.5514 29.1391 73.629 29.1391 68.2756V51.9511C29.1391 46.5977 23.7827 47.6753 23.7827 50.9309ZM65.6922 0.172119H66.6147C67.1548 0.281468 67.6574 0.582133 68.0601 1.04194L73.5211 10.3749C75.0208 10.3749 84.0311 10.1363 85.0089 10.6203C86.4958 11.3564 87.3008 13.6121 85.3199 15.0317C84.171 15.8552 78.2163 15.4763 76.582 15.4763L80.4222 22.0939C85.7751 31.0258 85.2466 28.7297 82.4808 36.4242C81.9534 37.8913 79.8979 42.8496 79.8979 44.044V80.2638H92.1412V2.2127C92.1412 1.46506 93.4341 0.172119 94.1817 0.172119H115.608C116.355 0.172119 117.648 1.46506 117.648 2.2127V10.3749H121.474C126.365 10.3749 131.422 15.4312 131.422 20.3226V94.0376C131.422 97.1884 129.365 100.387 127.702 102.051C126.038 103.714 122.839 105.771 119.689 105.771H79.8979V115.463H84.234C89.1254 115.463 94.1817 120.52 94.1817 125.411V128.727C94.1817 129.475 92.8888 130.768 92.1412 130.768H40.1071C39.3595 130.768 38.0665 129.475 38.0665 128.727V125.411C38.0665 120.52 43.1229 115.463 48.0142 115.463H52.3504V105.771H12.5596C6.88769 105.771 0.826416 99.7094 0.826416 94.0376V20.3226C0.826416 17.9415 1.90789 16.0497 3.0068 14.5958C7.42423 8.75141 14.4286 10.3749 21.9972 10.3749L24.5836 4.79912C25.3924 2.80237 26.267 0.172119 28.1188 0.172119C31.2063 0.172119 31.5013 3.58516 33.4716 7.57279L34.7506 10.3749L48.5403 10.359C51.9473 10.5419 51.7849 15.0054 49.0126 15.4544L37.0462 15.4763C38.1531 17.5681 38.9408 19.7124 40.0192 21.9409C41.2381 24.4595 42.4027 26.4364 42.4027 28.995V80.2638H52.3504V44.044C52.3504 42.9915 49.0178 33.2783 48.4254 31.3825C47.9372 29.8199 47.9504 29.4563 48.7243 28.1761L63.5165 1.90064C64.1417 0.875202 64.9202 0.326744 65.6922 0.172119ZM57.4518 105.771H74.7965V115.463H57.4518V105.771ZM5.92777 91.742V85.3652H126.32C126.32 92.2427 127.524 100.669 117.393 100.669H14.8553C9.09284 100.669 5.92777 97.5043 5.92777 91.742ZM117.648 15.4763H119.689C124.003 15.4763 126.32 17.7936 126.32 22.1081V80.2638H117.648V15.4763ZM19.7015 30.0152H37.0462V80.2638H19.7015V30.0152ZM65.359 62.9191V80.2638H57.4518V45.3193H74.7965V80.2638H70.7153V61.8988C70.7153 58.6447 65.359 57.642 65.359 62.9191ZM75.5617 40.218H56.9416C56.4158 39.2243 55.9467 37.7495 55.5744 36.4839C55.1345 34.9891 54.8213 33.974 54.3583 32.5984C53.7693 30.8491 53.2938 30.6421 54.3039 28.9112C54.9549 27.7956 55.6208 26.7593 56.1779 25.6804L61.6793 15.8778C62.0554 15.2438 62.2441 14.8484 62.6012 14.249L63.5734 12.6705C63.5734 14.881 63.5795 17.0923 63.5731 19.3027C63.5701 20.3069 63.4287 21.6509 63.7658 22.4258C64.6309 24.4144 67.6173 24.4144 68.4824 22.4258C68.869 21.5374 68.6749 13.9773 68.6749 12.6705C69.522 13.2912 77.2157 27.0913 78.2905 28.8202C79.3873 30.5848 79.1491 30.3577 78.3308 32.529L75.5617 40.218ZM23.7827 20.3226H32.9652C33.9227 20.3226 35.3141 24.0478 35.5158 24.9138H21.2319C22.0295 23.2515 22.8628 20.3226 23.7827 20.3226ZM14.6001 27.2094V80.2638H5.92777V22.1081C5.92777 13.9808 13.303 15.4763 19.7015 15.4763L18.4296 18.2855C17.8304 19.6285 14.6001 26.2969 14.6001 27.2094ZM28.1188 9.35463L31.1796 15.2212H25.5681L28.1188 9.35463ZM97.2426 5.27348H112.547V80.2638H97.2426V76.6928C102.187 76.6928 105.15 77.5309 105.15 73.8871C105.15 70.791 100.883 71.5915 97.2426 71.5915V66.4901H100.048C101.496 66.4901 102.089 64.8368 102.089 63.4293C102.089 62.6817 100.796 61.3888 100.048 61.3888H97.2426V56.2873C102.187 56.2873 105.15 57.1254 105.15 53.4816C105.15 50.3854 100.883 51.186 97.2426 51.186V46.0846H100.048C101.496 46.0846 102.089 44.4313 102.089 43.0237C102.089 42.2761 100.796 40.9832 100.048 40.9832H97.2426V35.8818C102.187 35.8818 105.15 36.7199 105.15 33.0761C105.15 29.9799 100.883 30.7804 97.2426 30.7804V25.679H100.048C101.496 25.679 102.089 24.0257 102.089 22.6182C102.089 21.8706 100.796 20.5776 100.048 20.5776H97.2426V15.4763C102.187 15.4763 105.15 16.3144 105.15 12.6705C105.15 9.57441 100.883 10.3749 97.2426 10.3749V5.27348Z" fill="url(#paint0_linear_236_1630)"/>
<defs>
<linearGradient id="paint0_linear_236_1630" x1="66.1241" y1="0.172119" x2="66.1241" y2="130.768" gradientUnits="userSpaceOnUse">
  <stop class="svg-stop-hover-2" stop-color="#17A6D6"/>
  <stop offset="1" stop-color="#4B33A1"/>
</linearGradient>
</defs>
</svg>
