<svg width="145" height="129" viewBox="0 0 145 129" fill="none" xmlns="http://www.w3.org/2000/svg">
<path fill-rule="evenodd" clip-rule="evenodd" d="M39.1219 92.035C40.2069 92.0591 47.7715 94.4081 48.6912 94.8495C48.0508 96.1845 48.0741 98.0203 46.0928 100.132C44.7645 101.547 43.5255 102.792 41.3735 103.293C40.9516 101.483 39.1219 93.5155 39.1219 92.0351V92.035ZM41.3735 36.3075C41.3735 37.3578 41.5619 37.9552 42.2205 38.5565C46.0603 42.0613 49.8921 33.7745 43.9066 33.7745C42.5154 33.7745 41.3735 34.9164 41.3735 36.3076V36.3075ZM36.3074 12.6656C36.3074 17.1978 41.9364 16.3892 41.9364 12.947C41.9364 9.48232 36.3074 9.17285 36.3074 12.6656ZM25.8937 12.947C25.8937 16.3099 31.5227 17.4317 31.5227 12.384C31.5227 9.72374 25.8937 9.08298 25.8937 12.947ZM46.4397 13.2285C46.4397 16.0123 52.0687 17.5993 52.0687 12.3841C52.0687 9.87652 46.4397 8.77283 46.4397 13.2285ZM87.8131 50.0987C87.8131 46.3421 82.2221 46.0124 82.058 49.857C81.8898 53.8023 87.8131 53.5486 87.8131 50.0987ZM112.018 53.1946C112.018 56.1716 114.171 57.7502 118.09 54.763C121.384 52.2516 123.839 51.488 123.839 48.6914C123.839 47.1351 122.57 46.1583 121.025 46.1583C119.662 46.1583 117.187 48.3692 116.121 49.1355C114.999 49.9424 112.018 51.6945 112.018 53.1946H112.018ZM112.018 89.7834C112.018 91.0715 112.596 91.7758 113.371 92.3709C114.207 93.0133 114.938 93.4495 115.838 94.1255C116.744 94.8065 119.991 97.3826 121.024 97.3826C123.24 97.3826 125.94 94.3233 121.915 91.4257C120.827 90.6424 116.13 86.9689 115.114 86.9689C113.502 86.9689 112.018 88.272 112.018 89.7834H112.018ZM119.336 74.585H131.438C135.184 74.585 134.766 68.956 132.001 68.956H118.21C115.83 68.956 114.612 74.585 119.336 74.585ZM68.6745 15.7615H128.061C130.826 15.7615 131.243 10.1324 127.498 10.1324H69.8002C66.6799 10.1324 65.899 12.9036 67.0504 14.5633C67.3383 14.9784 68.0924 15.7615 68.6745 15.7615ZM17.7316 12.384C17.7316 8.97101 20.0025 5.91073 23.3608 5.91073H132.846C139.869 5.91073 138.475 15.5854 138.475 20.2647H17.7318V12.3841L17.7316 12.384ZM12.1026 10.6954V50.3801C12.1026 53.7267 17.7316 53.9336 17.7316 50.0987V39.4034H34.6188C38.4231 39.4034 38.7545 35.4733 36.7721 34.1542C34.9742 32.9581 21.1099 33.4929 17.7316 33.4929V25.8937H138.475V97.9454C138.475 106.027 130.428 104.7 124.965 104.7L109.789 104.723C105.712 105.253 107.268 110.329 109.485 110.329H133.127C138.576 110.329 144.104 104.802 144.104 99.3526V10.6953C144.104 5.63826 138.893 0 131.438 0H24.768C17.359 0 12.1026 5.60207 12.1026 10.6953V10.6954ZM22.7979 90.6278H32.93C32.93 92.0424 33.2647 92.7233 33.5193 93.979C33.7503 95.1187 33.9646 96.2148 34.219 97.501C34.6929 99.8965 35.143 101.813 35.6264 104.256C36.1003 106.651 36.5503 108.567 37.0335 111.011C37.4683 113.208 38.2777 115.619 38.2777 117.929C38.2777 122.571 32.1159 123.914 29.6511 120.645C27.8767 118.291 24.0492 93.2356 22.7979 90.6278ZM17.7316 58.8237H32.3671V84.7173H19.139C4.71785 84.7173 1.05922 66.153 12.6566 60.2219C13.8095 59.6323 15.9883 58.8237 17.7316 58.8237ZM101.042 77.9625V65.5785C104.18 66.3097 106.644 71.6774 103.983 75.5567C102.97 77.0338 102.536 77.1717 101.042 77.9624V77.9625ZM81.9027 98.7899L40.8441 86.3727C39.9854 86.0985 39.0564 85.65 37.9963 85.5617V57.9794L45.0921 55.7874C58.5154 52.0657 74.2144 46.5907 87.9757 42.6619C89.6372 42.1876 94.1593 40.6336 95.4125 40.5294V103.012C92.783 102.399 90.3568 101.353 87.8133 100.76V66.7043C87.8133 62.8048 88.6471 58.2607 84.7174 58.2607C81.146 58.2607 81.9028 64.1967 81.9028 66.1413V98.7898L81.9027 98.7899ZM0.000135555 70.6447C0.000135555 76.1584 0.891137 79.5042 4.17427 83.6391C6.35426 86.3848 9.54874 88.4608 13.3273 89.6846C14.4089 90.0349 15.4763 90.0536 16.3354 90.3353C17.2846 90.6466 16.9904 90.2764 17.4749 92.8548L22.6799 117.765C23.1014 119.926 23.5884 121.896 24.6058 123.439C29.2115 130.421 39.9904 129.734 43.2341 121.759C44.1151 119.593 44.1903 117.992 43.8308 115.473C43.7016 114.568 42.8177 109.867 42.4995 109.204C43.8381 108.496 45.1487 108.148 46.5014 107.295C49.8974 105.155 53.7072 100.527 54.039 96.5384C55.3421 96.6468 74.5737 102.691 76.0951 103.19C78.0062 103.818 79.5545 104.264 81.5023 104.82C83.4824 105.385 85.1369 105.998 87.0877 106.552C89.0334 107.104 90.5863 107.554 92.4951 108.181C102.152 111.353 101.041 110.593 101.041 98.2273C101.041 93.5364 101.041 88.8455 101.041 84.1547C102.399 83.5033 103.379 83.4031 104.762 82.5276C114.883 76.119 111.627 61.8529 101.041 59.3868L101.043 38.2759C101.088 31.5239 97.521 33.813 91.5734 35.5648L65.6813 43.4469C63.4438 44.1819 61.528 44.7755 59.224 45.4332C54.7741 46.7036 50.7439 48.1616 46.3209 49.4173C42.7605 50.428 36.2631 52.9379 32.9367 52.9201C20.5199 52.8539 8.25081 50.5993 1.68372 63.8852C0.886121 65.4989 0 68.2418 0 70.645L0.000135555 70.6447Z" fill="url(#paint0_linear_236_2083)"/>
<defs>
<linearGradient id="paint0_linear_236_2083" x1="72.0519" y1="0" x2="72.0519" y2="128.243" gradientUnits="userSpaceOnUse">
  <stop class="svg-stop-hover-2" stop-color="#17A6D6"/>
  <stop offset="1" stop-color="#4B33A1"/>
</linearGradient>
</defs>
</svg>
