<svg width="128" height="128" viewBox="0 0 128 128" fill="none" xmlns="http://www.w3.org/2000/svg">
<path fill-rule="evenodd" clip-rule="evenodd" d="M116.563 122.666H12.1421C7.93669 122.666 5.67797 120.407 5.67797 116.202V23.2175H10.6505C10.6505 25.9369 10.1783 40.0972 11.1461 41.6169C12.1173 43.142 15.8715 43.4883 15.8715 39.1293V23.2175H101.149C102.254 23.2175 104.244 28.1899 109.851 28.1899H123.028V115.953C123.028 120.299 120.916 122.666 116.563 122.666ZM62.861 32.1679C62.861 32.6974 63.3426 33.6136 63.6093 33.9058C64.1404 34.4877 64.6681 34.654 65.5958 34.654C68.5594 34.654 68.9259 29.6816 65.3472 29.6816C64.5362 29.6816 63.9959 30.0063 63.6093 30.4298C63.3426 30.722 62.861 31.6383 62.861 32.1679ZM35.7613 11.7808C35.7613 12.8574 36.6337 14.2671 38.4961 14.2671C41.4597 14.2671 41.8262 9.29464 38.2474 9.29464C36.6116 9.29464 35.7613 10.872 35.7613 11.7808ZM27.3081 14.2671C29.8397 14.2671 30.7724 11.6618 29.2947 10.0429C28.7636 9.46096 28.2358 9.29464 27.3081 9.29464C24.2234 9.29464 24.2234 14.2671 27.3081 14.2671ZM14.1311 11.5322C14.1311 16.7732 21.3646 13.6519 18.5076 10.1391C17.1907 8.51983 14.1311 9.26002 14.1311 11.5322ZM10.6505 49.5713C10.6505 50.4086 11.4501 51.429 12.2471 51.7255C14.3412 52.5045 16.238 50.7322 15.5995 48.6205C14.7577 45.8373 10.6505 46.4983 10.6505 49.5713ZM53.4134 11.2836C53.4134 12.6555 53.9911 14.2671 55.4023 14.2671H93.1929C96.3045 14.2671 96.3045 9.29464 93.1929 9.29464H55.4023C54.6737 9.29464 53.4134 10.5549 53.4134 11.2836ZM29.5457 111.23C25.9822 111.23 23.3329 107.123 25.9121 103.618C28.0525 100.709 34.325 101.764 34.1821 106.726C34.1135 109.108 32.1501 111.23 29.5457 111.23ZM99.1598 111.23C95.8667 111.23 92.7102 107.282 95.5204 103.612C97.7943 100.643 103.891 101.857 103.729 106.722C103.644 109.277 101.715 111.23 99.1598 111.23ZM64.3527 111.23C61.8169 111.23 59.6289 109.011 59.6289 106.506C59.6289 100.392 69.3045 100.622 68.9536 106.691C68.8037 109.283 66.9754 111.23 64.3527 111.23ZM92.6956 75.9252H104.878C105.451 75.9252 105.624 76.0982 105.624 76.6712V86.8646H92.6956V75.9252ZM57.8886 75.9252H70.0711C70.6439 75.9252 70.8169 76.0982 70.8169 76.6712V86.8646H57.8886V75.9252ZM23.0815 75.9252H35.264C35.8369 75.9252 36.0099 76.0982 36.0099 76.6712V86.8646H23.0815V75.9252ZM32.0319 31.9192V52.3062C32.0319 53.8692 33.6706 54.5438 34.0209 54.5438H61.8665V59.5163H29.0485C28.6908 59.5163 27.0595 60.1947 27.0595 61.7538V70.9528C24.6429 70.9528 20.1934 70.5404 18.9536 71.5487C18.6601 71.7874 18.1091 72.5275 18.1091 72.9418V89.5995C18.1091 92.3871 21.6289 91.8812 24.8305 91.8284C27.5078 91.7843 27.0595 91.2042 27.0595 96.5609C27.0595 97.7766 24.4838 97.4701 22.4363 99.8936C13.8693 110.034 27.8589 121.684 36.0787 113.785C36.9077 112.988 37.5555 112.178 38.1496 111.132C40.6466 106.732 38.7559 100.629 34.6059 98.2134C31.6502 96.4929 32.0319 98.993 32.0319 91.8371C36.3216 91.8371 40.9823 92.7266 40.9823 89.5995V73.4391C40.9823 70.0493 36.3227 70.9528 32.0319 70.9528V64.4887H61.8665V70.9528C59.2377 70.9528 52.9162 70.107 52.9162 72.9418V89.5995C52.9162 93.9874 61.8665 90.2843 61.8665 92.5829C61.8665 98.6259 62.2139 96.6357 59.4534 98.1257C57.117 99.387 54.6565 102.659 54.6565 105.511V107.252C54.6565 114.344 64.352 119.776 71.0089 113.659C77.3381 107.843 72.7383 97.7976 66.839 97.3067V91.8371C69.3615 91.8371 73.9397 92.2753 74.9829 91.2792C75.2041 91.0679 75.7893 90.2074 75.7893 89.848V73.4391C75.7893 70.0493 71.1298 70.9528 66.839 70.9528V64.4887H96.6735V70.9528C94.0448 70.9528 87.7232 70.107 87.7232 72.9418V89.5995C87.7232 93.9874 96.6735 90.2843 96.6735 92.5829C96.6735 97.7314 96.9993 96.9038 95.6252 97.5015C92.24 98.9738 89.4635 101.921 89.4635 105.76C89.4635 108.113 89.3463 108.922 90.5353 111.152C95.0881 119.694 108.856 117.364 108.856 106.009C108.856 102.157 105.082 97.5926 101.646 97.3067V91.8371C105.936 91.8371 110.596 92.7266 110.596 89.5995V73.4391C110.596 70.0493 105.937 70.9528 101.646 70.9528V61.5052C101.646 60.7765 100.386 59.5163 99.657 59.5163H66.839V54.5438H94.6846C95.4133 54.5438 96.6735 53.2835 96.6735 52.5548V31.6706C96.6735 30.9419 95.4133 29.6816 94.6846 29.6816H75.7893C72.786 29.6816 72.786 34.654 75.7893 34.654H91.7011V49.5713H37.0044V34.654H53.4134C55.9425 34.654 55.9425 29.6816 53.4134 29.6816H34.0209C33.6632 29.6816 32.0319 30.3601 32.0319 31.9192ZM105.127 9.04597L119.36 23.1558C104.252 23.5466 105.127 23.0238 105.127 9.04597ZM5.67797 11.7808C5.67797 7.57537 7.93669 5.31665 12.1421 5.31665H100.154V18.245H5.67797V11.7808ZM0.705566 9.7919V118.191C0.705566 122.339 5.38535 127.639 10.4018 127.639H118.552C119.621 127.639 121.403 126.973 122.208 126.57C125.393 124.976 128 121.47 128 117.694V25.455C128 24.0714 126.156 22.7409 125.327 21.9122L106.556 3.14126C105.713 2.29845 104.282 0.344238 102.889 0.344238H10.4018C7.8406 0.344238 5.23049 1.94706 3.86673 3.25682C2.32495 4.73747 0.705566 7.68865 0.705566 9.7919Z" fill="url(#paint0_linear_236_1322)"/>
<defs>
<linearGradient id="paint0_linear_236_1322" x1="64.3527" y1="0.344238" x2="64.3527" y2="127.639" gradientUnits="userSpaceOnUse">
  <stop class="svg-stop-hover-2" stop-color="#17A6D6"/>
  <stop offset="1" stop-color="#4B33A1"/>
</linearGradient>
</defs>
</svg>
