<svg width="145" height="145" viewBox="0 0 145 145" fill="none" xmlns="http://www.w3.org/2000/svg">
<path fill-rule="evenodd" clip-rule="evenodd" d="M84.4357 138.475H13.5097C8.3679 138.475 5.62902 136.273 5.62902 131.157V74.8664H92.3164V130.594C92.3164 136.124 89.9659 138.475 84.4357 138.475ZM97.9455 87.2503V72.0518C100.382 72.2546 101.801 73.7665 102.737 75.7038C103.193 76.6473 104.982 81.0592 104.982 82.1841C104.982 82.915 99.1156 86.6311 97.9455 87.2503ZM5.62902 61.9195C5.62902 57.1587 8.18601 54.6018 12.9468 54.6018H84.9986C93.5996 54.6018 92.3164 62.0139 92.3164 69.2373H5.62902V61.9195ZM55.7276 48.9727C56.3844 46.1533 60.0896 40.613 62.2653 38.6233L65.297 36.026C65.8238 37.1238 65.8395 40.9582 68.5591 42.8961C71.345 44.8814 70.0756 45.4284 68.0436 47.2162C66.8362 48.2786 67.0672 48.9561 65.0391 48.9963C61.9819 49.0569 58.8015 48.9727 55.7276 48.9727ZM86.1244 36.5888C86.1244 35.0219 88.4355 34.3073 89.6895 33.6805C90.9349 33.058 93.3921 31.5227 94.2866 31.5227C96.7942 31.5227 103.186 36.1907 105.483 38.3388L108.322 41.6921C120.167 57.5527 111.624 75.9088 109.204 76.555C109.032 74.4936 107.151 71.2202 105.483 69.5808C103.949 68.0739 100.797 66.2048 97.9455 66.1413V60.5123C97.9455 55.6083 94.1847 50.7113 90.3462 49.8171C90.3462 46.3108 90.9291 41.5485 88.1369 39.0797C87.3759 38.407 86.1244 37.9106 86.1244 36.5888ZM84.7172 45.5953V48.9727H74.5849C76.49 45.3723 76.5475 41.6377 73.0165 39.0016C71.839 38.1226 71.672 38.077 71.3582 36.4381C71.1146 35.1666 70.7385 33.7778 70.6446 32.6485C74.2596 30.9139 79.38 29.5525 84.7172 29.5525C84.667 29.5962 84.5872 29.5962 84.5642 29.6809L83.9251 30.1677C83.4089 30.5368 83.4666 30.4437 82.957 30.8883C82.3317 31.4335 81.9609 31.7872 81.5204 32.5477C79.7607 35.5858 80.1298 39.0668 82.2605 41.5786L83.8582 43.0769C84.4198 43.7067 84.7172 44.4165 84.7172 45.5953ZM72.0518 10.1323C70.3607 10.17 65.6077 11.9383 64.0857 12.5799C62.5387 13.2319 58.3985 15.2259 57.1348 16.3242C55.1969 15.0265 53.0655 13.8712 51.0015 12.6066C47.8886 10.6994 46.8937 12.0635 44.8213 14.1429C43.0783 15.8917 35.4631 22.714 35.4631 24.7678C35.4631 26.2296 39.9663 32.126 39.9663 33.2114C39.9663 33.7371 35.2761 41.1874 35.654 43.5015C36.074 46.0735 39.7519 47.212 41.3784 43.63C41.9081 42.4634 42.2935 41.2991 42.8699 40.0553C45.9586 33.3896 48.1691 35.2587 44.4164 29.0427C43.8239 28.0612 42.4538 26.0621 42.2179 25.0492L48.9038 18.2255C50.6936 18.7967 55.3286 22.5162 57.1348 22.5162C58.1979 22.5162 64.9577 17.9919 70.4783 16.4393C73.6733 15.5408 76.1182 15.6521 77.0813 13.473C77.5267 12.4653 78.9868 6.84668 79.0882 5.62902H88.939L90.8635 13.274C91.8143 15.6498 94.086 15.505 97.327 16.3798C100.151 17.142 102.008 18.2285 104.178 19.0982C105.433 19.601 106.194 20.1145 107.287 20.7744C111.148 23.1064 110.641 23.189 114.921 20.635C115.913 20.0432 118.132 18.5408 119.054 18.2944L125.878 24.9803C125.573 26.0621 124.203 28.0612 123.611 29.0427C119.662 35.5833 122.111 32.4567 126.336 42.8166C128.271 47.5605 128.445 52.1632 130.594 53.1946C131.258 53.5132 137.525 55.0857 138.475 55.1647V65.0155C125.419 68.0572 131.503 65.6628 124.963 80.4938C122.198 86.7649 119.809 84.8408 123.611 91.1375C124.203 92.1189 125.573 94.1181 125.809 95.1309L119.123 101.955C117.216 101.457 112.532 97.664 111.174 97.664C109.014 97.664 104.552 102.035 97.9455 103.575V93.4422C99.6529 93.3002 104.006 90.4256 105.589 89.2646L109.838 85.6334C110.679 84.7976 110.934 84.3767 111.674 83.5288C113.005 82.0034 113.904 80.7847 114.992 78.9665C120.488 69.7873 122.099 59.1414 118.039 47.4547C117.301 45.328 116.481 43.9399 115.492 42.1211C112.848 37.2554 108.688 32.965 104.082 29.8893C102.387 28.7574 100.997 27.9594 98.9907 27.1C86.1771 21.6117 72.0076 23.0191 61.3147 31.7622C56.4284 35.7576 51.0331 42.5451 49.5357 48.9727L11.8141 48.9658C5.32049 48.9244 0 54.4816 0 59.9494V133.408C0 134.618 0.753682 136.635 1.2096 137.546C3.01042 141.145 6.96087 144.104 11.2581 144.104H86.6873C92.472 144.104 97.9063 138.761 97.9576 132.576C98.0205 124.988 97.9455 117.36 97.9455 109.766C100.758 108.417 104.487 107.909 108.867 105.208C111.471 103.604 111.118 104.083 114.004 105.811C119.489 109.093 119.367 109.883 123.065 106.178C134.412 94.811 134.023 97.3058 129.59 89.943C127.888 87.1162 127.595 87.3558 129.414 84.3815C130.615 82.4172 133.91 74.8099 133.971 72.0518C135.532 71.9219 138.293 71.0372 139.882 70.6451C141.751 70.1839 144.104 69.8635 144.104 67.5486V52.6316C144.104 50.2946 141.616 50.0331 139.826 49.5913C137.794 49.0898 135.939 48.5868 133.971 48.1283C133.933 46.4186 132.243 41.8956 131.603 40.3643L130.031 36.8703C127.966 32.417 126.855 34.8565 130.259 29.218C133.961 23.0861 133.916 24.8707 123.347 14.2837C119.809 10.7399 119.611 10.4855 110.892 16.3242C110.717 16.1723 110.551 16.0128 110.275 15.816C109.824 15.4943 109.943 15.5757 109.395 15.2888C106.097 13.5621 99.378 10.2081 95.9753 10.1323C95.5171 8.16576 95.0168 6.30751 94.5113 4.27853C94.0539 2.44181 93.8736 0 91.472 0H76.2736C74.189 0 73.7638 3.28284 73.5158 4.27853C73.0104 6.30751 72.5099 8.16576 72.0518 10.1323Z" fill="url(#paint0_linear_236_1286)"/>
<defs>
<linearGradient id="paint0_linear_236_1286" x1="72.0518" y1="0" x2="72.0518" y2="144.104" gradientUnits="userSpaceOnUse">
  <stop class="svg-stop-hover-2" stop-color="#17A6D6"/>
  <stop offset="1" stop-color="#4B33A1"/>
</linearGradient>
</defs>
</svg>
